<svg 
 xmlns="http://www.w3.org/2000/svg"
 xmlns:xlink="http://www.w3.org/1999/xlink"
 width="300px" height="95px" viewBox="0 0 300 95"	 style="enable-background:new 0 0 300 95;" xml:space="preserve">
<path fill-rule="evenodd"  class="whitering" id="logo_dialog24" fill="rgb(245, 173, 8)"
 d="M193.000,63.000 L137.000,63.000 L165.617,0.855 L163.525,12.815 L193.387,12.815 C198.232,12.815 202.158,16.717 202.158,21.561 L202.158,53.948 C202.158,58.769 197.846,63.000 193.000,63.000 ZM130.000,63.000 L101.000,63.000 C96.154,63.000 91.842,58.769 91.842,53.948 L91.842,21.561 C91.842,16.717 95.770,12.815 100.615,12.815 L156.589,12.815 L128.690,74.145 L130.000,63.000 Z"/>
<path fill-rule="evenodd"  class="whitering" id="logo_dialog7" fill="rgb(42, 149, 204)"
 d="M76.889,62.966 L33.410,62.966 L60.723,2.582 L59.166,13.088 L76.889,13.088 C81.735,13.088 85.637,16.990 85.637,21.834 L85.637,54.221 C85.637,59.042 81.735,62.966 76.889,62.966 ZM25.582,62.966 L9.108,62.966 C4.263,62.966 0.363,59.042 0.363,54.221 L0.363,21.834 C0.363,16.990 4.263,13.088 9.108,13.088 L52.588,13.088 L24.920,74.418 L25.582,62.966 Z"/>
<path fill-rule="evenodd"  class="whitering" id="logo_shadow7" fill="rgb(25, 121, 171)"
 d="M86.000,53.000 C85.951,57.243 82.106,62.945 79.000,63.000 C78.910,63.002 74.000,63.000 74.000,63.000 L60.000,50.000 L67.000,34.000 L59.000,29.000 L59.000,24.000 L76.000,24.000 L86.000,36.000 C85.877,41.285 86.081,45.924 86.000,53.000 ZM15.000,50.000 L22.000,34.000 L14.000,29.000 L14.000,24.000 L31.000,24.000 L42.000,35.000 L30.000,64.000 L15.000,50.000 Z"/>
<path fill-rule="evenodd"  class="whitering" id="logo_shadow24" fill="rgb(245, 147, 8)"
 d="M195.000,63.000 L170.000,63.000 L156.000,51.000 L156.000,47.000 L164.000,40.000 L156.000,33.000 L167.000,24.000 L170.000,25.000 L181.194,36.194 L190.000,24.000 L195.000,24.000 L202.000,31.000 C202.000,31.000 202.000,44.045 202.000,55.000 C202.000,58.633 195.000,63.000 195.000,63.000 ZM129.000,73.000 C129.030,73.052 130.025,62.992 130.000,63.000 C129.914,63.029 111.000,63.000 111.000,63.000 L96.000,51.000 L96.000,47.000 L104.000,40.000 L96.000,33.000 L107.000,24.000 L110.000,25.000 L121.028,36.422 L130.000,24.000 L135.000,24.000 L146.000,36.000 L134.000,63.000 C134.000,63.000 128.983,72.971 129.000,73.000 Z"/>
<path fill-rule="evenodd"  class="whitering" id="logo_text_dotCom"  fill="rgb(245, 173, 8)"
 d="M293.052,53.556 L293.052,40.374 C293.052,38.858 292.909,37.770 292.623,37.111 C292.164,35.966 291.206,35.393 289.745,35.393 C286.883,35.393 285.451,37.869 285.451,42.822 L285.451,53.556 L279.698,53.556 L279.698,40.374 C279.698,38.858 279.555,37.770 279.269,37.111 C278.811,35.966 277.852,35.393 276.392,35.393 C273.530,35.393 272.099,37.869 272.099,42.822 L272.099,53.556 L266.345,53.556 L266.345,31.443 L271.712,31.443 L271.712,34.534 L271.798,34.534 C273.401,32.130 275.590,30.928 278.367,30.928 C281.544,30.928 283.720,32.231 284.894,34.835 C285.522,33.576 286.511,32.589 287.856,31.873 C289.059,31.243 290.375,30.928 291.808,30.928 C296.472,30.928 298.806,33.820 298.806,39.602 L298.806,53.556 L293.052,53.556 ZM250.329,54.072 C246.778,54.072 243.944,52.955 241.826,50.722 C239.794,48.633 238.778,45.942 238.778,42.650 C238.778,39.072 239.895,36.210 242.127,34.062 C244.245,31.973 246.979,30.928 250.329,30.928 C253.679,30.928 256.448,31.988 258.638,34.105 C260.827,36.224 261.923,39.072 261.923,42.650 C261.923,45.942 260.905,48.633 258.874,50.722 C256.755,52.955 253.907,54.072 250.329,54.072 ZM254.536,37.411 C253.507,36.067 252.102,35.393 250.329,35.393 C248.554,35.393 247.165,36.080 246.163,37.454 C245.247,38.656 244.790,40.159 244.790,41.963 C244.790,47.059 246.636,49.606 250.329,49.606 C254.050,49.606 255.910,47.059 255.910,41.963 C255.910,40.132 255.452,38.614 254.536,37.411 ZM222.462,50.765 C220.630,48.677 219.714,45.886 219.714,42.392 C219.714,39.072 220.630,36.367 222.462,34.278 C224.409,32.044 227.057,30.928 230.405,30.928 C232.495,30.928 234.356,31.172 235.987,31.658 L235.472,36.210 C234.299,35.666 232.997,35.393 231.564,35.393 C229.790,35.393 228.373,36.037 227.314,37.325 C226.255,38.614 225.726,40.303 225.726,42.392 C225.726,44.539 226.212,46.257 227.185,47.545 C228.244,48.919 229.747,49.606 231.694,49.606 C233.068,49.606 234.542,49.262 236.116,48.575 L236.374,53.342 C234.800,53.828 232.882,54.072 230.620,54.072 C227.099,54.072 224.380,52.970 222.462,50.765 ZM209.194,47.545 L215.206,47.545 L215.206,53.556 L209.194,53.556 L209.194,47.545 Z"/>
<path fill-rule="evenodd"  class="blueing" id="logo_text_772424" fill="rgb(255, 255, 255)"
 d="M194.852,46.476 L194.852,51.398 L189.599,51.398 L189.599,46.476 L177.053,46.476 L177.053,42.447 L189.649,24.137 L194.852,24.137 L194.852,42.167 L197.785,42.167 L197.785,46.476 L194.852,46.476 ZM189.930,30.793 L182.610,42.167 L189.930,42.167 L189.930,30.793 ZM156.473,47.089 L164.403,39.947 C167.106,37.551 169.274,35.664 169.325,32.527 C169.325,29.849 167.616,28.447 165.399,28.447 C162.745,28.447 161.650,30.844 161.598,33.648 L156.371,33.648 C156.448,31.533 156.780,29.289 158.257,27.274 C160.400,24.213 163.918,23.602 165.856,23.602 C171.543,23.602 174.782,27.555 174.782,32.043 C174.756,35.231 173.609,37.474 170.422,40.534 L163.969,46.756 L174.936,46.756 L174.936,51.398 L156.473,51.398 L156.473,47.089 ZM134.694,51.398 L129.442,51.398 L129.442,46.476 L116.895,46.476 L116.895,42.447 L129.493,24.137 L134.694,24.137 L134.694,42.167 L137.627,42.167 L137.627,46.476 L134.694,46.476 L134.694,51.398 ZM129.773,30.793 L122.455,42.167 L129.773,42.167 L129.773,30.793 ZM96.316,47.089 L104.247,39.947 C106.950,37.551 109.118,35.664 109.168,32.527 C109.168,29.849 107.460,28.447 105.241,28.447 C102.588,28.447 101.493,30.844 101.441,33.648 L96.215,33.648 C96.289,31.533 96.622,29.289 98.102,27.274 C100.244,24.213 103.762,23.602 105.701,23.602 C111.387,23.602 114.625,27.555 114.625,32.043 C114.600,35.231 113.453,37.474 110.265,40.534 L103.813,46.756 L114.779,46.756 L114.779,51.398 L96.316,51.398 L96.316,47.089 ZM59.638,51.475 L70.425,28.294 L58.948,28.294 L58.948,23.525 L76.214,23.525 L76.214,27.860 L65.782,51.475 L59.638,51.475 ZM14.474,51.475 L25.261,28.294 L13.786,28.294 L13.786,23.525 L31.050,23.525 L31.050,27.860 L20.620,51.475 L14.474,51.475 Z"/>
<path fill-rule="evenodd"  class="whitering" id="logo_text_hosting" fill="rgb(107, 112, 113)"
 d="M299.625,82.402 L299.625,87.833 C298.096,89.526 295.980,90.373 293.277,90.373 C291.016,90.373 289.114,89.628 287.582,88.138 C286.047,86.648 285.281,84.768 285.281,82.497 C285.281,80.226 286.064,78.332 287.629,76.813 C289.190,75.294 291.078,74.536 293.290,74.536 C295.499,74.536 297.420,75.258 299.054,76.705 L297.268,79.268 C296.578,78.670 295.941,78.257 295.363,78.031 C294.782,77.804 294.155,77.693 293.478,77.693 C292.171,77.693 291.068,78.136 290.174,79.018 C289.276,79.901 288.830,81.066 288.830,82.513 C288.830,83.957 289.259,85.116 290.121,85.985 C290.979,86.855 292.006,87.288 293.194,87.288 C294.386,87.288 295.376,87.062 296.169,86.609 L296.169,82.402 L299.625,82.402 ZM269.944,80.607 L269.944,90.199 L266.508,90.199 L266.508,74.890 L269.727,74.890 L277.283,84.745 L277.283,74.890 L280.719,74.890 L280.719,90.199 L277.283,90.199 L269.944,80.607 ZM257.628,74.887 L261.064,74.887 L261.064,90.199 L257.628,90.199 L257.628,74.887 ZM249.101,90.199 L245.665,90.199 L245.665,77.847 L241.300,77.847 L241.300,74.890 L253.465,74.890 L253.465,77.847 L249.101,77.847 L249.101,90.199 ZM233.516,81.014 C234.979,81.371 236.111,81.906 236.920,82.622 C237.729,83.337 238.131,84.380 238.131,85.755 C238.131,87.127 237.613,88.240 236.580,89.096 C235.543,89.949 234.180,90.379 232.490,90.379 C230.050,90.379 227.855,89.480 225.901,87.685 L227.947,85.188 C229.608,86.635 231.143,87.357 232.552,87.357 C233.183,87.357 233.681,87.222 234.041,86.950 C234.401,86.681 234.579,86.313 234.579,85.854 C234.579,85.394 234.388,85.030 234.005,84.761 C233.622,84.492 232.866,84.216 231.737,83.941 C229.945,83.517 228.634,82.966 227.805,82.287 C226.977,81.607 226.561,80.541 226.561,79.090 C226.561,77.637 227.086,76.518 228.136,75.730 C229.185,74.943 230.496,74.545 232.067,74.545 C233.097,74.545 234.124,74.723 235.154,75.071 C236.180,75.422 237.078,75.917 237.844,76.560 L236.101,79.058 C234.764,78.050 233.384,77.545 231.958,77.545 C231.384,77.538 230.932,77.673 230.605,77.945 C230.275,78.214 230.110,78.572 230.110,79.018 C230.110,79.465 230.311,79.819 230.717,80.082 C231.120,80.344 232.054,80.656 233.516,81.014 ZM214.489,90.353 C212.211,90.353 210.293,89.598 208.738,88.085 C207.180,86.576 206.404,84.696 206.404,82.444 C206.404,80.196 207.183,78.316 208.738,76.803 C210.296,75.290 212.211,74.536 214.489,74.536 C216.766,74.536 218.681,75.290 220.239,76.803 C221.794,78.316 222.573,80.193 222.573,82.444 C222.573,84.696 221.794,86.576 220.239,88.085 C218.681,89.598 216.763,90.353 214.489,90.353 ZM217.747,78.963 C216.865,77.998 215.783,77.515 214.495,77.515 C213.208,77.515 212.125,77.998 211.244,78.963 C210.362,79.927 209.920,81.089 209.920,82.457 C209.920,83.823 210.362,84.984 211.244,85.939 C212.125,86.894 213.208,87.373 214.495,87.373 C215.779,87.373 216.865,86.894 217.747,85.939 C218.628,84.984 219.071,83.823 219.071,82.457 C219.071,81.092 218.628,79.927 217.747,78.963 ZM198.402,84.177 L192.275,84.177 L192.275,90.199 L188.839,90.199 L188.839,74.890 L192.275,74.890 L192.275,81.283 L198.402,81.283 L198.402,74.890 L201.839,74.890 L201.839,90.199 L198.402,90.199 L198.402,84.177 ZM165.305,74.890 L176.410,74.890 L176.410,77.932 L168.742,77.932 L168.742,81.086 L175.641,81.086 L175.641,84.000 L168.742,84.000 L168.742,87.176 L176.651,87.176 L176.651,90.199 L165.305,90.199 L165.305,74.890 ZM154.840,77.801 C153.546,77.801 152.444,78.221 151.523,79.061 C150.605,79.901 150.146,81.033 150.146,82.457 C150.146,83.882 150.579,85.024 151.447,85.883 C152.312,86.747 153.362,87.176 154.596,87.176 C156.283,87.176 157.666,86.514 158.739,85.184 L160.941,87.439 C159.191,89.395 157.131,90.373 154.761,90.373 C152.391,90.373 150.433,89.628 148.902,88.138 C147.367,86.648 146.598,84.768 146.598,82.497 C146.598,80.226 147.380,78.332 148.945,76.813 C150.506,75.297 152.424,74.536 154.685,74.536 C157.211,74.536 159.327,75.494 161.030,77.407 L158.894,79.816 C157.808,78.474 156.455,77.801 154.840,77.801 ZM139.081,90.199 L135.667,85.312 L133.287,85.312 L133.287,90.199 L129.851,90.199 L129.851,74.890 L135.687,74.890 C138.081,74.890 139.791,75.290 140.811,76.094 C141.834,76.898 142.346,78.191 142.346,79.970 C142.346,82.425 141.369,84.006 139.414,84.722 L143.313,90.199 L139.081,90.199 ZM138.183,78.283 C137.741,77.978 136.971,77.821 135.869,77.821 L133.291,77.821 L133.291,82.356 L135.803,82.356 C136.975,82.359 137.777,82.169 138.203,81.788 C138.629,81.407 138.843,80.807 138.843,79.980 C138.843,79.156 138.622,78.588 138.183,78.283 ZM113.788,74.890 L124.893,74.890 L124.893,77.932 L117.224,77.932 L117.224,81.086 L124.123,81.086 L124.123,84.000 L117.224,84.000 L117.224,87.176 L125.137,87.176 L125.137,90.199 L113.788,90.199 L113.788,74.890 ZM104.908,80.561 L100.745,88.929 L98.695,88.929 L94.552,80.561 L94.552,90.199 L91.115,90.199 L91.115,74.890 L95.763,74.890 L99.731,83.301 L103.719,74.890 L108.344,74.890 L108.344,90.199 L104.908,90.199 L104.908,80.561 ZM82.232,80.561 L78.069,88.929 L76.019,88.929 L71.876,80.561 L71.876,90.199 L68.440,90.199 L68.440,74.890 L73.091,74.890 L77.056,83.301 L81.044,74.890 L85.672,74.890 L85.672,90.199 L82.232,90.199 L82.232,80.561 ZM55.793,90.353 C53.515,90.353 51.597,89.598 50.043,88.085 C48.485,86.576 47.709,84.696 47.709,82.444 C47.709,80.196 48.488,78.316 50.043,76.803 C51.601,75.290 53.515,74.536 55.793,74.536 C58.071,74.536 59.986,75.290 61.544,76.803 C63.099,78.316 63.878,80.193 63.878,82.444 C63.881,84.696 63.102,86.576 61.544,88.085 C59.986,89.598 58.068,90.353 55.793,90.353 ZM59.051,78.963 C58.170,77.998 57.087,77.515 55.800,77.515 C54.512,77.515 53.430,77.998 52.548,78.963 C51.667,79.927 51.224,81.089 51.224,82.457 C51.224,83.823 51.667,84.984 52.548,85.939 C53.430,86.894 54.512,87.373 55.800,87.373 C57.084,87.373 58.170,86.894 59.051,85.939 C59.936,84.984 60.375,83.823 60.375,82.457 C60.375,81.092 59.933,79.927 59.051,78.963 ZM38.456,77.801 C37.162,77.801 36.059,78.221 35.138,79.061 C34.220,79.901 33.761,81.033 33.761,82.457 C33.761,83.882 34.194,85.024 35.062,85.883 C35.927,86.747 36.977,87.176 38.211,87.176 C39.898,87.176 41.281,86.514 42.354,85.184 L44.556,87.439 C42.807,89.395 40.747,90.373 38.376,90.373 C36.006,90.373 34.049,89.628 32.517,88.138 C30.982,86.648 30.213,84.768 30.213,82.497 C30.213,80.226 30.995,78.332 32.560,76.813 C34.121,75.297 36.039,74.536 38.301,74.536 C40.826,74.536 42.942,75.494 44.645,77.407 L42.509,79.816 C41.423,78.474 40.070,77.801 38.456,77.801 ZM18.269,82.162 L26.113,82.162 L26.113,85.076 L18.269,85.076 L18.269,82.162 ZM2.625,74.890 L13.730,74.890 L13.730,77.932 L6.062,77.932 L6.062,81.086 L12.958,81.086 L12.958,84.000 L6.062,84.000 L6.062,87.176 L13.971,87.176 L13.971,90.199 L2.625,90.199 L2.625,74.890 Z"/>

</svg>