<?xml version="1.0" encoding="UTF-8" standalone="no"?>
<!-- Generator: Adobe Illustrator 21.0.0, SVG Export Plug-In . SVG Version: 6.00 Build 0)  -->

<svg
   xmlns:dc="http://purl.org/dc/elements/1.1/"
   xmlns:cc="http://creativecommons.org/ns#"
   xmlns:rdf="http://www.w3.org/1999/02/22-rdf-syntax-ns#"
   xmlns:svg="http://www.w3.org/2000/svg"
   xmlns="http://www.w3.org/2000/svg"
   xmlns:sodipodi="http://sodipodi.sourceforge.net/DTD/sodipodi-0.dtd"
   xmlns:inkscape="http://www.inkscape.org/namespaces/inkscape"
   version="1.1"
   id="Calque_1"
   x="0px"
   y="0px"
   viewBox="0 0 1546.6 152.8"
   style="enable-background:new 0 0 1546.6 152.8;"
   xml:space="preserve"
   sodipodi:docname="fop.svg"
   inkscape:version="0.92.4 (5da689c313, 2019-01-14)"><metadata
   id="metadata95"><rdf:RDF><cc:Work
       rdf:about=""><dc:format>image/svg+xml</dc:format><dc:type
         rdf:resource="http://purl.org/dc/dcmitype/StillImage" /></cc:Work></rdf:RDF></metadata><defs
   id="defs93" /><sodipodi:namedview
   pagecolor="#ffffff"
   bordercolor="#666666"
   borderopacity="1"
   objecttolerance="10"
   gridtolerance="10"
   guidetolerance="10"
   inkscape:pageopacity="0"
   inkscape:pageshadow="2"
   inkscape:window-width="1920"
   inkscape:window-height="1017"
   id="namedview91"
   showgrid="false"
   inkscape:zoom="0.92331567"
   inkscape:cx="1321.5925"
   inkscape:cy="85.943684"
   inkscape:window-x="-8"
   inkscape:window-y="1"
   inkscape:window-maximized="1"
   inkscape:current-layer="Calque_1" />
<style
   type="text/css"
   id="style2">
	.st0{fill:#072249;}
	.st1{fill:#FF5E17;}
	.st2{fill:#FF4E00;}
	.st3{fill:#E6E8EC;}
	.st4{fill:#212121;}
	.st5{fill:#FFD701;}
	.st6{fill:#141313;}
	.st7{fill:#EFEAEA;}
</style>
<path
   class="st0"
   d="M76.1,17.3c0.7,1.2,1.4,2.8,2,4.7c0.6,1.9,0.9,4.1,0.9,6.4c0,4-0.9,7-2.6,8.9c-1.8,1.9-4.2,2.9-7.4,2.9H28.4  v23.9h41.4c0.7,1.3,1.4,2.9,2.1,4.7c0.7,1.8,1,4,1,6.4c0,4-0.9,7-2.7,8.9c-1.8,1.9-4.3,2.8-7.3,2.8H28.8v40.7  c-1.3,0.4-3.2,0.7-5.7,1c-2.4,0.3-5,0.5-7.7,0.5c-5.7,0-9.7-1-12-2.9S0,120.7,0,115.6V32.5c0-4.6,1.4-8.3,4.1-11s6.4-4.1,11-4.1h61  V17.3z"
   id="path4" />
<path
   class="st0"
   d="M118.4,127.8c-1.2,0.4-2.9,0.7-5.1,1s-4.6,0.5-7.3,0.5c-5.5,0-9.4-0.9-11.9-2.6c-2.4-1.8-3.7-5.2-3.7-10.3V60.6  c0-3.4,0.8-6.3,2.6-8.8c1.7-2.4,4.1-4.6,7.1-6.4c4-2.4,8.9-4.4,14.5-5.8c5.7-1.4,11.6-2.1,17.8-2.1c12.7,0,19,4.3,19,12.8  c0,2.1-0.3,4-0.9,5.7c-0.6,1.7-1.3,3.2-2,4.4c-2.8-0.6-6.2-0.9-10.2-0.9c-3.5,0-7.1,0.4-10.6,1.3c-3.5,0.9-6.6,2-9.3,3.5V127.8z"
   id="path6" />
<path
   class="st0"
   d="M163.7,15c0-4.1,1.4-7.7,4.3-10.6c2.9-2.9,6.6-4.4,11.2-4.4c4.6,0,8.4,1.5,11.2,4.4c2.9,2.9,4.3,6.5,4.3,10.6  c0,4.3-1.4,7.9-4.3,10.8c-2.9,2.9-6.6,4.4-11.2,4.4c-4.6,0-8.4-1.5-11.2-4.4C165.1,22.8,163.7,19.2,163.7,15z M193.1,127.8  c-1.2,0.4-2.9,0.7-5.1,1c-2.2,0.3-4.6,0.5-7.3,0.5c-5.5,0-9.4-0.9-11.8-2.6c-2.4-1.8-3.6-5.2-3.6-10.3v-75c1.2-0.4,2.9-0.7,5.1-1.1  c2.2-0.4,4.6-0.5,7.3-0.5c5.5,0,9.4,0.9,11.8,2.7s3.6,5.3,3.6,10.4V127.8z"
   id="path8" />
<path
   class="st0"
   d="M238.2,95.7c1.7,5.1,4.7,8.7,8.9,10.9c4.3,2.1,9.2,3.2,14.8,3.2c5.1,0,9.9-0.7,14.4-2.1s8.2-2.9,11-4.7  c1.8,1.2,3.3,2.8,4.6,4.7c1.2,1.9,1.8,4.1,1.8,6.4c0,2.8-0.9,5.2-2.6,7.3c-1.7,2.1-4,3.8-7,5.2c-3,1.4-6.5,2.4-10.6,3.1  s-8.6,1-13.4,1c-7.2,0-13.8-1-19.9-3c-6.1-2-11.3-5-15.7-8.9c-4.4-4-7.8-8.9-10.3-14.9s-3.7-13-3.7-21c0-7.8,1.2-14.5,3.7-20.3  c2.5-5.7,5.8-10.5,10-14.2c4.2-3.8,9-6.5,14.4-8.3s11-2.6,16.7-2.6c6.2,0,11.9,0.9,17.1,2.8c5.2,1.9,9.6,4.5,13.3,7.9  c3.7,3.4,6.6,7.5,8.7,12.2s3.1,9.9,3.1,15.5c0,3.9-1,6.8-3.1,8.8c-2.1,1.9-5,3.2-8.8,3.8L238.2,95.7z M255.5,58  c-5.2,0-9.6,1.6-13.1,4.8s-5.5,7.9-6.1,14l34.9-5.7c-0.2-3.2-1.6-6.1-4.2-8.9C264.5,59.4,260.7,58,255.5,58z"
   id="path10" />
<path
   class="st0"
   d="M366.5,62.4c-2.6-2.1-6-3.1-10.2-3.1c-2.9,0-5.6,0.4-8,1.1c-2.4,0.7-4.7,1.6-6.8,2.7v64.6  c-1.2,0.4-2.9,0.7-5.1,1s-4.6,0.5-7.3,0.5c-5.5,0-9.4-0.9-11.9-2.6c-2.4-1.8-3.7-5.2-3.7-10.3V59.9c0-3.2,0.7-5.7,2-7.7  c1.3-1.9,3.2-3.8,5.7-5.5c3.9-2.8,8.9-5,15.1-6.8c6.1-1.7,12.9-2.6,20.4-2.6c13.3,0,23.5,2.9,30.8,8.8c7.2,5.8,10.9,14.2,10.9,25  v56.6c-1.3,0.4-3.1,0.7-5.3,1c-2.2,0.3-4.6,0.5-7.3,0.5c-5.5,0-9.4-0.9-11.8-2.6s-3.6-5.2-3.6-10.3V71.9  C370.4,67.7,369.1,64.5,366.5,62.4z"
   id="path12" />
<path
   class="st0"
   d="M460.9,37.4c2.8,0,5.4,0.2,7.9,0.6c2.5,0.4,4.8,1,6.8,1.7V9.1c1.3-0.4,3.1-0.7,5.3-1.1c2.2-0.4,4.6-0.5,7.3-0.5  c5.5,0,9.4,0.9,11.8,2.7c2.4,1.8,3.6,5.3,3.6,10.4v88.9c0,2.9-0.6,5.4-1.8,7.4c-1.2,2-3.2,3.9-5.8,5.6c-3.4,2.1-7.8,4-13.1,5.7  c-5.4,1.7-11.5,2.6-18.4,2.6c-15.3,0-27.4-3.9-36.2-11.6c-8.8-7.7-13.2-19.3-13.2-34.8c0-8,1.2-15,3.6-20.8s5.6-10.7,9.8-14.6  c4.1-3.9,9-6.8,14.6-8.7C448.4,38.4,454.5,37.4,460.9,37.4z M475.9,62.1c-1.6-0.7-3.3-1.4-5.2-1.9c-1.9-0.5-3.9-0.8-5.9-0.8  c-6.6,0-11.8,2-15.7,6c-3.9,4-5.8,10.4-5.8,19.2c0,8.4,1.9,14.5,5.6,18.3s8.9,5.8,15.4,5.8c2.6,0,4.8-0.3,6.8-0.8s3.6-1.2,4.8-1.9  L475.9,62.1L475.9,62.1z"
   id="path14" />
<path
   class="st0"
   d="M596.6,102.2c0,9-3.3,16-10,21.1c-6.7,5-16.6,7.6-29.6,7.6c-5.1,0-9.8-0.4-14-1.1c-4.2-0.7-7.8-1.8-10.9-3.3  c-3-1.5-5.4-3.3-7.1-5.5c-1.7-2.2-2.6-4.7-2.6-7.7c0-2.7,0.5-5,1.6-6.8c1.1-1.9,2.5-3.4,4.2-4.7c3.5,2.1,7.5,3.9,12,5.5  s9.7,2.4,15.7,2.4c8.6,0,13-2.4,13-7.3c0-2.1-0.8-3.7-2.3-4.7c-1.5-1.1-4.1-2.1-7.8-2.9l-7.3-1.6c-10-2.1-17.4-5.3-22.3-9.6  c-4.9-4.3-7.3-10.4-7.3-18.2c0-8.6,3.5-15.5,10.5-20.5s16.4-7.6,28.2-7.6c4.4,0,8.5,0.3,12.4,1s7.2,1.7,10,3s5,3,6.7,5  c1.6,2,2.5,4.4,2.5,7c0,2.4-0.5,4.6-1.5,6.5s-2.3,3.4-3.8,4.7c-1-0.6-2.4-1.3-4.3-2c-1.9-0.7-3.9-1.4-6.1-2  c-2.2-0.6-4.5-1.1-6.9-1.5s-4.7-0.5-6.8-0.5c-4.3,0-7.6,0.6-10,1.7c-2.4,1.2-3.6,2.9-3.6,5.2c0,1.7,0.7,3,2,4s3.8,1.9,7.3,2.7  l6.9,1.6c11.1,2.4,19,6,23.7,10.6C594.2,89,596.6,94.9,596.6,102.2z"
   id="path16" />
<path
   class="st0"
   d="M704.4,67c0,4.8-0.7,9.1-2.1,13c-1.4,3.9-3.4,7.1-6,9.8c-2.6,2.7-5.7,4.8-9.4,6.2c-3.7,1.5-7.8,2.2-12.4,2.2  s-8.7-0.7-12.4-2.2s-6.8-3.5-9.4-6.2c-2.6-2.7-4.6-6-6-9.8c-1.4-3.9-2.1-8.2-2.1-13s0.7-9.1,2.1-13c1.4-3.9,3.4-7.1,6-9.8  s5.8-4.8,9.5-6.2c3.7-1.5,7.8-2.2,12.2-2.2c4.5,0,8.5,0.7,12.2,2.2s6.8,3.6,9.5,6.3c2.6,2.7,4.6,6,6,9.8  C703.7,57.9,704.4,62.2,704.4,67z M674.5,46.3c-5,0-9,1.8-12,5.4c-2.9,3.6-4.4,8.7-4.4,15.2c0,6.6,1.4,11.6,4.3,15.2  c2.9,3.6,6.9,5.4,12.1,5.4c5.2,0,9.2-1.8,12.1-5.4c2.9-3.6,4.3-8.6,4.3-15.2c0-6.5-1.4-11.5-4.3-15.2  C683.7,48.1,679.6,46.3,674.5,46.3z"
   id="path18" />
<path
   class="st0"
   d="M731.6,41.1h23.8c0.3,0.5,0.7,1.2,0.9,2.1c0.3,0.9,0.4,1.9,0.4,3.1c0,3.5-1.6,5.3-4.8,5.3h-20v44.6  c-0.6,0.3-1.4,0.5-2.5,0.7s-2.2,0.3-3.5,0.3c-2.4,0-4.2-0.5-5.4-1.4s-1.8-2.5-1.8-4.7V33.7c0-3.9,0.6-7.2,1.7-10  c1.1-2.8,2.8-5,4.9-6.8c2.1-1.8,4.6-3.1,7.6-3.9s6.3-1.3,9.9-1.3c5.2,0,9.2,0.7,12,2c2.8,1.3,4.2,3.2,4.2,5.7c0,1.2-0.2,2.2-0.7,3.1  s-1,1.7-1.7,2.3c-1.6-0.7-3.4-1.3-5.5-1.8s-4.2-0.8-6.4-0.8c-4.7,0-8.1,0.9-10.1,2.8c-2,1.8-3,4.9-3,9.1L731.6,41.1L731.6,41.1z"
   id="path20" />
<path
   class="st0"
   d="M839.3,92.6v35.2c-1.3,0.4-3.2,0.7-5.7,1c-2.4,0.3-5,0.5-7.7,0.5c-5.7,0-9.7-1-12-2.9s-3.4-5.5-3.4-10.6V27.2  c0-2.4,0.6-4.3,1.9-5.7c1.3-1.3,3.1-2.4,5.6-3.1c1.9-0.7,4.2-1.3,6.7-1.8s5-0.9,7.7-1.3c2.6-0.4,5.2-0.6,7.9-0.7  c2.6-0.1,5.1-0.2,7.4-0.2c16.6,0,29.1,3.5,37.6,10.5s12.8,16.6,12.8,28.8c0,5.8-1.1,11.2-3.2,16c-2.1,4.8-5.2,8.9-9.2,12.3  s-8.9,6-14.7,7.9c-5.8,1.8-12.3,2.7-19.6,2.7H839.3z M849.5,70.1c6,0,10.7-1.4,14.2-4.1c3.5-2.7,5.3-6.8,5.3-12.3  c0-10.8-6.5-16.2-19.4-16.2c-2.2,0-4.1,0.1-5.8,0.2c-1.6,0.1-3.3,0.3-4.8,0.5v31.9H849.5z"
   id="path22" />
<path
   class="st0"
   d="M937.9,127.8c-1.2,0.4-2.9,0.7-5.1,1c-2.2,0.3-4.6,0.5-7.3,0.5c-5.5,0-9.4-0.9-11.9-2.6  c-2.4-1.8-3.7-5.2-3.7-10.3V60.6c0-3.4,0.8-6.3,2.6-8.8c1.7-2.4,4.1-4.6,7.1-6.4c4-2.4,8.9-4.4,14.5-5.8c5.7-1.4,11.6-2.1,17.8-2.1  c12.7,0,19,4.3,19,12.8c0,2.1-0.3,4-0.9,5.7c-0.6,1.7-1.3,3.2-2,4.4c-2.8-0.6-6.2-0.9-10.2-0.9c-3.5,0-7.1,0.4-10.6,1.3  c-3.5,0.9-6.6,2-9.3,3.5L937.9,127.8L937.9,127.8z"
   id="path24" />
<path
   class="st0"
   d="M1004.5,95.7c1.7,5.1,4.7,8.7,8.9,10.9c4.3,2.1,9.2,3.2,14.8,3.2c5.1,0,9.9-0.7,14.4-2.1s8.2-2.9,11-4.7  c1.8,1.2,3.3,2.8,4.6,4.7c1.2,1.9,1.8,4.1,1.8,6.4c0,2.8-0.9,5.2-2.6,7.3c-1.7,2.1-4,3.8-7,5.2c-3,1.4-6.5,2.4-10.6,3.1  s-8.6,1-13.4,1c-7.2,0-13.8-1-19.9-3c-6.1-2-11.3-5-15.7-8.9c-4.4-4-7.8-8.9-10.3-14.9s-3.7-13-3.7-21c0-7.8,1.2-14.5,3.7-20.3  c2.5-5.7,5.8-10.5,10-14.2c4.2-3.8,9-6.5,14.4-8.3s11-2.6,16.7-2.6c6.2,0,11.9,0.9,17.1,2.8c5.2,1.9,9.6,4.5,13.3,7.9  c3.7,3.4,6.6,7.5,8.7,12.2s3.1,9.9,3.1,15.5c0,3.9-1,6.8-3.1,8.8c-2.1,1.9-5,3.2-8.8,3.8L1004.5,95.7z M1021.9,58  c-5.2,0-9.6,1.6-13.1,4.8s-5.5,7.9-6.1,14l34.9-5.7c-0.2-3.2-1.6-6.1-4.2-8.9C1030.8,59.4,1027,58,1021.9,58z"
   id="path26" />
<path
   class="st0"
   d="M1152,102.2c0,9-3.3,16-10,21.1c-6.7,5-16.6,7.6-29.6,7.6c-5.1,0-9.8-0.4-14-1.1c-4.2-0.7-7.8-1.8-10.9-3.3  c-3-1.5-5.4-3.3-7.1-5.5s-2.6-4.7-2.6-7.7c0-2.7,0.5-5,1.6-6.8c1.1-1.9,2.5-3.4,4.2-4.7c3.5,2.1,7.5,3.9,12,5.5s9.7,2.4,15.7,2.4  c8.6,0,13-2.4,13-7.3c0-2.1-0.8-3.7-2.3-4.7c-1.5-1.1-4.1-2.1-7.8-2.9l-7.3-1.6c-10-2.1-17.4-5.3-22.3-9.6  c-4.9-4.3-7.3-10.4-7.3-18.2c0-8.6,3.5-15.5,10.5-20.5s16.4-7.6,28.2-7.6c4.4,0,8.5,0.3,12.4,1s7.2,1.7,10,3s5,3,6.7,5  c1.6,2,2.5,4.4,2.5,7c0,2.4-0.5,4.6-1.5,6.5s-2.3,3.4-3.8,4.7c-1-0.6-2.4-1.3-4.3-2s-3.9-1.4-6.1-2s-4.5-1.1-6.9-1.5  s-4.7-0.5-6.8-0.5c-4.3,0-7.6,0.6-10,1.7c-2.4,1.2-3.6,2.9-3.6,5.2c0,1.7,0.7,3,2,4s3.8,1.9,7.3,2.7l6.9,1.6  c11.1,2.4,19,6,23.7,10.6C1149.7,89,1152,94.9,1152,102.2z"
   id="path28" />
<path
   class="st0"
   d="M1199.5,106.3c2.2,1.5,5.2,2.3,9.1,2.3c1.8,0,3.8-0.2,5.8-0.6c2.1-0.4,3.8-0.9,5.3-1.6c1.1,1.2,2,2.6,2.7,4.2  s1.1,3.4,1.1,5.5c0,4.3-1.7,7.8-5,10.5s-9.2,4.1-17.4,4.1c-10.2,0-18.2-2.3-23.9-7c-5.7-4.7-8.6-12.3-8.6-22.9v-82  c1.3-0.4,3.1-0.8,5.3-1.2c2.2-0.4,4.6-0.6,7.1-0.6c5.4,0,9.2,0.9,11.6,2.8s3.6,5.3,3.6,10.3V42h25.2c0.6,1.2,1.2,2.8,1.8,4.7  c0.6,1.9,0.9,3.9,0.9,5.9c0,3.9-0.9,6.7-2.6,8.4c-1.8,1.7-4,2.6-6.8,2.6h-18.4V99C1196.2,102.3,1197.3,104.8,1199.5,106.3z"
   id="path30" />
<path
   class="st0"
   d="M1275.4,37.4c6.3,0,12.1,0.6,17.3,1.9c5.2,1.3,9.6,3.3,13.2,5.9c3.7,2.7,6.5,6.1,8.5,10.2s3,9,3,14.6v41.3  c0,3.2-0.8,5.7-2.5,7.6c-1.6,1.9-3.6,3.5-5.9,4.8c-3.8,2.3-8.4,4.1-13.9,5.3s-11.7,1.8-18.6,1.8c-12.5,0-22.5-2.4-29.9-7.2  s-11.1-12.1-11.1-22c0-8.4,2.5-14.8,7.5-19.2c5-4.4,12.7-7.1,23-8.2l24.3-2.6v-2c0-3.9-1.6-6.8-4.7-8.6c-3.2-1.8-7.7-2.7-13.7-2.7  c-4.6,0-9.2,0.5-13.6,1.6s-8.4,2.4-12,3.8c-1.5-1-2.7-2.5-3.7-4.5s-1.6-4.2-1.6-6.5c0-5.4,2.8-9.2,8.4-11.5c3.5-1.3,7.6-2.3,12.3-3  C1266.3,37.8,1270.9,37.4,1275.4,37.4z M1276.5,110.3c2.7,0,5.3-0.3,7.9-0.8s4.6-1.2,5.9-2.1V90.5l-15,1.3c-3.9,0.4-7,1.2-9.4,2.6  s-3.6,3.5-3.6,6.3c0,2.9,1.1,5.2,3.3,6.9C1268,109.4,1271.5,110.3,1276.5,110.3z"
   id="path32" />
<path
   class="st1"
   d="M701.3,152.8c-21.1,0-42.2-6.9-56.1-20.6c-1.2-1.2-1.2-3.1,0-4.3s3.1-1.2,4.3,0c25.2,24.8,78.4,24.8,103.6,0  c1.2-1.2,3.1-1.2,4.3,0s1.2,3.1,0,4.3C743.5,145.9,722.4,152.8,701.3,152.8z"
   id="path34" />














</svg>