<?xml version="1.0" encoding="utf-8"?>
<!-- Generator: Adobe Illustrator 21.0.0, SVG Export Plug-In . SVG Version: 6.00 Build 0)  -->
<svg version="1.1" id="Calque_1" xmlns="http://www.w3.org/2000/svg" xmlns:xlink="http://www.w3.org/1999/xlink" x="0px" y="0px"
	 viewBox="0 0 1546.6 152.8" style="enable-background:new 0 0 1546.6 152.8;" xml:space="preserve">
<style type="text/css">
	.st0{fill:#072249;}
	.st1{fill:#FF5E17;}
	.st2{fill:#FF4E00;}
	.st3{fill:#E6E8EC;}
	.st4{fill:#212121;}
	.st5{fill:#FFD701;}
	.st6{fill:#141313;}
	.st7{fill:#EFEAEA;}
</style>
<path class="st0" d="M76.1,17.3c0.7,1.2,1.4,2.8,2,4.7c0.6,1.9,0.9,4.1,0.9,6.4c0,4-0.9,7-2.6,8.9c-1.8,1.9-4.2,2.9-7.4,2.9H28.4
	v23.9h41.4c0.7,1.3,1.4,2.9,2.1,4.7c0.7,1.8,1,4,1,6.4c0,4-0.9,7-2.7,8.9c-1.8,1.9-4.3,2.8-7.3,2.8H28.8v40.7
	c-1.3,0.4-3.2,0.7-5.7,1c-2.4,0.3-5,0.5-7.7,0.5c-5.7,0-9.7-1-12-2.9S0,120.7,0,115.6V32.5c0-4.6,1.4-8.3,4.1-11s6.4-4.1,11-4.1h61
	V17.3z"/>
<path class="st0" d="M118.4,127.8c-1.2,0.4-2.9,0.7-5.1,1s-4.6,0.5-7.3,0.5c-5.5,0-9.4-0.9-11.9-2.6c-2.4-1.8-3.7-5.2-3.7-10.3V60.6
	c0-3.4,0.8-6.3,2.6-8.8c1.7-2.4,4.1-4.6,7.1-6.4c4-2.4,8.9-4.4,14.5-5.8c5.7-1.4,11.6-2.1,17.8-2.1c12.7,0,19,4.3,19,12.8
	c0,2.1-0.3,4-0.9,5.7c-0.6,1.7-1.3,3.2-2,4.4c-2.8-0.6-6.2-0.9-10.2-0.9c-3.5,0-7.1,0.4-10.6,1.3c-3.5,0.9-6.6,2-9.3,3.5V127.8z"/>
<path class="st0" d="M163.7,15c0-4.1,1.4-7.7,4.3-10.6c2.9-2.9,6.6-4.4,11.2-4.4c4.6,0,8.4,1.5,11.2,4.4c2.9,2.9,4.3,6.5,4.3,10.6
	c0,4.3-1.4,7.9-4.3,10.8c-2.9,2.9-6.6,4.4-11.2,4.4c-4.6,0-8.4-1.5-11.2-4.4C165.1,22.8,163.7,19.2,163.7,15z M193.1,127.8
	c-1.2,0.4-2.9,0.7-5.1,1c-2.2,0.3-4.6,0.5-7.3,0.5c-5.5,0-9.4-0.9-11.8-2.6c-2.4-1.8-3.6-5.2-3.6-10.3v-75c1.2-0.4,2.9-0.7,5.1-1.1
	c2.2-0.4,4.6-0.5,7.3-0.5c5.5,0,9.4,0.9,11.8,2.7s3.6,5.3,3.6,10.4V127.8z"/>
<path class="st0" d="M238.2,95.7c1.7,5.1,4.7,8.7,8.9,10.9c4.3,2.1,9.2,3.2,14.8,3.2c5.1,0,9.9-0.7,14.4-2.1s8.2-2.9,11-4.7
	c1.8,1.2,3.3,2.8,4.6,4.7c1.2,1.9,1.8,4.1,1.8,6.4c0,2.8-0.9,5.2-2.6,7.3c-1.7,2.1-4,3.8-7,5.2c-3,1.4-6.5,2.4-10.6,3.1
	s-8.6,1-13.4,1c-7.2,0-13.8-1-19.9-3c-6.1-2-11.3-5-15.7-8.9c-4.4-4-7.8-8.9-10.3-14.9s-3.7-13-3.7-21c0-7.8,1.2-14.5,3.7-20.3
	c2.5-5.7,5.8-10.5,10-14.2c4.2-3.8,9-6.5,14.4-8.3s11-2.6,16.7-2.6c6.2,0,11.9,0.9,17.1,2.8c5.2,1.9,9.6,4.5,13.3,7.9
	c3.7,3.4,6.6,7.5,8.7,12.2s3.1,9.9,3.1,15.5c0,3.9-1,6.8-3.1,8.8c-2.1,1.9-5,3.2-8.8,3.8L238.2,95.7z M255.5,58
	c-5.2,0-9.6,1.6-13.1,4.8s-5.5,7.9-6.1,14l34.9-5.7c-0.2-3.2-1.6-6.1-4.2-8.9C264.5,59.4,260.7,58,255.5,58z"/>
<path class="st0" d="M366.5,62.4c-2.6-2.1-6-3.1-10.2-3.1c-2.9,0-5.6,0.4-8,1.1c-2.4,0.7-4.7,1.6-6.8,2.7v64.6
	c-1.2,0.4-2.9,0.7-5.1,1s-4.6,0.5-7.3,0.5c-5.5,0-9.4-0.9-11.9-2.6c-2.4-1.8-3.7-5.2-3.7-10.3V59.9c0-3.2,0.7-5.7,2-7.7
	c1.3-1.9,3.2-3.8,5.7-5.5c3.9-2.8,8.9-5,15.1-6.8c6.1-1.7,12.9-2.6,20.4-2.6c13.3,0,23.5,2.9,30.8,8.8c7.2,5.8,10.9,14.2,10.9,25
	v56.6c-1.3,0.4-3.1,0.7-5.3,1c-2.2,0.3-4.6,0.5-7.3,0.5c-5.5,0-9.4-0.9-11.8-2.6s-3.6-5.2-3.6-10.3V71.9
	C370.4,67.7,369.1,64.5,366.5,62.4z"/>
<path class="st0" d="M460.9,37.4c2.8,0,5.4,0.2,7.9,0.6c2.5,0.4,4.8,1,6.8,1.7V9.1c1.3-0.4,3.1-0.7,5.3-1.1c2.2-0.4,4.6-0.5,7.3-0.5
	c5.5,0,9.4,0.9,11.8,2.7c2.4,1.8,3.6,5.3,3.6,10.4v88.9c0,2.9-0.6,5.4-1.8,7.4c-1.2,2-3.2,3.9-5.8,5.6c-3.4,2.1-7.8,4-13.1,5.7
	c-5.4,1.7-11.5,2.6-18.4,2.6c-15.3,0-27.4-3.9-36.2-11.6c-8.8-7.7-13.2-19.3-13.2-34.8c0-8,1.2-15,3.6-20.8s5.6-10.7,9.8-14.6
	c4.1-3.9,9-6.8,14.6-8.7C448.4,38.4,454.5,37.4,460.9,37.4z M475.9,62.1c-1.6-0.7-3.3-1.4-5.2-1.9c-1.9-0.5-3.9-0.8-5.9-0.8
	c-6.6,0-11.8,2-15.7,6c-3.9,4-5.8,10.4-5.8,19.2c0,8.4,1.9,14.5,5.6,18.3s8.9,5.8,15.4,5.8c2.6,0,4.8-0.3,6.8-0.8s3.6-1.2,4.8-1.9
	L475.9,62.1L475.9,62.1z"/>
<path class="st0" d="M596.6,102.2c0,9-3.3,16-10,21.1c-6.7,5-16.6,7.6-29.6,7.6c-5.1,0-9.8-0.4-14-1.1c-4.2-0.7-7.8-1.8-10.9-3.3
	c-3-1.5-5.4-3.3-7.1-5.5c-1.7-2.2-2.6-4.7-2.6-7.7c0-2.7,0.5-5,1.6-6.8c1.1-1.9,2.5-3.4,4.2-4.7c3.5,2.1,7.5,3.9,12,5.5
	s9.7,2.4,15.7,2.4c8.6,0,13-2.4,13-7.3c0-2.1-0.8-3.7-2.3-4.7c-1.5-1.1-4.1-2.1-7.8-2.9l-7.3-1.6c-10-2.1-17.4-5.3-22.3-9.6
	c-4.9-4.3-7.3-10.4-7.3-18.2c0-8.6,3.5-15.5,10.5-20.5s16.4-7.6,28.2-7.6c4.4,0,8.5,0.3,12.4,1s7.2,1.7,10,3s5,3,6.7,5
	c1.6,2,2.5,4.4,2.5,7c0,2.4-0.5,4.6-1.5,6.5s-2.3,3.4-3.8,4.7c-1-0.6-2.4-1.3-4.3-2c-1.9-0.7-3.9-1.4-6.1-2
	c-2.2-0.6-4.5-1.1-6.9-1.5s-4.7-0.5-6.8-0.5c-4.3,0-7.6,0.6-10,1.7c-2.4,1.2-3.6,2.9-3.6,5.2c0,1.7,0.7,3,2,4s3.8,1.9,7.3,2.7
	l6.9,1.6c11.1,2.4,19,6,23.7,10.6C594.2,89,596.6,94.9,596.6,102.2z"/>
<path class="st0" d="M704.4,67c0,4.8-0.7,9.1-2.1,13c-1.4,3.9-3.4,7.1-6,9.8c-2.6,2.7-5.7,4.8-9.4,6.2c-3.7,1.5-7.8,2.2-12.4,2.2
	s-8.7-0.7-12.4-2.2s-6.8-3.5-9.4-6.2c-2.6-2.7-4.6-6-6-9.8c-1.4-3.9-2.1-8.2-2.1-13s0.7-9.1,2.1-13c1.4-3.9,3.4-7.1,6-9.8
	s5.8-4.8,9.5-6.2c3.7-1.5,7.8-2.2,12.2-2.2c4.5,0,8.5,0.7,12.2,2.2s6.8,3.6,9.5,6.3c2.6,2.7,4.6,6,6,9.8
	C703.7,57.9,704.4,62.2,704.4,67z M674.5,46.3c-5,0-9,1.8-12,5.4c-2.9,3.6-4.4,8.7-4.4,15.2c0,6.6,1.4,11.6,4.3,15.2
	c2.9,3.6,6.9,5.4,12.1,5.4c5.2,0,9.2-1.8,12.1-5.4c2.9-3.6,4.3-8.6,4.3-15.2c0-6.5-1.4-11.5-4.3-15.2
	C683.7,48.1,679.6,46.3,674.5,46.3z"/>
<path class="st0" d="M731.6,41.1h23.8c0.3,0.5,0.7,1.2,0.9,2.1c0.3,0.9,0.4,1.9,0.4,3.1c0,3.5-1.6,5.3-4.8,5.3h-20v44.6
	c-0.6,0.3-1.4,0.5-2.5,0.7s-2.2,0.3-3.5,0.3c-2.4,0-4.2-0.5-5.4-1.4s-1.8-2.5-1.8-4.7V33.7c0-3.9,0.6-7.2,1.7-10
	c1.1-2.8,2.8-5,4.9-6.8c2.1-1.8,4.6-3.1,7.6-3.9s6.3-1.3,9.9-1.3c5.2,0,9.2,0.7,12,2c2.8,1.3,4.2,3.2,4.2,5.7c0,1.2-0.2,2.2-0.7,3.1
	s-1,1.7-1.7,2.3c-1.6-0.7-3.4-1.3-5.5-1.8s-4.2-0.8-6.4-0.8c-4.7,0-8.1,0.9-10.1,2.8c-2,1.8-3,4.9-3,9.1L731.6,41.1L731.6,41.1z"/>
<path class="st0" d="M839.3,92.6v35.2c-1.3,0.4-3.2,0.7-5.7,1c-2.4,0.3-5,0.5-7.7,0.5c-5.7,0-9.7-1-12-2.9s-3.4-5.5-3.4-10.6V27.2
	c0-2.4,0.6-4.3,1.9-5.7c1.3-1.3,3.1-2.4,5.6-3.1c1.9-0.7,4.2-1.3,6.7-1.8s5-0.9,7.7-1.3c2.6-0.4,5.2-0.6,7.9-0.7
	c2.6-0.1,5.1-0.2,7.4-0.2c16.6,0,29.1,3.5,37.6,10.5s12.8,16.6,12.8,28.8c0,5.8-1.1,11.2-3.2,16c-2.1,4.8-5.2,8.9-9.2,12.3
	s-8.9,6-14.7,7.9c-5.8,1.8-12.3,2.7-19.6,2.7H839.3z M849.5,70.1c6,0,10.7-1.4,14.2-4.1c3.5-2.7,5.3-6.8,5.3-12.3
	c0-10.8-6.5-16.2-19.4-16.2c-2.2,0-4.1,0.1-5.8,0.2c-1.6,0.1-3.3,0.3-4.8,0.5v31.9H849.5z"/>
<path class="st0" d="M937.9,127.8c-1.2,0.4-2.9,0.7-5.1,1c-2.2,0.3-4.6,0.5-7.3,0.5c-5.5,0-9.4-0.9-11.9-2.6
	c-2.4-1.8-3.7-5.2-3.7-10.3V60.6c0-3.4,0.8-6.3,2.6-8.8c1.7-2.4,4.1-4.6,7.1-6.4c4-2.4,8.9-4.4,14.5-5.8c5.7-1.4,11.6-2.1,17.8-2.1
	c12.7,0,19,4.3,19,12.8c0,2.1-0.3,4-0.9,5.7c-0.6,1.7-1.3,3.2-2,4.4c-2.8-0.6-6.2-0.9-10.2-0.9c-3.5,0-7.1,0.4-10.6,1.3
	c-3.5,0.9-6.6,2-9.3,3.5L937.9,127.8L937.9,127.8z"/>
<path class="st0" d="M1004.5,95.7c1.7,5.1,4.7,8.7,8.9,10.9c4.3,2.1,9.2,3.2,14.8,3.2c5.1,0,9.9-0.7,14.4-2.1s8.2-2.9,11-4.7
	c1.8,1.2,3.3,2.8,4.6,4.7c1.2,1.9,1.8,4.1,1.8,6.4c0,2.8-0.9,5.2-2.6,7.3c-1.7,2.1-4,3.8-7,5.2c-3,1.4-6.5,2.4-10.6,3.1
	s-8.6,1-13.4,1c-7.2,0-13.8-1-19.9-3c-6.1-2-11.3-5-15.7-8.9c-4.4-4-7.8-8.9-10.3-14.9s-3.7-13-3.7-21c0-7.8,1.2-14.5,3.7-20.3
	c2.5-5.7,5.8-10.5,10-14.2c4.2-3.8,9-6.5,14.4-8.3s11-2.6,16.7-2.6c6.2,0,11.9,0.9,17.1,2.8c5.2,1.9,9.6,4.5,13.3,7.9
	c3.7,3.4,6.6,7.5,8.7,12.2s3.1,9.9,3.1,15.5c0,3.9-1,6.8-3.1,8.8c-2.1,1.9-5,3.2-8.8,3.8L1004.5,95.7z M1021.9,58
	c-5.2,0-9.6,1.6-13.1,4.8s-5.5,7.9-6.1,14l34.9-5.7c-0.2-3.2-1.6-6.1-4.2-8.9C1030.8,59.4,1027,58,1021.9,58z"/>
<path class="st0" d="M1152,102.2c0,9-3.3,16-10,21.1c-6.7,5-16.6,7.6-29.6,7.6c-5.1,0-9.8-0.4-14-1.1c-4.2-0.7-7.8-1.8-10.9-3.3
	c-3-1.5-5.4-3.3-7.1-5.5s-2.6-4.7-2.6-7.7c0-2.7,0.5-5,1.6-6.8c1.1-1.9,2.5-3.4,4.2-4.7c3.5,2.1,7.5,3.9,12,5.5s9.7,2.4,15.7,2.4
	c8.6,0,13-2.4,13-7.3c0-2.1-0.8-3.7-2.3-4.7c-1.5-1.1-4.1-2.1-7.8-2.9l-7.3-1.6c-10-2.1-17.4-5.3-22.3-9.6
	c-4.9-4.3-7.3-10.4-7.3-18.2c0-8.6,3.5-15.5,10.5-20.5s16.4-7.6,28.2-7.6c4.4,0,8.5,0.3,12.4,1s7.2,1.7,10,3s5,3,6.7,5
	c1.6,2,2.5,4.4,2.5,7c0,2.4-0.5,4.6-1.5,6.5s-2.3,3.4-3.8,4.7c-1-0.6-2.4-1.3-4.3-2s-3.9-1.4-6.1-2s-4.5-1.1-6.9-1.5
	s-4.7-0.5-6.8-0.5c-4.3,0-7.6,0.6-10,1.7c-2.4,1.2-3.6,2.9-3.6,5.2c0,1.7,0.7,3,2,4s3.8,1.9,7.3,2.7l6.9,1.6
	c11.1,2.4,19,6,23.7,10.6C1149.7,89,1152,94.9,1152,102.2z"/>
<path class="st0" d="M1199.5,106.3c2.2,1.5,5.2,2.3,9.1,2.3c1.8,0,3.8-0.2,5.8-0.6c2.1-0.4,3.8-0.9,5.3-1.6c1.1,1.2,2,2.6,2.7,4.2
	s1.1,3.4,1.1,5.5c0,4.3-1.7,7.8-5,10.5s-9.2,4.1-17.4,4.1c-10.2,0-18.2-2.3-23.9-7c-5.7-4.7-8.6-12.3-8.6-22.9v-82
	c1.3-0.4,3.1-0.8,5.3-1.2c2.2-0.4,4.6-0.6,7.1-0.6c5.4,0,9.2,0.9,11.6,2.8s3.6,5.3,3.6,10.3V42h25.2c0.6,1.2,1.2,2.8,1.8,4.7
	c0.6,1.9,0.9,3.9,0.9,5.9c0,3.9-0.9,6.7-2.6,8.4c-1.8,1.7-4,2.6-6.8,2.6h-18.4V99C1196.2,102.3,1197.3,104.8,1199.5,106.3z"/>
<path class="st0" d="M1275.4,37.4c6.3,0,12.1,0.6,17.3,1.9c5.2,1.3,9.6,3.3,13.2,5.9c3.7,2.7,6.5,6.1,8.5,10.2s3,9,3,14.6v41.3
	c0,3.2-0.8,5.7-2.5,7.6c-1.6,1.9-3.6,3.5-5.9,4.8c-3.8,2.3-8.4,4.1-13.9,5.3s-11.7,1.8-18.6,1.8c-12.5,0-22.5-2.4-29.9-7.2
	s-11.1-12.1-11.1-22c0-8.4,2.5-14.8,7.5-19.2c5-4.4,12.7-7.1,23-8.2l24.3-2.6v-2c0-3.9-1.6-6.8-4.7-8.6c-3.2-1.8-7.7-2.7-13.7-2.7
	c-4.6,0-9.2,0.5-13.6,1.6s-8.4,2.4-12,3.8c-1.5-1-2.7-2.5-3.7-4.5s-1.6-4.2-1.6-6.5c0-5.4,2.8-9.2,8.4-11.5c3.5-1.3,7.6-2.3,12.3-3
	C1266.3,37.8,1270.9,37.4,1275.4,37.4z M1276.5,110.3c2.7,0,5.3-0.3,7.9-0.8s4.6-1.2,5.9-2.1V90.5l-15,1.3c-3.9,0.4-7,1.2-9.4,2.6
	s-3.6,3.5-3.6,6.3c0,2.9,1.1,5.2,3.3,6.9C1268,109.4,1271.5,110.3,1276.5,110.3z"/>
<path class="st1" d="M701.3,152.8c-21.1,0-42.2-6.9-56.1-20.6c-1.2-1.2-1.2-3.1,0-4.3s3.1-1.2,4.3,0c25.2,24.8,78.4,24.8,103.6,0
	c1.2-1.2,3.1-1.2,4.3,0s1.2,3.1,0,4.3C743.5,145.9,722.4,152.8,701.3,152.8z"/>
<path class="st2" d="M1474.1,37.3c-0.5-3.2-3.6-5.4-6.9-4.9c-2.8,0.5-4.8,2.8-5,5.6c0,0.1,0,0.2,0,0.3c0,0.3,0,0.7,0.1,1
	c0.2,1.4,0.9,2.6,2,3.5l0,0c1.3,1.1,3,1.7,4.9,1.4C1472.4,43.6,1474.6,40.5,1474.1,37.3z M1464.2,38.9c-0.4-2.2,1.1-4.3,3.3-4.7
	c2.2-0.4,4.3,1.1,4.7,3.3c0.4,2.2-1.1,4.3-3.3,4.7C1466.7,42.7,1464.6,41.1,1464.2,38.9z"/>
<path class="st0" d="M1511,116.3c-6.8,10.4-15.9,19.1-26.6,25.4c-11.9,7-25.9,11.1-40.7,11.1c-7.2,0-14.2-0.9-20.8-2.7
	c-21.3-5.7-39.2-20-49.6-38.9c10.9,4.8,19.6,7.3,23.3,4.4s4.2-10.6-7.1-26.8c-10.8-15.5-24-36.6,1.6-65.7
	c23.4-26.6,56.7-27.8,80.5-15.6c0,0-0.1,0-0.1,0c4.1,3,7.3,5.8,10.1,8.4c0.3,0.2,0.5,0.5,0.8,0.7c6.6,6.4,9.6,11.4,11.6,15.6
	c-14.5-17.4-44-17.4-65.6-8.5c-28.8,11.9-43.4,47-40.1,55.9c0.1,0.3,0.2,0.5,0.4,0.8c5,8,52.7,30.5,78.1,20.9
	c12.9-4.9,20.2-13.1,26.2-20.4c0,0,0-0.1,0.1-0.1c-2.6,6.7-13.3,28.6,2.7,34C1498.5,115.6,1503.8,116.4,1511,116.3z"/>
<path class="st0" d="M1471.6,7.5c0,0-0.1,0-0.1,0C1471.5,7.5,1471.5,7.5,1471.6,7.5C1471.6,7.5,1471.6,7.5,1471.6,7.5z"/>
<g>
	<path class="st3" d="M1499.7,65c-13.8,14.7-35.2,27.2-55.6,19.5c-9.8-3.7-18.3-9.2-28.9-10.4c-8.8-1.1-19.6-0.4-26.8,5.5
		c2.5,6.5,14.7,10.8,20.4,13.3c11.7,5.2,24.3,9.2,37.1,10.4C1470.3,105.5,1494,89.2,1499.7,65L1499.7,65z"/>
</g>
<path class="st4" d="M1546.5,33.9c-1.6,1.1-3.1,2.2-4.7,3.2c-3.2,1.8-6.5,3.4-10.1,4.5c-3.6,1.1-7.3,2-11,2.5
	c-3.7,0.5-7.4,0.7-11.2,0.6c-1.8-0.1-3.7-0.2-5.5-0.4c-1.2-0.1-2.4-0.4-3.7-0.5c0.2-0.3,0.5-0.6,0.8-0.9c0.2-0.2,0.3-0.4,0.5-0.5
	c0.1-0.1,0.2-0.2,0.4-0.2c0.3,0,0.7,0.1,1,0.2c0.9,0.1,1.8,0.2,2.8,0.3c2.6,0.2,5.2,0.3,7.8,0.2c7.1-0.2,14.2-1.4,21-3.7
	C1538.8,37.7,1542.7,36,1546.5,33.9z"/>
<path class="st4" d="M1514.5,44.6C1514.4,44.6,1514.4,44.6,1514.5,44.6c-1.4,0.1-2.7,0.1-4,0.1c-0.3,0-0.7,0-0.9,0
	c-0.1,0-0.2,0-0.2,0c-0.4,0-0.8,0-1.1,0c-0.4,0-0.8,0-1.2-0.1c-0.2,0-0.4,0-0.5,0h0c-0.1,0-0.2,0-0.3,0c0,0-0.1,0-0.2,0
	c-0.1,0-0.2,0-0.2,0c-0.2,0-0.5,0-0.8-0.1c-0.2,0-0.3,0-0.5,0c-0.3,0-0.5-0.1-0.8-0.1c-0.2,0-0.3,0-0.5,0c0,0,0,0-0.1,0
	c-0.1,0-0.2,0-0.2,0c-0.1,0-0.2,0-0.2,0c-0.1,0-0.2,0-0.2,0c-0.1,0-0.2,0-0.2,0c0,0,0,0-0.1,0s-0.1,0-0.1,0c-0.1,0-0.2,0-0.4,0h-0.1
	c-0.1,0-0.2,0-0.2,0c0,0,0,0-0.1,0h0c0,0-0.1,0-0.1,0s-0.1,0-0.2,0C1502.8,44.1,1508.6,44.9,1514.5,44.6z"/>
<g>
	<path class="st2" d="M1542.7,20.8c0,0-5.2,5.6-13.7,9c-1.1,0.5-2.3,0.9-3.4,1.2c-3.5,1.2-7.3,2.3-11,3.6c-0.6,0.2-1.3,0.5-1.9,0.7
		c-3.3-6-8.9-12.4-16-17.7c-7.1-5.2-15.7-9.2-25.1-10.2c0,0,0,0-0.1,0c0.7-0.2,6.9-1.8,15.6-2.6c5.4-0.5,11.7-0.7,18.3-0.2
		C1518.4,5.7,1532.6,9.8,1542.7,20.8z"/>
	<path class="st2" d="M1471.6,7.5c0,0-0.1,0-0.1,0C1471.5,7.5,1471.5,7.5,1471.6,7.5C1471.6,7.5,1471.6,7.5,1471.6,7.5z"/>
</g>
<g>
	<path class="st2" d="M1540.9,48.6c-5,5.6-10.2,11-16,15.7c-5.8,4.7-12.1,8.9-18.9,11.9c-4.1,1.9-8.5,3.4-12.9,4.4
		c2.7-4.9,5.3-10,6.6-15.5c0.1-0.4,0.6-0.7,0.9-0.9c0.5-0.4,1-0.9,1.5-1.3c1.1-0.9,2.1-1.8,3.2-2.7c2.1-1.9,4.2-3.9,6-6.3
		c2.1-2.7,3.7-6,4.1-9.4c-0.2,0-0.5,0-0.7,0c8.8-0.6,17.6-2.4,25.4-6.6c2.3-1.2,4.4-2.6,6.5-4.1c0.2,0.9,0.1,1.9,0,2.9
		c-0.2,2.4-1,4.8-2.1,7C1543.4,45.5,1542.3,47.1,1540.9,48.6z"/>
	<path class="st2" d="M1500.1,63.5c-0.1,0.5-0.2,1-0.4,1.5c0,0-0.1,0.5-0.4,1.4c-0.5,1.8-1.5,5-3.4,8.9c-0.7,1.5-1.6,3.2-2.6,4.8
		c0.9-1.8,3.9-7.6,6.3-15.1c0-0.1,0.1-0.2,0.1-0.3C1499.9,64.3,1500,63.9,1500.1,63.5z"/>
</g>
<g>
	<path class="st5" d="M1515.3,44.6c-0.8,7.1-6.4,12.5-11.5,16.9c-1.4,1.1-2.7,2.3-4.1,3.4c1.6-5.2,1.6-10.7,1.1-16
		c-0.1-1.7-0.3-3.4-0.5-5.1c0.9,0.1,1.9,0.3,2.8,0.4c1.3,0.2,2.5,0.3,3.8,0.4C1509.7,44.8,1512.5,44.8,1515.3,44.6z"/>
	<path class="st5" d="M1500.3,43.8c0.9,7.1,1.2,13.4,0,18.9C1501.5,57.5,1501,52.1,1500.3,43.8z"/>
	<path class="st5" d="M1514.5,44.6C1514.4,44.6,1514.4,44.6,1514.5,44.6c-1.4,0.1-2.7,0.1-4,0.1c-0.3,0-0.7,0-0.9,0
		c-0.1,0-0.2,0-0.2,0c-0.4,0-0.8,0-1.1,0c-0.4,0-0.8,0-1.2-0.1c-0.2,0-0.4,0-0.5,0h0c-0.1,0-0.2,0-0.3,0c0,0-0.1,0-0.2,0
		c-0.1,0-0.2,0-0.2,0c-0.2,0-0.5,0-0.8-0.1c-0.2,0-0.3,0-0.5,0c-0.1,0-0.2,0-0.3,0c0,0-0.1,0-0.1,0c-0.3,0-0.5-0.1-0.8-0.1
		c0,0,0,0-0.1,0c-0.2,0-0.3,0-0.5-0.1l0,0c-0.2,0-0.3,0-0.5,0c0,0,0,0-0.1,0c-0.1,0-0.2,0-0.3,0c-0.1,0-0.2,0-0.3,0s-0.2,0-0.2,0h0
		h0c0,0-0.1,0-0.1,0c-0.1,0-0.2,0-0.3,0c0,0,0.1,0,0.1,0C1502.8,44.1,1508.6,44.9,1514.5,44.6z"/>
</g>
<g>
	<path class="st5" d="M1504.2,40.1c0.1-0.1,0.2-0.1,0.3-0.2C1504.3,40,1504.2,40.1,1504.2,40.1c-0.2,0.2-0.3,0.3-0.5,0.4
		C1503.8,40.4,1504,40.3,1504.2,40.1z"/>
	<path class="st5" d="M1504.7,39.7c0,0,0.1-0.1,0.1-0.1C1504.7,39.7,1504.7,39.7,1504.7,39.7L1504.7,39.7z"/>
	<path class="st5" d="M1512.7,35.3c-4,1.6-7.9,3.8-11,6.9c-0.4,0.4-0.8,0.8-1.1,1.2c-0.2,0.3-0.2,0.3-0.4,0
		c-0.2-0.2-0.4-0.5-0.6-0.7c-0.6-0.8-1.2-1.6-1.7-2.4c-1-1.7-1.8-3.6-2.6-5.4c-1.3-3-2.7-5.9-4.5-8.6c-2.2-3.4-4.9-6.4-7.8-9.2
		c-3.6-3.5-7.5-6.7-11.4-9.7c6.8,0.6,13.5,3,19.4,6.4c6,3.4,11.3,7.8,15.8,13C1508.9,29.5,1511,32.3,1512.7,35.3z"/>
	<path class="st5" d="M1503.6,40.5c0.2-0.1,0.3-0.3,0.5-0.4l0,0C1504,40.3,1503.8,40.4,1503.6,40.5z"/>
	<path class="st5" d="M1512.7,35.4c-2.6,1.1-5.2,2.3-7.5,4c-0.2,0.1-0.4,0.2-0.5,0.4c0,0,0,0,0,0c0,0,0,0,0,0c0,0,0.1-0.1,0.1-0.1
		c0,0,0,0,0.1-0.1l0,0c0.1,0,0.1-0.1,0.2-0.1c0,0,0.1,0,0.1-0.1c0.1,0,0.2-0.1,0.2-0.2c0.2-0.2,0.5-0.3,0.7-0.5
		c0.1,0,0.2-0.1,0.2-0.2c0,0,0.1,0,0.1-0.1s0.1-0.1,0.2-0.1c0.1-0.1,0.3-0.2,0.4-0.2c0.2-0.1,0.5-0.3,0.7-0.4
		c0.2-0.1,0.3-0.2,0.5-0.2c0.2-0.1,0.3-0.2,0.5-0.2c0.2-0.1,0.4-0.2,0.6-0.3c0.2-0.1,0.4-0.2,0.5-0.3
		C1510.7,36.2,1511.7,35.8,1512.7,35.4C1512.7,35.4,1512.7,35.4,1512.7,35.4C1512.7,35.3,1512.7,35.4,1512.7,35.4z"/>
</g>
<path class="st4" d="M1468.9,42.3c-2.2,0.4-4.3-1.1-4.7-3.3c-0.4-2.2,1.1-4.3,3.3-4.7c2.2-0.4,4.3,1.1,4.7,3.3
	C1472.6,39.8,1471.1,41.9,1468.9,42.3z"/>
<path class="st4" d="M1474.4,49.5c-9.6,1.9-13.6,1.5-25,1.5c-17.7,0-27.5,5.9-38,11.8c10.3-7.9,19.2-12.2,28.6-13.8
	c17.7-3,25.2-1.6,24.4-6.3c1.3,1.1,3,1.7,4.9,1.4c3.2-0.5,5.4-3.6,4.9-6.9c-0.5-3.2-3.6-5.4-6.9-4.9c-2.8,0.5-4.8,2.8-5,5.6
	c0-0.1-0.1-0.2-0.2-0.3c-2.1-3.7-0.1-5.8-0.9-9.9C1474.2,25.5,1482.7,47.9,1474.4,49.5z"/>
<path class="st6" d="M1468.9,42.3c-2.2,0.4-4.3-1.1-4.7-3.3c-0.4-2.2,1.1-4.3,3.3-4.7c2.2-0.4,4.3,1.1,4.7,3.3
	C1472.6,39.8,1471.1,41.9,1468.9,42.3z"/>
<ellipse transform="matrix(0.4191 -0.9079 0.9079 0.4191 818.7414 1352.3782)" class="st7" cx="1466.3" cy="36.3" rx="1.4" ry="1.3"/>
</svg>
