<svg xmlns="http://www.w3.org/2000/svg" width="784" height="530.896" viewBox="0 0 784 530.896">
  <g id="groupe" transform="translate(0 1062.72)">
    <path id="Tracé_565" data-name="Tracé 565" d="M356.2-198.72c-61.2,0-122.477-1.259-183.716-2.755q-31.014-.757-62.011-1.556c-27.965-.7-58.13.734-85.254-9.662-30.163-11.555-35.891-47.369-2.712-65.183,13.963-7.493,29.521-8.418,43.557-15.672,2.22-1.147,4.535-2.611,5.737-5.342,2.352-5.341-1.006-12.337-5.245-14.905s-9.1-2.4-13.622-3.912c-15.967-5.332-19.279-35.41-9.214-50.493,13.2-19.773,32.977-23.066,52.6-23.066,4.9,0,9.794.205,14.571.411s9.444.411,13.889.411l.817,0c15.029-.088,30.063-.449,45.1-.922,25.691-.808,51.385-1.947,77.063-2.626q29.963-.794,59.929-1.436l-1.268,6.3,48.458,116.4h12.489L358.456-327.2l3.678,8.285a5.929,5.929,0,0,0,5.14,3.752,4.081,4.081,0,0,0,1.664-.349l25.906-11.5,5.991,50.28,12.989-.5L419.6-338l62.666-27.817c2.443-1.084,3.352-4.364,2.038-7.328l-10.63-23.946q16.486.058,32.966.225c38.047.388,76.138,1.215,114.065,5.549,20.5,2.342,117.467-.341,128,30.949a11.872,11.872,0,0,1-.53,9.474c-3.947,7.6-16.91,12.732-20.892,20.323-5.72,10.9,7.8,18.12,24.394,19.243,13.853.938,33.531,7.053,25.718,17.33-2.9,3.815-9.981,5.957-16.88,7.123s-14.223,1.679-20.587,3.617c-8.243,2.508-14.173,7.414-15.432,12.764-3.447,14.667,20.352,18.564,38.581,23.05C773.484-244.889,784.045-240,784-233.44c-.065,9.417-20.082,13.623-36.078,15.232-34.949,3.527-111.812,7.309-146.912,10.3C519.656-200.968,438-198.72,356.2-198.72Z" transform="translate(0 -333.104)" fill="#c3ecff"/>
    <path id="Tracé_566" data-name="Tracé 566" d="M125.865-138.84l-.564,6.479,12.392,7.6,7.041-5.915-5.914-7.039-12.392-7.608Z" transform="translate(-62.705 -459.1)" fill="#58585b"/>
    <path id="Tracé_567" data-name="Tracé 567" d="M168.194-532.619l38.868,2.907L213.951-447,206-339.148l-12,.86-14.634-97.941-5.531-22.929-1.208,21.829L133.5-332.424l-12.626-3.692,14.262-87.958-18.813-87.533,1.712-19.673,49.9-3.953Z" transform="translate(-58.214 -263.974)" fill="#2e4561"/>
    <path id="Tracé_568" data-name="Tracé 568" d="M272.22-138.306l13.436,5.555,6.021-6.949-6.95-6.02-12.971.93Z" transform="translate(-135.996 -458.9)" fill="#58585b"/>
    <path id="Tracé_569" data-name="Tracé 569" d="M119.791-783.171c9.314-1.223,19.727-3.406,29.141-2.21a30.371,30.371,0,0,1,9.194,2.573c5.142,1.042,10.351,4.653,15.957,7.762L195.4-763.221l46.172-20,4.2,9.066-44.81,32.073-22.661-6.646c6.75,23.855,12.63,48,24.642,69.809,4.168,7.571,12.2,21.121,16.371,28.691-12.489,11.072-31.416,10.352-47.108,15.024a156.563,156.563,0,0,1-35.276,6.136,190.112,190.112,0,0,1-40.295-2.053c-.893-.137-1.847-.265-2.842-.387-.06-.366-.118-.728-.184-1.1-2.561-14.452-2.215-30.521-.816-44.834l-.8.307L69.808-736.889l50-46.663Zm-14.045,47.335-12.261,8.418.131.052,3.5,21.2c1.567-7.8,2.863-12.628,2.863-12.628h0c1.284-3.635,2.556-7.274,3.766-10.935Q104.758-732.78,105.746-735.837Z" transform="translate(-34.935 -138.617)" fill="#ff4e21"/>
    <path id="Tracé_570" data-name="Tracé 570" d="M418.9-779.243l8.834-6.9-2.783-3.9-7.1,3.384-.46-2.457-6.841,6.823,2.345,4.449Z" transform="translate(-205.459 -136.457)" fill="#b9996f"/>
    <path id="Tracé_571" data-name="Tracé 571" d="M231.215-530.377l-75.288,38.66a14.285,14.285,0,0,1-19.233-6.183l-38.66-75.288a14.285,14.285,0,0,1,6.182-19.233l75.288-38.66a14.285,14.285,0,0,1,19.233,6.183l25.157,48.991,13.5,26.3A14.284,14.284,0,0,1,231.215-530.377Z" transform="translate(-48.27 -215.218)" fill="#f1d041"/>
    <path id="Tracé_572" data-name="Tracé 572" d="M231.955-520.944c5.152,22.041.785,31.525-14.55,37.126-14.358,5.242-26.021-2.395-35.019-19.222-7.736-14.468-.689-25.641,15.362-31.5C213.315-540.226,227.785-538.781,231.955-520.944Z" transform="translate(-89.697 -262.836)" fill="#fff"/>
    <path id="Tracé_573" data-name="Tracé 573" d="M205.646-525.093s2.1-2.442,7.217-4.057,8.328-1.83,8.742-.539-4.167,4.167-8.853,5.091S205.068-522.81,205.646-525.093Z" transform="translate(-102.877 -266.328)" fill="#fff"/>
    <path id="Tracé_574" data-name="Tracé 574" d="M220.857-557.643a10.1,10.1,0,0,0-3.183,1.034c.321-1.02.58-1.617.429-1.563-.35.127-4.11-3.711-4.555,2.385s3.041,14.72,3.041,14.72.647,1.982.923,1.919c.619-.143,2.366-.727,2.366-.727a31.077,31.077,0,0,1-3.008-10.853,14.482,14.482,0,0,1,.371-4.3,4.848,4.848,0,0,1,3.92-1.625c3.048-.245,3.844.269,4.85.921.739.651.555-.715.484-1.024S223.2-558.023,220.857-557.643Z" transform="translate(-106.847 -251.956)" fill="#fff"/>
    <path id="Tracé_575" data-name="Tracé 575" d="M226.652-556.336c-.585-.02-1.17-.016-1.757-.051-1.287-.075-2.484.191-3.756.187a4.6,4.6,0,0,0-1.374.212c.321-1.02.58-1.617.429-1.563-.09.033-.411-.2-.841-.457-1.646,2.581-1.907,6.418-1.49,9.469.387,2.825,1.729,5.437,1.48,8.281a.531.531,0,0,1-.421.5c.213.566.513,1.269.681,1.232.619-.143,2.366-.727,2.366-.727a31.076,31.076,0,0,1-3.008-10.853,14.482,14.482,0,0,1,.371-4.3,4.848,4.848,0,0,1,3.92-1.625c3.048-.245,3.844.269,4.85.921.412.364.534.1.551-.263A3.051,3.051,0,0,0,226.652-556.336Z" transform="translate(-108.938 -252.576)" fill="#fff"/>
    <path id="Tracé_576" data-name="Tracé 576" d="M232.425-561.958a14.161,14.161,0,0,0,15.043,7.366c10.684-1.746,12.053-4.751,12.053-4.751s-1.879-6.909-10.884-8.853S232.359-569.072,232.425-561.958Z" transform="translate(-116.314 -247.049)" fill="#fff"/>
    <path id="Tracé_577" data-name="Tracé 577" d="M253.188-552.933c-2.886-.29-5.767.113-8.651-.555a28.9,28.9,0,0,1-3.819-1.174,24.2,24.2,0,0,1-8.241-1.972,8.691,8.691,0,0,0-.051.892,14.161,14.161,0,0,0,15.043,7.366c8.882-1.451,11.321-3.769,11.891-4.511A22.112,22.112,0,0,1,253.188-552.933Z" transform="translate(-116.314 -253.263)" fill="#fff"/>
    <path id="Tracé_578" data-name="Tracé 578" d="M241.631-485.959c-7.1,3.527-19.108,3.953-15.091,5.624,1.189.494,1.305.835,5.2,1.479a25.121,25.121,0,0,0,8.934-1.628c15.335-5.6,19.7-15.084,14.55-37.126-1.485-6.358-4.288-10.626-7.974-13.235a116.346,116.346,0,0,1,3.034,14.816C251.111-508.5,249.785-490.007,241.631-485.959Z" transform="translate(-112.967 -266.17)" fill="#fff"/>
    <path id="Tracé_579" data-name="Tracé 579" d="M197.961-480.269s-7.407-7.4-10.082-13.663-1.6-12.647.37-14.17,1.469.357,3.323.038,6.251-.046,7.11-.808,1.937-2.673,3.237-1.449,1.447,5.014.5,5.984-2.381,3.016-3.884,2.76-4.725,2.082-6.144,1.616S187.756-494.245,197.961-480.269Z" transform="translate(-93.222 -276.241)" fill="#fff"/>
    <path id="Tracé_580" data-name="Tracé 580" d="M363.833-490.371l-12.281-23.917-2.447,47.537,8.546-4.388A14.284,14.284,0,0,0,363.833-490.371Z" transform="translate(-174.705 -274.455)" fill="#dbba3f"/>
    <path id="Tracé_581" data-name="Tracé 581" d="M118.727-570.883l6.264,9.294,4.089-2.5-2.88-7.314,2.483-.287-6.329-7.3-4.6,2.029Z" transform="translate(-58.927 -242.074)" fill="#fdb58c"/>
    <path id="Tracé_582" data-name="Tracé 582" d="M194.676-859.574c-8.44-13.749-31.417-13.832-32.406,4.683-.3,5.564.084,11.3,2.368,16.386s6.738,9.428,12.217,10.444l.093.015q.2,2.141.392,4.282a1.284,1.284,0,0,0,.3.853,1.288,1.288,0,0,0,1,.2l5.123-.424a5.592,5.592,0,0,0,2.454-.587c1.594-.957,1.826-3.191,1.477-5.016-.083-.437-.19-.873-.3-1.309C196.37-835.688,200.193-850.585,194.676-859.574Z" transform="translate(-81.162 -96.748)" fill="#fdb58c"/>
    <path id="Tracé_583" data-name="Tracé 583" d="M120.137-884.082c-4.062.785-6.031,5.686-8.9,8.905-2.387,2.679-5.594,4.295-8.188,6.732s-4.616,6.328-3.434,9.892c-3.683-.524-7.638-1-10.889.9s-5.022,7.2-2.424,10.146c2.326,2.635,6.59,1.947,8.989,4.5,3.8,4.042.708,13.482,5.718,15.285,1.2.434,2.543.169,3.739.631,1.486.573,2.443,2.12,3.476,3.431,4.682,5.941,13.043,7.954,19.448,4.684a18.92,18.92,0,0,0,5.261-13.809c-.166-6.217-3.84-7.114-6.189-12.177a24.232,24.232,0,0,1-.843-17.959c1.327-3.721,3.807-7.4,7.236-8.987,1.394-.646,1.364.717,2.593-.97a7.662,7.662,0,0,0,.733-3.809C131.481-878.438,125.481-885.115,120.137-884.082Z" transform="translate(-42.563 -89.343)" fill="#483c3f"/>
    <path id="Tracé_584" data-name="Tracé 584" d="M208.549-899.385c2.187-.147,4.32-.99,6.51-.826,3.29.246,4.158,3.264,5.869,5.55,1.895,2.53,4.538,5.891,7.193,7.443,1.913,1.118,4.126,1.36,6.206,2.011s4.233,1.933,4.979,4.162c.707,2.113-.041,4.5.491,6.668.85,3.217,1.955,4.628,2.116,8.165.083,1.825.142,3.768-.7,5.329-1.11,2.058-3.444,2.847-5.605,3.225s-4.471.555-6.245,1.94c-3.849,3.005-1.479,7.133-1.338,11.243.215,6.253-5.157,11.839-10.857,11.6-4.833-.207-9.016-4.261-10.534-9.182-.76-2.464-.59-5.07-1.376-7.527-.758-2.37-3.225-5.153-1.754-7.764a17.962,17.962,0,0,0,1.221-1.789,3.651,3.651,0,0,0,.174-1.789,7.145,7.145,0,0,0-3.067-5.145c-1.2-.778-2.649-1.143-3.606-2.253-1.1-1.271-1.247-3.157-1.723-4.821a10.318,10.318,0,0,0-8.485-7.494c-2.515-.241-4.673-.146-7.1-1.006-.37-.131-6.009-2.417-5.831-1.557a9.184,9.184,0,0,1,.525-4.487,18.089,18.089,0,0,1,3.183-6.574c5.045-5.882,8.339,2.5,13.028-.408,1.131-.7,1.659-2.15,2.526-3.209,1.638-2,4.357-2.45,6.823-2.251S206.085-899.22,208.549-899.385Z" transform="translate(-87.564 -81.315)" fill="#483c3f"/>
    <path id="Tracé_585" data-name="Tracé 585" d="M1455.354-139.011l2.183,6.934-11.68,11.3-9.117-4.751,4.751-9.117,11.68-11.3Z" transform="translate(-718.997 -458.79)" fill="#58585b"/>
    <path id="Tracé_586" data-name="Tracé 586" d="M1280.55-561.351l23.794-3.334,6.629,21.054.655,100.072,36.848,92.531-12.884,7.083-68.086-105.005-3.572-12.723-1.389,8.339-8.493,110.363h-13.438L1223.13-462.579l1.074-92.766,56.735-8.353Z" transform="translate(-612.099 -249.235)" fill="#2e4561"/>
    <path id="Tracé_587" data-name="Tracé 587" d="M1263.036-116.8l-14.537,7.269-7.269-7.269,7.269-7.269h14.537Z" transform="translate(-621.157 -469.735)" fill="#58585b"/>
    <path id="Tracé_588" data-name="Tracé 588" d="M1228.71-975.861l5.525-12.5,4.816,1.905-2.113,9.316,2.753-.292-5.88,10.172-5.31-1.218Z" transform="translate(-614.786 -37.213)" fill="#fdb58c"/>
    <path id="Tracé_589" data-name="Tracé 589" d="M1315.253-889.562c-8.792-2.906-17.869-5.633-27.056-4.773-2.013.188-4.2.657-5.445,2.25a7.841,7.841,0,0,0-1.059,2.087c-3.137,8.215-7.309,20.443-2.543,28.8a14.047,14.047,0,0,0,3.642,4.031,19.9,19.9,0,0,0,6.389,3.294,35.787,35.787,0,0,1-2.648,5.929c4.017,3.3,7.349,3.773,13.393,1.879l1.094-7.7a19.3,19.3,0,0,0,3.537-1.4,21.817,21.817,0,0,0,9.552-10.54c2.223-4.823,5.121-9.329,7.2-14.264.764-1.8,1.429-3.87.625-5.649-.854-1.893-3.037-2.731-5.01-3.388C1316.372-889.192,1315.812-889.377,1315.253-889.562Z" transform="translate(-639.054 -84.186)" fill="#fdb58c"/>
    <path id="Tracé_590" data-name="Tracé 590" d="M1277.915-907.607a28.192,28.192,0,0,1,15.686-2.219c12.549,2.213,16.226,11.971,15.711,23.662,3.937-4.068,11.04-8.966,12.02-14.621.8-4.628.809-11.051-1.389-15.346-2.058-4.017-8.093-6.728-11.585-9.292l-9.876-7.251a7.1,7.1,0,0,0-2.208-1.245,7.115,7.115,0,0,0-2.987.027l-25.5,3.872c-1.634.248-3.507.662-4.251,2.137a5.253,5.253,0,0,0-.235,2.959c.5,4.395,1.853,8.973,1.853,13.372.245,2.581.425,15.7,5.056,14.664,1.539-2.016,2-4.644,3.267-6.843A10.323,10.323,0,0,1,1277.915-907.607Z" transform="translate(-632.154 -64.382)" fill="#504942"/>
    <path id="Tracé_591" data-name="Tracé 591" d="M1197.245-832.362,1167.99-886.6l27.841-68.781,10.7,1.817-11.58,59.95,32.576,14.278,36.094,4.217.045.158c4.521.09,8.767,2.214,12.524,4.738,13.3,8.929,34.22,43.615,43.142,56.528l-26.347.207c-2.833-3.3-10.016-9.154-16-14.537,3.947,13.656,8.083,27.673,11.35,38.1,14.333,45.749,10.716,87.437,10.716,87.437-15.336,3.009-117.327-15.023-117.327-15.023s1.119-64.5,14.662-111.9Q1196.807-830.92,1197.245-832.362Z" transform="translate(-584.505 -53.717)" fill="#d6c7ff"/>
    <path id="Tracé_592" data-name="Tracé 592" d="M1287.817-536.789l-79.62,24.251a14.988,14.988,0,0,1-18.7-9.97l-24.249-79.618a14.984,14.984,0,0,1,9.966-18.7l79.62-24.251a14.988,14.988,0,0,1,18.7,9.97l24.249,79.618A14.984,14.984,0,0,1,1287.817-536.789Z" transform="translate(-582.803 -208.675)" fill="#c56eff"/>
    <path id="Tracé_593" data-name="Tracé 593" d="M1179.17-530.8l-5.53-.694L1187.953-486l3.617-28.847A14.288,14.288,0,0,0,1179.17-530.8Z" transform="translate(-587.332 -265.845)" fill="#9c6fff"/>
    <path id="Tracé_594" data-name="Tracé 594" d="M1364.962-644.781l-.579-.8,22.855-31.427,13.333-5.237,12.854,5.237L1412-668.437l-41.424,31.426-.3-.418-.415,1.082-9.642,9.4-4.2-3.947,5.176-7.9-2.848-.946Z" transform="translate(-678.602 -190.403)" fill="#fdb58c"/>
    <path id="Tracé_595" data-name="Tracé 595" d="M448.538-129.856l-.108,8.008-15.513,8.218-7.595-7.9,7.811-8.113,15.513-8.212Z" transform="translate(-212.847 -462.834)" fill="#363636"/>
    <path id="Tracé_596" data-name="Tracé 596" d="M419.269-459.469l.689,159.518-15.322,3.382L380.67-430.6l-14.139-41.982Zm53.474,50.64-22.607,95.234-14.415-.719,2.955-94.666-18.951-50.259,53.132-11.045Z" transform="translate(-183.426 -295.327)" fill="#8b9498"/>
    <path id="Tracé_597" data-name="Tracé 597" d="M504.564-151.187l15.18,8.947,8.2-7.783-7.386-8.558-15.588-.779Z" transform="translate(-252.502 -452.074)" fill="#363636"/>
    <path id="Tracé_598" data-name="Tracé 598" d="M474.219-978.992q-1.422-2.551-2.84-5.1l-4.973-1.331c-.083-.4-.169-.8-.253-1.2l1.461-.371-3.811-2.286c-.4-1.134-3.8-5.983-4.2-7.117.918-1.31,2.836-2.9,3.755-4.21,1.581-.485,5.159,3.027,6.741,2.544,1.194,1.044,2.426,2.111,3.6,3.141.835,1.931.945,3.424,1.951,5.458s2.905,4.611,4.082,6.748C477.923-981.457,476.053-980.236,474.219-978.992Z" transform="translate(-230.005 -31.061)" fill="#fdb58c"/>
    <path id="Tracé_599" data-name="Tracé 599" d="M391.075-892.642,411.5-926.658l.144-.092c-.969-2.179-12.77-34.649-15.763-41.875q4.949-2.815,9.9-5.63c24.746,26.571,31.971,57.614,32.445,58.251l-24.59,52.713q.3.543.591,1.059a244.64,244.64,0,0,1,16.045,34.251c3.893,10.326,7.079,20.9,9.956,31.552,2.473,9.155,11.682,16.693,13.794,25.762,2.337,10.04-.382,22.2,3.813,31.584,4.225,9.456.038-.726,5.878,7.841,0,0-12.675,29.98-24.5,32.352s-23.867,3.555-35.663,6.064c-9.975,2.121-19.889,5.2-30.087,5.125a76.978,76.978,0,0,1-16.44-2.255L356.1-702.2l-20.263-39.776c1.726-6.543,4.291-12.87,6.4-19.317q.141-.43.279-.862l-27.935-44.79,27.77-65.9,11.2-2.651c.339-8.023.475-13.629.157-13.59C363.459-890.269,380.595-895.641,391.075-892.642Zm-52.547,77.1,9.759,30.974a149.34,149.34,0,0,0,2.743-36.087c-.038-.714,0-2.425.088-4.858Z" transform="translate(-157.424 -44.271)" fill="#c7b19d"/>
    <path id="Tracé_600" data-name="Tracé 600" d="M442.46-881.213c5.563,1.013,12.421,5.765,13.761,11.633.645,2.826-.275,5.428.537,8.425,1.577,5.915-5.58,14.628,1.5,18.74,3.641,2.113,8.192,1.429,12.335.68a3.092,3.092,0,0,0,1.425-.513,2.171,2.171,0,0,0,.516-2.316,8.817,8.817,0,0,0-1.245-2.182c-4.868-7.32-3.689-17.819-5.582-26.156-1.889-8.32-6.359-16.607-14.6-20.022-4.11,2.662-7.716,5.585-8.74,10.373Z" transform="translate(-221.378 -84.972)" fill="#f1d041"/>
    <path id="Tracé_601" data-name="Tracé 601" d="M430.187-840.361c5.352-2.289,8.9-7.737,10.063-13.44s.242-11.64-1.334-17.244c-5.244-18.646-28.645-13.305-34.1,2.64C400.059-854.508,414.626-833.705,430.187-840.361Z" transform="translate(-202.126 -90.005)" fill="#fdb58c"/>
    <path id="Tracé_602" data-name="Tracé 602" d="M375.912-840.593c2.627-1.634,5.2-3.343,6.725-6.393,2.46-4.93,1.423-12.59,1.716-17.938.307-5.638.821-11.781,4.686-15.9,2.524-2.688,5.63-3.425,9.137-3.783,2.4-.245,2.571.657,4.495-.807,1.474-1.122,2.553-4.19,2.765-5.949a10.017,10.017,0,0,0-3.193-8.043,14.044,14.044,0,0,0-11.392-4.392c-15.7.992-26.67,11.286-29.78,26.973-1.5,7.539.776,15.6-.885,22.874-1.025,4.492-3.578,7.643-4.316,12.4-1.915,12.333-7.271,28.353-5.7,40.8a1.758,1.758,0,0,0,.529,1.246c.759.565,1.749-.287,2.3-1.053l9.7-13.428a23.343,23.343,0,0,0,3.289-5.584c1.831-5.078.129-11.3,3.288-15.675C371-837.632,373.479-839.08,375.912-840.593Z" transform="translate(-175.096 -79.515)" fill="#f1d041"/>
    <path id="Tracé_603" data-name="Tracé 603" d="M454.316-407.389l-91.971-9.79a14.987,14.987,0,0,1-13.316-16.489l9.79-91.971a14.987,14.987,0,0,1,16.489-13.316l91.971,9.79A14.986,14.986,0,0,1,480.6-512.676l-9.79,91.971A14.987,14.987,0,0,1,454.316-407.389Z" transform="translate(-174.624 -262.069)" fill="#64e8ff"/>
    <path id="Tracé_604" data-name="Tracé 604" d="M411.456-414.129l-6.172,4.216-6.73-3.241-.563-7.437,6.172-4.215,6.723,3.229Zm55.856-58.95a9.474,9.474,0,0,0-9.88,7.805l-.287,1.621a15.656,15.656,0,0,1-6.584,10.194l-41,27.218a10.093,10.093,0,0,0-10.538.525,10.114,10.114,0,0,0-2.658,14.058,10.127,10.127,0,0,0,14.07,2.65,10.092,10.092,0,0,0,4.4-8.568l41.988-27.894a15.652,15.652,0,0,1,9.871-2.692,8.81,8.81,0,0,0,6.328-2.109l7.7-6.618-.565-1.327a1.72,1.72,0,0,0-2.744-.6l-2.17,1.986-5.192.48-3.785-5.541,2.111-5.887,4.087-.3a4.863,4.863,0,0,0,4.247-3.284l.39-1.148Z" transform="translate(-197.474 -295.07)" fill="#fff"/>
    <path id="Tracé_605" data-name="Tracé 605" d="M582.849-519.588l-4.362-.465,13.381,50.688,3.673-34.507A14.284,14.284,0,0,0,582.849-519.588Z" transform="translate(-289.496 -271.57)" fill="#33587d"/>
    <path id="Tracé_606" data-name="Tracé 606" d="M380.83-552.239c-.067,3.169,3.393,10.828,6.523,12.2,7.224,3.175,3.558-6.572,3.048-10.228a20.228,20.228,0,0,0,3.935.4c1.211-.047-3.649-10.356-4.953-11.212-3.13-2.054-5-.576-8.4.215C381-557.994,380.893-555.112,380.83-552.239Z" transform="translate(-190.581 -250.52)" fill="#fdb58c"/>
    <path id="Tracé_607" data-name="Tracé 607" d="M1119.194-150.025l.315,5.97-12.124,6.644-6.534-5.63,5.9-6.3,12.124-6.644Z" transform="translate(-550.906 -453.761)" fill="#6e6258"/>
    <path id="Tracé_608" data-name="Tracé 608" d="M955.26-502.4l4.986,76.142,22.55,97.02,11.485-.819.235-91.026,8.7-91.631Zm101.157-9.465-15.551,17.92-4.556,80.125,10.576,81.229-12.209,3.037-33.785-97.492-.575-29.385,8.488-60.456Z" transform="translate(-478.047 -273.156)" fill="#6e6258"/>
    <path id="Tracé_609" data-name="Tracé 609" d="M1015.294-139.555l-11.96,6.844-6.674-5.515,5.75-6.4,12.419-.89Z" transform="translate(-498.765 -459)" fill="#6e6258"/>
    <path id="Tracé_610" data-name="Tracé 610" d="M989.127-758.091a33.94,33.94,0,0,1,14.422-.419c3.462.656,6.509,2.71,9.207,5.681l-.849-2.633,20.357,9.269s27.516,31.274,28.17,42.838-23.395,48.857-23.395,48.857l-.809-.175c-.769,6.826-1.813,13.752-2.848,20.855-3.587,24.639-.689,51.164-8.413,74.877a523.619,523.619,0,0,1-84.262-8.89c-5.81-24.167-6.2-51.377-3.976-77.624,2.028-23.82,3.709-45.3,9.467-64.085l-9.053,6.932L936.2-650.9l-9.986,4.887-13.823-64.7,48.158-41.9,29.045-6.19Zm41.079,46.387c.8,2.745,1.539,5.185,2.228,7.152a86.2,86.2,0,0,1,3.767,14.931l3.152-13.3Z" transform="translate(-456.593 -151.947)" fill="#58585b"/>
    <path id="Tracé_611" data-name="Tracé 611" d="M1029.016-430.065l-91.66-12.341A14.989,14.989,0,0,1,924.5-459.259l12.341-91.663A14.989,14.989,0,0,1,953.7-563.775l91.66,12.342a14.988,14.988,0,0,1,12.854,16.852l-12.339,91.663A14.989,14.989,0,0,1,1029.016-430.065Z" transform="translate(-462.586 -249.622)" fill="#12b097"/>
    <path id="Tracé_612" data-name="Tracé 612" d="M986.6-460.961c-.863-3.723-1.375-7.722.459-11.188s6.78-6.024,10.951-4.573a12.756,12.756,0,0,1,5.2,4.084,13.345,13.345,0,0,0,5.13,4.151c2.188.826,5.26.378,6.245-1.463.744-1.394.085-3.008-.609-4.419-1.744-3.542-3.707-7.086-4.246-10.891a10.6,10.6,0,0,1,4.161-10.448c3.547-2.417,9.7-2.095,11.935,1.247,1.169,1.745,1.449,4.24,3.682,4.948,2.158.685,4.431-1.027,5.146-2.868s.515-3.86,1.179-5.715c1.439-4.006,7.388-6.375,11.99-4.773s6.814,6.806,4.456,10.491c-.974,1.527-2.543,2.721-3.742,4.13s-2.033,3.258-1.264,4.865c1.1,2.3,4.631,2.805,7.114,4.146a7.194,7.194,0,0,1,3.987,6.907,7.839,7.839,0,0,1-5.5,6.134,20.656,20.656,0,0,1-7.044.621c-1.249-.031-2.5-.062-3.737.018-3.617.233-7.753,2.261-7.448,5.295.245,2.441,3.2,3.975,5.91,4.885s5.795,1.8,7.089,3.995c1.788,3.032-1.154,6.761-4.866,8.078s-7.908,1.029-11.93,1.241a44.548,44.548,0,0,0-18.8,5.287c-2.738,1.493-8.937,8.342-11.5,6.623-1.419-.946-1.848-4.02-2.558-5.37-1.309-2.485-3.032-4.807-4.391-7.279A71.327,71.327,0,0,1,986.6-460.961Z" transform="translate(-493.338 -279.917)" fill="#fbf2f0"/>
    <path id="Tracé_613" data-name="Tracé 613" d="M1059.3-443.339v-1.938q9.457-8.916,18-18.489a.863.863,0,0,1,.659-.28c.564,0,1.1.453.684.922Q1069.494-452.865,1059.3-443.339Z" transform="translate(-530.112 -299.598)" fill="#07af96"/>
    <path id="Tracé_614" data-name="Tracé 614" d="M946.678-533.681l8.812,10.441,4.086-3.181-4.646-8.348,2.723-.493-8.5-8.111-4.756,2.66Z" transform="translate(-472.612 -259.9)" fill="#fdb58c"/>
    <path id="Tracé_615" data-name="Tracé 615" d="M1060.949-855.622c-9.646-3.327-18.534.1-23.11,9.276-6.654,13.357.325,29.746,10.4,34.6q.022,2.329.045,4.658a1.506,1.506,0,0,0,.2.915,1.455,1.455,0,0,0,.719.42,13.044,13.044,0,0,0,8.688-.208,21.7,21.7,0,0,1-.55-4.781c4.146-1.092,8.3-4.418,11.915-10.763C1076.326-833.932,1076.486-850.265,1060.949-855.622Z" transform="translate(-518.064 -103.016)" fill="#fdb58c"/>
    <path id="Tracé_616" data-name="Tracé 616" d="M1033.822-828.978c-8.428.36-9.332-8.563-9.152-14.96.26-9.036-.21-16.256,7.493-22.8,10.456-8.884,27.251-8.465,36.323,2.324,3.1,3.69,4.291,8.625,4.731,13.426.74,8.055-.564,16.678-5.615,23-3.032,3.792-9.1,6.988-8.053-.15.769-5.289,5.95-9,5.21-14.793a4.542,4.542,0,0,0-1.259-2.792c-1.644-1.512-4.366-.867-6.32-1.951-3.867-2.146-4.721-9.6-10.891-7.1-3.122,1.266-10.126,8.536-11.635,11.554-1.634,3.253-.974,7.15-.075,10.679C1035.236-829.965,1034.766-829.019,1033.822-828.978Z" transform="translate(-512.773 -94.95)" fill="#a19465"/>
    <path id="Tracé_617" data-name="Tracé 617" d="M1007-762.175c-.385,4.7-.385,9.455-1.409,14.056-.809,3.646-2.248,7.13-3.032,10.782a31.169,31.169,0,0,0,1.589,18.166,110.22,110.22,0,0,0,11.5-28.1c2.443-9.576,3.587-19.429,4.721-29.247.49-4.243,1.594-22.655-5.625-11.484C1009.869-780.468,1007.716-771.009,1007-762.175Z" transform="translate(-501.373 -135.703)" fill="#a19465"/>
    <path id="Tracé_618" data-name="Tracé 618" d="M1102.464-746.338c-.245-4.707-.874-9.422-.475-14.119.32-3.721,1.289-7.366,1.579-11.089a31.174,31.174,0,0,0-3.987-17.794,110.148,110.148,0,0,0-7.668,29.38c-1.149,9.816-.974,19.734-.794,29.616.08,4.27,1.424,22.665,7.094,10.637C1102.039-727.825,1102.924-737.486,1102.464-746.338Z" transform="translate(-545.97 -136.809)" fill="#a19465"/>
    <path id="Tracé_619" data-name="Tracé 619" d="M1153.166-552.579l-4.656,12.847-4.936-1.57,1.469-9.44-2.723.48,5.166-10.552,5.38.85Z" transform="translate(-571.659 -251.173)" fill="#fdb58c"/>
    <path id="Tracé_620" data-name="Tracé 620" d="M695.535-139.28l-16.273,10.231,1.923,7.808,29.641-5.855L708.79-139.22Z" transform="translate(-339.928 -462.123)" fill="#58585b"/>
    <path id="Tracé_621" data-name="Tracé 621" d="M688.02-546.749,636.2-604.9l90.836,5.042,5.256,14.333L729.938-477.7l-9.162,96.345-12.989.5-19.73-165.585-31.225,62.675,17.485,106.907H661.828l-48.458-116.4,22.543-111.9Z" transform="translate(-306.953 -228.98)" fill="#58585b"/>
    <path id="Tracé_622" data-name="Tracé 622" d="M676.228-1036.828l8.712-5.66s6.194-4.281,2-5.046c-1.966-.36-4.43,1.419-4.872,2.1.525-2.733,4.694-13.283,2.469-13.219-1.31.04-1.505-1.988-3.011-2.033L676-1062.72l-6.112,9.272-1.2,1.788-.209.08.031.185-2.183,3.257-.5,7.588-3.029,10.23,8.412,2.862,1.885-7.557Z" transform="translate(-331.687)" fill="#fdb58c"/>
    <path id="Tracé_623" data-name="Tracé 623" d="M769-877.552l-13.2.875a66.144,66.144,0,0,1-1.024-10.49c-3.819-.668-8.305-1.876-9.562-5.544a10.936,10.936,0,0,1-.385-3.625q.047-7.573.092-15.146a13.344,13.344,0,0,1,.713-5.153c1.195-2.822,4.152-4.461,7.044-5.474,7.38-2.585,15.934-2.317,22.655,1.679a11.942,11.942,0,0,1,4.486,4.238c1.562,2.8,1.312,6.222,1.018,9.417q-.408,4.423-.814,8.847c-.312,3.392-.929,7.291-3.858,9.031-1.555.924-3.549,1.062-4.895,2.27C768.9-884.5,769.913-880.609,769-877.552Z" transform="translate(-372.74 -69.525)" fill="#fdb58c"/>
    <path id="Tracé_624" data-name="Tracé 624" d="M784.647-967.033a32.326,32.326,0,0,1,1.865-3.925c1.549-2.727,3.606-5.186,4.73-8.113s1.074-6.634-1.216-8.776a9.719,9.719,0,0,0-5.59-2.091,37.575,37.575,0,0,0-19.555,2.886c-5.815,2.556-10.823,6.021-17.315,4.756-6.1-1.188-10.1.376-15.748,3.517-6.109,3.4-14.737,5.4-20.072,9.649a17.587,17.587,0,0,0-4.966,6.849,26.494,26.494,0,0,0,4.53,27.648,37.9,37.9,0,0,0,4.92,4.449c3.618,2.813,7.966,6.307,12.387,6.836-.528-3.788-5.942-15.106-3.561-18.679,3.779-5.67,14.455-5.689,20.358-5.43,6.438.282,12.714,3.763,19.036,3.677,4.549-.061,9.849-3.18,13.24-6.1C781.876-953.49,782.668-962.106,784.647-967.033Z" transform="translate(-352.675 -36.287)" fill="#3a2f29"/>
    <path id="Tracé_625" data-name="Tracé 625" d="M632.832-899.8l-31.366-33.387,20.019-72.114,14.534,3.158-3.376,59.993,37.476,18.534a48.162,48.162,0,0,1,9.459,2.287c17.934,6.2,27.057,9.846,32.183,14h0c5.23,3.511,9.484,9.221,12.724,13.5,12.807,16.921,21.481,31.972,31.473,52.907l-33.34,43.213-.649-.375c-.689,6.993-1.571,13.964-2.707,20.9-.215,1.311-.671,5.01-1.37,9.412-1.47,9.266-4.013,21.652-7.641,21.465a3.266,3.266,0,0,1-1.781-.9c-5.525-4.459-9.01-9.956-14.467-14.285-5.721-4.537-12.641-7.651-19.519-10.2a203,203,0,0,0-31.712-9.19c-11.719-2.335-44.017,4.823-44.017,4.823a99.247,99.247,0,0,1-13.908-6.594C595.357-837.15,621.271-881.85,632.832-899.8Zm91.524,49.619c.036,2.009.04,3.782.014,5.205q-.127,6.829-.342,13.655l6.369-12.012Z" transform="translate(-292.679 -28.735)" fill="#58a0ff"/>
    <path id="Tracé_626" data-name="Tracé 626" d="M802.852-148.805l13.549-.525,10.54,18.6-3.256,7L806.206-132.1Z" transform="translate(-401.776 -457.094)" fill="#58585b"/>
    <path id="Tracé_627" data-name="Tracé 627" d="M697.663-519.565l-91.975,9.749A14.987,14.987,0,0,1,589.2-523.139l-9.75-91.975A14.988,14.988,0,0,1,592.779-631.6l91.975-9.749a14.986,14.986,0,0,1,16.483,13.324l9.75,91.975A14.987,14.987,0,0,1,697.663-519.565Z" transform="translate(-289.938 -210.828)" fill="#f1612a"/>
    <path id="Tracé_628" data-name="Tracé 628" d="M703.425-558c-2.867-1.861-6.479-2.568-6.757-4.188s-.781-5.734-.781-5.734h.013l-.664-5.8.539-.064-.317-2.75-.538.064-.116-1.012-10.395,1.243.116,1.013-.538.065.315,2.749.539-.064.664,5.8s.443,4.12.536,5.763-3.258,3.182-5.626,5.669c-1.871,1.967-2.305,3.661-1.893,7.256l4.245,37.038c.155,1.351,6.634,1.687,14.473.748s14.071-2.793,13.915-4.144l-4.246-37.037C706.5-554.984,705.691-556.529,703.425-558Z" transform="translate(-339.485 -242.829)" fill="#fff"/>
    <path id="Tracé_629" data-name="Tracé 629" d="M701.942-496.535a85.2,85.2,0,0,1-8.621.6l-1.759-15.354c-.02-.191-.393-4.759,8.029-5.767,8.476-1.014,9.094,3.524,9.116,3.716l1.76,15.351A85.853,85.853,0,0,1,701.942-496.535Z" transform="translate(-346.079 -272.997)" fill="#fff"/>
    <path id="Tracé_630" data-name="Tracé 630" d="M688.743-505.364l-2.09-.278-4.256-37.14c-.507-4.421,1.787-6.253,4.691-8.574l.253-.2a5.144,5.144,0,0,0,2.177-4.25l-1.224-10.676,2.029-.242,1.223,10.675a6.281,6.281,0,0,1-2.7,5.294l-.257.206c-2.871,2.294-4.605,3.679-4.163,7.527Z" transform="translate(-341.461 -248.213)" fill="#fff"/>
    <path id="Tracé_631" data-name="Tracé 631" d="M695.26-575.813l-2.028.242.116,1.019,2.028-.243Z" transform="translate(-346.919 -243.666)" fill="#fff"/>
    <path id="Tracé_632" data-name="Tracé 632" d="M827.9-604.646l-3.655,6.99-6.67,1.974-.3,1.626,1.987.45-5.067,3.224-1.5,4.638,3.862,5.21,6.457,1.793,4.767-4.383,2.3-7.35,5.418-9.351Z" transform="translate(-406.701 -229.237)" fill="#fdb58c"/>
    <path id="Tracé_633" data-name="Tracé 633" d="M1278.821-593.764c-.16-.073-.315-.147-.475-.221a10.221,10.221,0,0,1,.944-1.558,3.249,3.249,0,0,0,.635-2.144,1.089,1.089,0,0,0-1.389-.969c-1.624.422-3.217.92-4.8,1.466a6.481,6.481,0,0,0-2.078-2.566c-.484-.365-1.369-.382-1.589.328a19,19,0,0,0-.819,6.664,15.167,15.167,0,0,0-8.158,1.333c-3.467,1.792-5.9,5.416-8.752,8.009a32.432,32.432,0,0,1-11.87,7.092,28.176,28.176,0,0,1-13.378.921c-2.828-.378-5.655-.968-8.468-.361a9.93,9.93,0,0,0-6.549,4.763c-1.578-2.056-4.926-6.468-6.354-2.556-.335.924-.17,2.011-.989,2.6-.539.393-1.254.38-1.723.966-1.119,1.4.06,2.7.7,4.034-1.089,1.363-3.117,3.2-1.149,4.875a2.609,2.609,0,0,0,2.658.177c1.908-.631,3.772-1.478,5.64-2.24,2.248,12.108,21.126,11.762,29.879,10.352.959,4.617,2.493,9.652,5.13,12.747,2.663,3.127,6.719,3.569,8.238,8.092,1.494,4.462,3.257,8.844,4.636,13.343a1.023,1.023,0,1,0,1.928-.682c-1.294-4.207-2.982-8.277-4.361-12.456-.959-2.907-1.663-4.756-4.151-6.518-3.737-2.641-6.165-4.7-7.673-9.376a69.334,69.334,0,0,1-2.463-9.658,17.512,17.512,0,0,0,3.827-1.57,104.39,104.39,0,0,0,4.331,10.954c.919,1.932,2.573,3.9,4.786,2.8,4.851-2.415-.17-12.519-2.188-16.566a35.734,35.734,0,0,0,3.947-1.85c3.342,5.654,7.279,13.419,5.215,19.59-1.079,3.215-1.908,4.653-.609,8.058,1.833,4.8,3.317,9.739,5.23,14.51a1.023,1.023,0,1,0,1.928-.683c-1-2.5-1.838-5.024-2.678-7.58-.8-2.434-2.388-5.2-2.872-7.679-.829-4.215,2.533-7.436,1.913-11.615a38.576,38.576,0,0,0-3.971-11.257c5.4-3.6,10.591-8.5,13.8-14.347,1.9-3.464,2.773-9.568.934-13.773a19.065,19.065,0,0,1,5.945-.918,1.026,1.026,0,0,0,.934-1.135C1282.213-592.427,1280.465-592.994,1278.821-593.764ZM1254.792-548.2c-1.809,3.051-3.472-2.186-3.947-3.316-.45-1.068-.864-2.146-1.284-3.223a18.962,18.962,0,0,0,3.347-1.36c.23.592.48,1.175.679,1.776C1254.078-552.881,1255.576-549.52,1254.792-548.2Z" transform="translate(-601.393 -231.561)" fill="#fff" fill-rule="evenodd"/>
  </g>
</svg>
