<?xml version="1.0" encoding="UTF-8" standalone="no"?>
<!DOCTYPE svg PUBLIC "-//W3C//DTD SVG 1.1//EN" "http://www.w3.org/Graphics/SVG/1.1/DTD/svg11.dtd">
<svg width="100%" height="100%" viewBox="0 0 92 24" version="1.1" xmlns="http://www.w3.org/2000/svg" xmlns:xlink="http://www.w3.org/1999/xlink" xml:space="preserve" xmlns:serif="http://www.serif.com/" style="fill-rule:evenodd;clip-rule:evenodd;stroke-linejoin:round;stroke-miterlimit:2;">
    <g id="Plan-de-travail2" serif:id="Plan de travail2" transform="matrix(1,0,0,1,592,166.809)">
        <g>
            <g id="Groupe-12" serif:id="Groupe 12">
            </g>
        </g>
    </g>
    <g id="Plan-de-travail3" serif:id="Plan de travail3" transform="matrix(1.12195,0,0,0.96,24.6829,289.92)">
        <rect x="-22" y="-302" width="82" height="25" style="fill:none;"/>
        <clipPath id="_clip1">
            <rect x="-22" y="-302" width="82" height="25"/>
        </clipPath>
        <g clip-path="url(#_clip1)">
            <g transform="matrix(0.15042,0,0,0.163059,78.65,-294.565)">
                <g>
                    <g transform="matrix(0.1553,0,0,0.168018,-164.533,21.2563)">
                        <path d="M82.979,196.416C85.023,195.506 87.094,194.669 89.184,193.884C91.544,192.997 93.923,192.163 96.334,191.437C99.335,190.533 102.361,189.715 105.428,189.064C109.563,188.186 113.747,187.536 117.962,187.127C115.598,194.56 112.985,201.951 110.154,209.295C110.275,210.717 110.34,212.148 110.378,213.583C116.08,212.458 121.968,211.856 128,211.856C134.031,211.856 139.92,212.458 145.622,213.583C145.66,212.148 145.725,210.717 145.846,209.295C143.014,201.951 140.402,194.56 138.038,187.127C142.253,187.536 146.437,188.186 150.572,189.064C153.638,189.715 156.664,190.533 159.665,191.437C162.077,192.163 164.456,192.997 166.816,193.884C168.907,194.67 170.979,195.507 173.023,196.417C187.527,202.876 200.749,212.456 211.593,224.888C238.773,201.417 256,166.731 256,128C256,57.308 198.692,0 128,0C57.308,0 0,57.308 0,128C0,166.731 17.227,201.416 44.407,224.888C55.251,212.456 68.475,202.875 82.979,196.416" style="fill:rgb(165,219,232);fill-rule:nonzero;"/>
                        <path d="M173.023,196.417L180.969,223.74L183.223,223.846C184.686,223.846 185.715,224.231 185.715,225.694C185.715,228.126 185.841,230.859 186.074,233.245C188.054,234.926 190.465,236.822 192.293,238.664C199.16,234.666 205.615,230.05 211.593,224.888C200.749,212.456 187.527,202.876 173.023,196.417" style="fill:rgb(82,83,83);fill-rule:nonzero;"/>
                        <path d="M157.486,196.144L166.816,193.884C164.456,192.997 162.077,192.163 159.665,191.437C156.664,190.533 153.638,189.715 150.572,189.064C146.437,188.186 142.253,187.536 138.038,187.127C140.402,194.56 143.014,201.951 145.846,209.295C145.725,210.717 145.66,212.148 145.622,213.583C152.233,214.887 158.733,217.153 164.743,219.811L157.486,196.144" style="fill:rgb(82,83,83);fill-rule:nonzero;"/>
                        <path d="M63.707,238.664C65.193,239.53 66.694,240.375 68.22,241.182C68.754,238.617 69.608,235.063 69.866,232.424C67.886,234.105 65.535,236.822 63.707,238.664" style="fill-rule:nonzero;"/>
                        <path d="M164.587,219.575C158.578,216.917 152.233,214.887 145.622,213.583C139.92,212.458 134.031,211.856 128,211.856C121.968,211.856 116.08,212.458 110.378,213.583C103.768,214.886 96.871,216.863 90.863,219.52L90.224,223.501L165.778,223.501L164.587,219.575" style="fill-rule:nonzero;"/>
                        <path d="M69.632,233.182C69.866,230.796 70.035,228.669 70.035,226.236C70.035,224.774 71.038,223.837 72.501,223.837L74.9,223.753L82.979,196.416C68.475,202.875 55.251,212.456 44.407,224.888C50.385,230.05 56.84,234.666 63.707,238.664C65.535,236.822 67.439,235.055 69.419,233.374" style="fill:rgb(82,83,83);fill-rule:nonzero;"/>
                        <path d="M187.051,238.045C187.569,240.645 187.686,241.163 187.78,241.182C189.306,240.375 190.806,239.53 192.293,238.664C190.465,236.822 188.502,234.996 186.521,233.315L187.051,238.045" style="fill-rule:nonzero;"/>
                        <path d="M164.587,219.575L165.778,223.501L181.232,223.501L173.023,196.417C170.979,195.507 168.907,194.67 166.816,193.884L157.486,196.144L164.587,219.575" style="fill:rgb(170,150,120);fill-rule:nonzero;"/>
                        <path d="M75.039,228.971C75.12,228.914 75.202,228.857 75.282,228.799L75.05,228.799C75.048,228.856 75.042,228.914 75.039,228.971" style="fill:rgb(196,182,161);fill-rule:nonzero;"/>
                        <path d="M180.95,228.799L180.717,228.799C180.798,228.857 180.88,228.914 180.96,228.971C180.958,228.914 180.952,228.856 180.95,228.799" style="fill:rgb(170,150,120);fill-rule:nonzero;"/>
                        <path d="M180.684,228.404L127.89,228.464L128,256C147.648,256 166.256,251.561 182.893,243.649C181.807,238.877 181.698,233.737 181.521,228.735C181.441,228.677 180.684,228.404 180.684,228.404" style="fill:rgb(170,150,120);fill-rule:nonzero;"/>
                        <path d="M127.915,228.578C127.915,228.578 74.83,228.511 74.749,228.568C74.573,233.571 73.541,239.507 73.107,243.649C89.744,251.561 108.352,256 128,256L128.03,228.667L127.915,228.578" style="fill:rgb(196,182,161);fill-rule:nonzero;"/>
                        <rect x="128" y="226.15" width="0.001" height="2.649" style="fill:rgb(120,100,83);"/>
                        <path d="M164.649,205.236C164.263,204.792 163.865,204.317 163.452,203.776C163.866,204.317 164.263,204.792 164.649,205.236" style="fill:rgb(82,83,83);fill-rule:nonzero;"/>
                        <path d="M167.594,208.16C167.594,208.16 167.603,208.189 167.621,208.243C167.603,208.189 167.594,208.16 167.594,208.16C167.594,208.16 166.296,207.131 164.649,205.236C166.296,207.131 167.594,208.16 167.594,208.16" style="fill:rgb(170,150,120);fill-rule:nonzero;"/>
                        <path d="M206.706,92.348L206.706,92.354L206.706,92.348" style="fill:white;fill-rule:nonzero;"/>
                        <path d="M211.857,129.201C211.857,129.188 211.858,129.176 211.858,129.163C211.858,129.176 211.857,129.188 211.857,129.201" style="fill:white;fill-rule:nonzero;"/>
                        <path d="M211.858,129.163C211.858,129.151 211.857,129.141 211.857,129.128C211.857,129.14 211.858,129.151 211.858,129.163" style="fill:rgb(187,188,189);fill-rule:nonzero;"/>
                        <path d="M211.714,127.169C211.718,127.203 211.728,127.233 211.732,127.267C211.735,127.288 211.741,127.307 211.744,127.327L211.744,127.335C211.805,127.824 211.828,128.335 211.839,128.85C211.841,128.945 211.857,129.034 211.857,129.128C211.857,129.141 211.858,129.151 211.858,129.163C211.858,129.176 211.857,129.188 211.857,129.201C211.856,129.303 211.839,129.398 211.838,129.499C211.826,130.004 211.804,130.505 211.745,130.985L211.745,130.992C211.741,131.017 211.735,131.04 211.731,131.065C211.727,131.104 211.715,131.139 211.71,131.177C211.638,131.701 211.546,132.209 211.423,132.692C211.422,132.695 211.422,132.697 211.421,132.699L211.421,132.7L211.439,132.68C211.441,132.672 211.444,132.665 211.446,132.657L211.446,132.658L214.796,129.151L211.419,125.616C211.419,125.618 211.419,125.621 211.42,125.623C211.546,126.116 211.642,126.634 211.714,127.169" style="fill:rgb(103,106,106);fill-rule:nonzero;"/>
                        <path d="M211.71,131.177C211.719,131.111 211.736,131.052 211.745,130.985C211.804,130.505 211.826,130.004 211.838,129.499C211.839,129.385 211.857,129.278 211.857,129.163C211.857,129.056 211.841,128.956 211.839,128.85C211.828,128.335 211.805,127.824 211.744,127.335C211.736,127.277 211.721,127.226 211.714,127.169C211.642,126.634 211.546,126.116 211.42,125.623C211.376,125.451 211.315,125.298 211.264,125.132C210.961,124.13 210.548,123.245 210.058,122.51C209.992,122.412 209.925,122.317 209.857,122.225C209.722,122.044 209.587,121.868 209.444,121.71C209.232,121.481 209.013,121.27 208.782,121.095C208.694,121.028 208.601,120.981 208.511,120.923C208.311,120.794 208.107,120.681 207.896,120.595C207.806,120.559 207.715,120.523 207.623,120.494C207.325,120.402 207.02,120.336 206.706,120.336C206.392,120.336 206.088,120.402 205.789,120.494C205.697,120.523 205.606,120.559 205.516,120.596C205.305,120.681 205.101,120.794 204.9,120.923C204.812,120.981 204.718,121.027 204.631,121.094C204.4,121.27 204.18,121.481 203.968,121.71C203.825,121.868 203.69,122.044 203.557,122.223C203.487,122.317 203.42,122.412 203.354,122.511C202.864,123.246 202.45,124.131 202.148,125.133C202.136,125.173 202.122,125.212 202.11,125.253C201.976,125.713 201.872,126.197 201.785,126.694C201.759,126.846 201.724,126.992 201.703,127.148C201.623,127.704 201.582,128.284 201.572,128.878C201.571,128.96 201.558,129.038 201.558,129.12L201.578,129.12C201.578,133.996 203.885,137.948 206.73,137.948C207.22,137.948 207.691,137.82 208.14,137.601C208.212,137.565 208.283,137.528 208.354,137.487C208.54,137.38 208.723,137.263 208.898,137.122C208.995,137.044 209.086,136.95 209.179,136.862C209.406,136.65 209.622,136.41 209.827,136.143C209.969,135.956 210.109,135.769 210.239,135.56C210.322,135.427 210.398,135.283 210.475,135.141C210.619,134.875 210.755,134.598 210.878,134.304C210.924,134.198 210.971,134.095 211.013,133.986C211.17,133.577 211.307,133.145 211.423,132.692C211.546,132.209 211.638,131.701 211.71,131.177ZM206.891,127.988C205.824,127.988 204.959,126.505 204.959,124.677C204.959,122.85 205.824,121.367 206.891,121.367C207.958,121.367 208.822,122.85 208.822,124.677C208.822,126.505 207.958,127.988 206.891,127.988Z" style="fill-rule:nonzero;"/>
                        <path d="M206.891,121.367C205.824,121.367 204.959,122.85 204.959,124.677C204.959,126.505 205.824,127.988 206.891,127.988C207.958,127.988 208.822,126.505 208.822,124.677C208.822,122.85 207.958,121.367 206.891,121.367" style="fill:white;fill-rule:nonzero;"/>
                        <path d="M202.148,125.133C202.45,124.131 202.864,123.246 203.354,122.511C203.42,122.411 203.487,122.318 203.557,122.223C203.69,122.044 203.825,121.868 203.968,121.71C204.18,121.479 204.4,121.271 204.631,121.094C204.718,121.027 204.812,120.981 204.9,120.923C205.1,120.792 205.305,120.683 205.516,120.596C205.606,120.559 205.697,120.523 205.789,120.494C206.087,120.4 206.392,120.336 206.706,120.336C207.02,120.336 207.325,120.4 207.623,120.494C207.715,120.523 207.806,120.559 207.896,120.595C208.107,120.683 208.311,120.792 208.511,120.923C208.601,120.981 208.694,121.028 208.782,121.095C209.012,121.271 209.232,121.479 209.444,121.71C209.587,121.868 209.722,122.044 209.857,122.225C209.925,122.318 209.992,122.411 210.058,122.51C210.548,123.245 210.961,124.13 211.264,125.132L211.264,125.134L206.706,104.257L202.147,125.133L202.148,125.133" style="fill:rgb(144,147,147);fill-rule:nonzero;"/>
                        <path d="M146.299,128.968C146.293,128.548 146.266,128.133 146.219,127.725C146.218,127.72 146.216,127.714 146.216,127.708C146.168,127.306 146.101,126.909 146.015,126.52C146.012,126.51 146.009,126.501 146.007,126.49C145.921,126.105 145.816,125.727 145.694,125.356C145.691,125.348 145.687,125.34 145.684,125.331C145.561,124.96 145.421,124.597 145.262,124.243C145.26,124.236 145.255,124.229 145.252,124.221C145.093,123.866 144.917,123.519 144.725,123.183C144.139,122.156 143.408,121.225 142.558,120.415C141.479,119.388 140.21,118.557 138.811,117.981C138.8,117.977 138.787,117.973 138.776,117.968C138.086,117.687 137.365,117.467 136.618,117.317C136.599,117.314 136.581,117.313 136.562,117.309C135.813,117.162 135.041,117.082 134.249,117.082C133.47,117.082 132.713,117.162 131.976,117.303C131.95,117.308 131.924,117.31 131.898,117.315C131.165,117.461 130.458,117.675 129.779,117.947C129.762,117.954 129.743,117.96 129.725,117.968C129.037,118.248 128.38,118.589 127.763,118.986C127.76,118.988 127.758,118.989 127.756,118.989C127.133,119.391 126.548,119.848 126.01,120.353L125.997,120.394L125.952,120.404C125.093,121.221 124.354,122.163 123.763,123.198C123.757,123.21 123.749,123.222 123.741,123.235C123.561,123.552 123.398,123.882 123.248,124.218C123.232,124.254 123.212,124.288 123.197,124.324C123.06,124.635 122.942,124.957 122.832,125.281C122.811,125.345 122.783,125.405 122.763,125.468C122.667,125.771 122.589,126.082 122.515,126.393C122.496,126.483 122.467,126.569 122.448,126.658C122.384,126.966 122.34,127.281 122.299,127.597C122.287,127.694 122.266,127.787 122.256,127.884C122.213,128.297 122.189,128.716 122.189,129.142C122.189,129.94 122.271,130.718 122.42,131.472C122.422,131.487 122.423,131.504 122.427,131.52C122.578,132.273 122.8,132.999 123.085,133.694C123.089,133.704 123.091,133.714 123.096,133.723C123.676,135.129 124.515,136.402 125.552,137.483C126.372,138.338 127.316,139.071 128.354,139.657C128.359,139.66 128.364,139.663 128.369,139.666C128.693,139.848 129.028,140.012 129.369,140.164C129.397,140.176 129.424,140.192 129.453,140.204C129.769,140.342 130.096,140.461 130.425,140.572C130.481,140.591 130.535,140.615 130.591,140.633C130.895,140.73 131.209,140.808 131.523,140.88C131.608,140.9 131.69,140.928 131.776,140.946C132.081,141.009 132.395,141.052 132.711,141.093C132.806,141.104 132.9,141.126 132.997,141.136C133.408,141.179 133.826,141.202 134.249,141.202C135.914,141.202 137.5,140.864 138.943,140.253C139.664,139.949 140.35,139.576 140.991,139.142C142.275,138.275 143.382,137.167 144.249,135.885C144.682,135.243 145.056,134.558 145.361,133.836C145.971,132.393 146.309,130.807 146.309,129.142C146.309,129.113 146.305,129.086 146.305,129.059C146.304,129.028 146.3,128.999 146.299,128.968ZM134.249,127.555C131.747,127.555 129.719,125.526 129.719,123.024C129.719,120.522 131.747,118.494 134.249,118.494C136.751,118.494 138.779,120.522 138.779,123.024C138.779,125.526 136.751,127.555 134.249,127.555Z" style="fill-rule:nonzero;"/>
                        <path d="M134.249,118.494C131.747,118.494 129.719,120.522 129.719,123.024C129.719,125.526 131.747,127.555 134.249,127.555C136.751,127.555 138.779,125.526 138.779,123.024C138.779,120.522 136.751,118.494 134.249,118.494" style="fill:white;fill-rule:nonzero;"/>
                        <path d="M125.952,120.404L125.997,120.394L126.01,120.353L134.316,94.951L134.316,89.006C134.316,88.962 134.315,88.939 134.315,88.939C129.689,87.99 124.933,87.469 120.065,87.469C118.44,87.469 116.828,87.538 115.226,87.647C114.993,87.663 114.759,87.677 114.525,87.695C106.188,88.328 97.978,90.501 90.376,93.971C83.857,96.948 77.8,100.869 72.355,105.518L72.355,105.519C72.353,105.522 72.349,105.524 72.346,105.527C70.884,106.769 69.483,108.08 68.115,109.424C67.859,109.674 67.599,109.922 67.346,110.176C66.058,111.474 64.813,112.815 63.609,114.195C63.348,114.496 63.091,114.803 62.833,115.107C61.624,116.534 60.448,117.988 59.331,119.49C59.238,119.616 59.151,119.748 59.059,119.874C57.994,121.323 56.98,122.81 56.003,124.322C55.812,124.617 55.616,124.908 55.429,125.206C54.639,126.459 53.904,127.746 53.174,129.036L91.011,129.036L125.952,120.404" style="fill:rgb(187,188,189);fill-rule:nonzero;"/>
                        <path d="M157.895,117.546C157.972,116.555 158.035,115.565 158.086,114.573C158.155,113.231 158.202,111.887 158.228,110.544C158.248,109.501 158.245,108.457 158.24,107.414C158.24,107.113 158.247,106.812 158.244,106.51C158.216,103.822 158.111,101.131 157.947,98.437C157.939,98.432 157.932,98.427 157.924,98.422C157.921,98.415 157.917,98.409 157.914,98.403C157.904,98.396 157.865,98.374 157.829,98.354C157.797,98.335 157.769,98.319 157.709,98.285C157.215,98.001 156.001,97.306 154.911,96.687C154.887,96.674 154.864,96.66 154.841,96.647C154.565,96.491 154.299,96.34 154.058,96.204C154.053,96.201 154.048,96.199 154.044,96.196C153.836,96.079 153.662,95.982 153.501,95.892C153.469,95.874 153.424,95.849 153.394,95.832C153.217,95.734 153.08,95.66 152.999,95.617C151.26,94.715 149.485,93.88 147.68,93.118C143.377,91.301 137.581,89.708 134.316,88.939L134.316,94.951L142.549,120.394L142.558,120.415C143.408,121.225 144.139,122.156 144.725,123.182L144.725,123.183C144.917,123.519 145.093,123.866 145.252,124.221C145.256,124.229 145.26,124.236 145.262,124.243C145.421,124.597 145.561,124.96 145.684,125.331C145.687,125.34 145.691,125.348 145.694,125.356C145.816,125.727 145.921,126.105 146.007,126.49C146.009,126.501 146.012,126.51 146.015,126.52C146.101,126.909 146.168,127.306 146.216,127.708C146.216,127.714 146.218,127.72 146.219,127.725C146.266,128.133 146.293,128.548 146.299,128.968L146.33,129.036L156.411,129.036C157.092,125.347 157.567,121.609 157.868,117.855C157.875,117.752 157.887,117.649 157.895,117.546" style="fill:rgb(227,221,219);fill-rule:nonzero;"/>
                        <path d="M171.079,108.55C171.072,108.561 171.067,108.574 171.061,108.585C171.067,108.574 171.073,108.562 171.079,108.551" style="fill:rgb(252,176,63);fill-rule:nonzero;"/>
                        <path d="M126.01,120.353C126.548,119.848 127.133,119.391 127.756,118.989C127.758,118.989 127.76,118.988 127.763,118.986C128.38,118.589 129.037,118.248 129.725,117.968C129.743,117.96 129.762,117.955 129.779,117.947C130.458,117.675 131.165,117.461 131.898,117.315C131.924,117.31 131.949,117.308 131.976,117.303C132.713,117.162 133.47,117.082 134.249,117.082C135.041,117.082 135.813,117.162 136.562,117.309C136.581,117.313 136.599,117.314 136.618,117.317C137.365,117.467 138.086,117.687 138.776,117.968C138.787,117.973 138.799,117.977 138.811,117.981C140.21,118.557 141.479,119.388 142.558,120.415L142.549,120.394L134.316,94.951L126.01,120.353" style="fill:rgb(144,147,147);fill-rule:nonzero;"/>
                        <path d="M123.085,133.694C122.8,132.999 122.578,132.273 122.427,131.52C122.423,131.504 122.422,131.487 122.42,131.472C122.271,130.718 122.189,129.94 122.189,129.142C122.189,128.716 122.213,128.297 122.256,127.884C122.266,127.787 122.287,127.694 122.299,127.597C122.34,127.281 122.384,126.966 122.448,126.658C122.467,126.569 122.496,126.483 122.515,126.393C122.589,126.082 122.667,125.771 122.763,125.468C122.784,125.405 122.81,125.345 122.832,125.281C122.942,124.957 123.06,124.635 123.197,124.324C123.212,124.288 123.232,124.254 123.248,124.218C123.398,123.882 123.561,123.552 123.741,123.235C123.749,123.222 123.757,123.21 123.763,123.198C124.354,122.163 125.093,121.221 125.952,120.404L91.011,129.036L90.944,129.036L125.552,137.483C124.515,136.402 123.676,135.129 123.096,133.723C123.091,133.714 123.089,133.704 123.085,133.694" style="fill:rgb(103,106,106);fill-rule:nonzero;"/>
                        <path d="M201.703,127.148C201.725,126.992 201.758,126.846 201.785,126.694C201.872,126.197 201.976,125.713 202.11,125.253C202.125,125.201 202.131,125.142 202.147,125.091L206.706,104.215L206.705,92.312C202.98,89.235 198.991,87.553 194.838,87.553C189.59,87.553 184.697,90.451 181.038,94.03C177.034,97.947 173.94,102.875 171.438,107.848C171.323,108.077 171.205,108.297 171.091,108.527C171.862,109.195 172.625,109.872 173.378,110.561C175.082,112.12 176.749,113.72 178.394,115.342C179.16,116.098 179.912,116.87 180.666,117.639C181.466,118.454 182.267,119.267 183.055,120.095C184.068,121.16 185.072,122.234 186.066,123.319C186.485,123.775 186.903,124.233 187.317,124.693C188.516,126.02 189.709,127.353 190.882,128.704L190.884,128.706C191.081,128.912 191.219,129.06 191.272,129.12L201.554,129.12C201.554,129.037 201.571,128.961 201.572,128.878C201.582,128.284 201.623,127.704 201.703,127.148" style="fill:rgb(227,221,219);fill-rule:nonzero;"/>
                        <path d="M171.09,108.582C171.086,108.571 171.082,108.56 171.079,108.551C171.073,108.562 171.067,108.574 171.061,108.585C171.067,108.591 171.097,108.621 171.106,108.629C171.101,108.613 171.096,108.598 171.09,108.582" style="fill:rgb(227,221,219);fill-rule:nonzero;"/>
                        <path d="M46.975,142.173C47.005,142.096 47.037,142.02 47.067,141.943C47.729,140.212 48.454,138.504 49.215,136.812C49.428,136.341 49.647,135.874 49.867,135.406C50.491,134.078 51.151,132.768 51.835,131.47C52.113,130.942 52.385,130.412 52.673,129.889C52.832,129.6 53.012,129.324 53.174,129.036C53.904,127.746 54.639,126.459 55.429,125.206C55.616,124.907 55.812,124.617 56.003,124.322C56.98,122.81 57.994,121.323 59.059,119.874C59.151,119.748 59.238,119.616 59.331,119.49C60.448,117.988 61.624,116.534 62.833,115.107C63.091,114.803 63.347,114.497 63.609,114.195C64.813,112.815 66.058,111.474 67.346,110.176C67.6,109.922 67.859,109.674 68.115,109.424C69.483,108.08 70.884,106.769 72.346,105.527C72.349,105.524 72.353,105.521 72.355,105.518C78.106,86.254 96.676,74.416 117.497,74.416C125.877,74.416 134.211,76.831 141.353,81.2C148.679,85.681 153.674,90.059 157.552,97.712C157.571,97.751 157.591,97.789 157.61,97.827C157.708,98.021 157.818,98.207 157.914,98.403C157.917,98.409 157.921,98.415 157.924,98.422C157.932,98.427 157.939,98.432 157.947,98.437C161.191,100.435 164.286,102.7 167.228,105.182C168.209,106.01 169.173,106.861 170.12,107.736C170.432,108.022 170.753,108.294 171.061,108.585C171.067,108.573 171.072,108.561 171.079,108.55C171.082,108.542 171.086,108.533 171.09,108.526C171.196,108.309 171.3,108.088 171.407,107.874C174.341,89.357 183.663,79.26 193.297,79.26C200.559,79.26 205.838,83.59 209.825,95.246L209.866,95.371C209.869,95.375 209.873,95.38 209.876,95.385C211.002,96.608 212.099,97.956 213.163,99.433L213.161,99.432C213.182,99.46 213.204,99.486 213.225,99.515L213.224,99.514L213.225,99.515C213.282,99.684 213.331,99.858 213.386,100.027L213.386,100.026L213.236,99.419C201.251,63.937 167.691,38.391 128.163,38.391C78.583,38.391 38.391,78.583 38.391,128.163C38.391,137.937 39.953,147.347 42.853,156.103C42.856,156.087 42.861,156.07 42.865,156.052C43.435,153.411 44.118,150.786 44.913,148.189C45.533,146.165 46.222,144.157 46.975,142.173" style="fill:rgb(82,83,83);fill-rule:nonzero;"/>
                        <path d="M214.577,129.155L211.446,132.658L211.446,132.657C211.444,132.665 211.441,132.672 211.439,132.68C211.32,133.141 211.174,133.571 211.013,133.986C210.971,134.095 210.924,134.198 210.878,134.304C210.754,134.598 210.62,134.876 210.475,135.141C210.398,135.283 210.322,135.427 210.239,135.56C210.109,135.768 209.969,135.957 209.827,136.143C209.622,136.41 209.406,136.65 209.179,136.862C209.086,136.949 208.996,137.044 208.898,137.122C208.723,137.263 208.54,137.38 208.354,137.487C208.282,137.527 208.212,137.565 208.14,137.601C207.691,137.82 207.22,137.948 206.73,137.948C203.885,137.948 201.578,133.996 201.578,129.12L191.241,129.12C191.244,129.123 191.245,129.126 191.247,129.128C193.167,131.344 195.053,133.59 196.914,135.858C196.936,135.886 196.958,135.913 196.981,135.94C198.79,138.148 200.572,140.376 202.335,142.619C202.422,142.729 202.508,142.838 202.595,142.948C204.267,145.08 205.92,147.226 207.559,149.378C207.718,149.585 207.878,149.793 208.037,150.002C209.77,152.282 211.487,154.568 213.192,156.857C213.204,156.874 213.215,156.889 213.228,156.905C216.181,148.167 217.833,138.832 217.936,129.12L215.03,129.01L214.577,129.155" style="fill:white;fill-rule:nonzero;"/>
                        <path d="M114.525,87.695C114.759,87.677 114.993,87.663 115.226,87.647C116.828,87.538 118.44,87.469 120.065,87.469C124.933,87.469 129.689,87.99 134.315,88.939L134.316,88.939C137.581,89.708 143.377,91.301 147.68,93.118C149.485,93.88 151.26,94.715 152.999,95.617C153.08,95.66 153.217,95.735 153.394,95.832C153.424,95.849 153.469,95.874 153.501,95.892C153.662,95.982 153.838,96.079 154.044,96.196C154.048,96.199 154.053,96.201 154.058,96.204C154.3,96.341 154.564,96.491 154.841,96.647C154.864,96.66 154.887,96.674 154.911,96.687C156.017,97.314 157.241,98.017 157.709,98.285C157.769,98.319 157.797,98.335 157.829,98.354C157.853,98.368 157.905,98.397 157.914,98.403C157.818,98.207 157.708,98.021 157.61,97.827C157.591,97.789 157.571,97.751 157.552,97.712C153.674,90.059 147.704,83.495 140.378,79.014C133.236,74.645 124.902,72.23 116.521,72.23C95.701,72.23 78.106,86.254 72.355,105.518C77.8,100.869 83.857,96.948 90.376,93.971C97.978,90.501 106.188,88.328 114.525,87.695" style="fill-rule:nonzero;"/>
                        <path d="M213.225,99.515L213.224,99.514L213.225,99.515C213.204,99.486 213.182,99.46 213.161,99.432L213.163,99.433C212.099,97.956 211.002,96.608 209.876,95.385C209.874,95.381 209.87,95.376 209.867,95.373C209.87,95.376 209.874,95.381 209.876,95.385C209.867,95.374 209.857,95.361 209.847,95.35C209.335,94.796 208.82,94.267 208.296,93.765C208.099,93.576 207.895,93.411 207.696,93.23C207.367,92.931 207.04,92.622 206.706,92.348L206.706,104.257L211.265,125.135L211.265,125.134C211.315,125.296 211.375,125.448 211.419,125.616L214.577,129.155L214.608,129.12L217.913,129.12C217.917,128.814 217.936,128.512 217.936,128.205L217.936,128.2C217.935,118.353 216.317,108.891 213.386,100.026L213.386,100.027C213.331,99.858 213.282,99.684 213.225,99.515" style="fill:rgb(187,188,189);fill-rule:nonzero;"/>
                        <path d="M181.038,94.03C184.697,90.451 189.59,87.553 194.838,87.553C198.991,87.553 202.98,89.235 206.705,92.312C206.705,92.312 206.706,92.339 206.706,92.348L206.706,92.354L206.706,92.348C207.04,92.622 207.367,92.931 207.696,93.23C207.895,93.411 208.099,93.576 208.296,93.765C208.82,94.267 209.335,94.796 209.847,95.35C209.857,95.361 209.867,95.374 209.876,95.385C209.874,95.381 209.87,95.376 209.867,95.373L209.866,95.372L209.825,95.246C205.838,83.59 199.405,76.017 192.145,76.017C182.51,76.017 174.341,89.357 171.407,107.874L171.438,107.848C173.94,102.875 177.034,97.947 181.038,94.03" style="fill-rule:nonzero;"/>
                        <path d="M168.019,207.836C168.019,207.836 166.722,206.808 165.075,204.913C164.689,204.469 164.291,203.994 163.877,203.453C163.566,203.048 163.251,202.615 162.936,202.156C162.726,201.85 162.518,201.532 162.311,201.204C161.688,200.219 161.191,199.02 160.643,197.835C160.009,196.463 160.007,195.55 159.643,194.272C159.383,193.358 159.167,192.403 159.006,191.409C158.765,189.919 158.65,188.341 158.703,186.681C158.731,185.768 158.825,184.823 158.962,183.861C159.094,182.936 159.276,181.989 159.519,181.022C160.245,178.119 161.5,175.027 163.458,171.763C163.463,171.754 163.951,170.654 163.956,170.645C164.596,169.579 164.738,169.626 165.346,168.599C173.91,154.146 178.53,143.217 176.27,126.389C176.108,125.188 175.667,122.497 175.426,121.233C175.298,122.107 174.815,124.892 174.801,124.952C174.716,125.336 174.483,125.753 174.395,126.014C170.675,137.024 164.819,145.123 156.393,154.268C155.251,155.507 154.055,156.764 152.831,158.033C150.771,160.168 148.611,162.349 146.326,164.623C145.414,165.53 144.484,166.45 143.538,167.388C142.669,168.248 141.588,170.087 140.298,171.442C139.502,173.671 138.597,176.185 137.832,178.829C137.487,178.698 137.158,178.581 136.807,178.445C120.439,172.114 109.48,163.655 109.48,163.655C109.48,163.655 117.912,174.634 132.118,184.94C133.493,185.938 134.849,186.802 136.177,187.568C135.591,196.844 139.683,205.749 158.154,208.405C161.277,208.854 164.475,208.833 167.696,208.47C167.664,208.374 167.876,208.376 167.859,208.323C167.841,208.269 168.031,208.127 168.031,208.127" style="fill-rule:nonzero;"/>
                        <path d="M158.139,183.959C174.537,186.605 198.806,186.171 224,174.375C224.607,174.091 225.276,174.839 225.883,174.541C225.883,174.541 208.664,192.128 188.1,202.071C187.499,202.361 186.906,202.67 186.299,202.946C184.312,203.854 182.291,204.645 180.262,205.375C176.283,206.805 172.251,207.89 168.248,208.391C168.064,208.415 167.88,208.45 167.696,208.47C167.664,208.374 167.638,208.296 167.621,208.243C167.603,208.189 167.594,208.16 167.594,208.16C167.594,208.16 166.296,207.131 164.649,205.236C164.263,204.792 163.865,204.317 163.452,203.776C163.141,203.371 162.826,202.938 162.511,202.479C162.301,202.173 162.092,201.855 161.885,201.527C161.263,200.542 160.658,199.453 160.11,198.269C159.563,197.085 159.073,195.804 158.683,194.432C158.422,193.518 158.206,192.563 158.045,191.569C157.804,190.078 157.69,188.501 157.742,186.841C157.77,185.927 157.864,184.983 158.001,184.021L158.139,183.959" style="fill:rgb(159,34,84);fill-rule:nonzero;"/>
                        <path d="M146.386,165.29C148.672,163.016 150.832,160.835 152.892,158.7C154.115,157.431 155.312,156.174 156.454,154.935C164.879,145.79 171.064,137.232 174.785,126.222C174.872,125.961 174.96,125.617 175.045,125.23C175.059,125.17 175.072,125.113 175.085,125.051C175.172,124.64 175.257,124.183 175.342,123.668C175.376,123.313 176.489,122.597 176.52,122.264C175.587,117.47 173.437,112.43 171.09,108.582C171.096,108.598 171.101,108.613 171.106,108.629C171.097,108.621 171.067,108.591 171.061,108.585C170.753,108.294 170.432,108.022 170.12,107.736C169.173,106.861 168.209,106.01 167.228,105.182C164.285,102.7 161.191,100.435 157.947,98.437C158.111,101.131 158.216,103.822 158.244,106.51C158.248,106.812 158.24,107.113 158.24,107.414C158.245,108.457 158.248,109.501 158.228,110.544C158.202,111.887 158.155,113.231 158.086,114.573C158.035,115.565 157.972,116.555 157.895,117.546C157.887,117.649 157.875,117.752 157.868,117.855C157.567,121.609 157.092,125.347 156.411,129.036L155.227,134.635C152.754,144.661 147.731,153.755 143.601,163.145C142.506,165.635 141.467,168.153 140.556,170.718C140.473,170.953 140.384,171.2 140.298,171.442C141.588,170.087 142.73,168.915 143.598,168.055C144.545,167.118 145.475,166.197 146.386,165.29" style="fill:rgb(252,176,63);fill-rule:nonzero;"/>
                        <path d="M92.198,219.213C98.207,216.555 103.768,214.886 110.378,213.583C110.34,212.148 110.275,210.717 110.154,209.295C112.985,201.951 115.598,194.56 117.962,187.127C113.747,187.536 109.563,188.186 105.428,189.064C102.361,189.715 99.335,190.533 96.334,191.437C93.923,192.163 91.544,192.997 89.184,193.884L98.515,196.144L91.007,219.71L92.198,219.213" style="fill:rgb(82,83,83);fill-rule:nonzero;"/>
                        <path d="M207.559,149.378C205.92,147.226 204.267,145.08 202.595,142.948C202.509,142.838 202.421,142.729 202.335,142.619C200.572,140.376 198.79,138.148 196.981,135.94C196.958,135.913 196.936,135.886 196.914,135.858C195.053,133.59 193.167,131.344 191.247,129.128C191.126,128.987 191.005,128.844 190.882,128.704C189.709,127.353 188.516,126.02 187.317,124.693C186.902,124.234 186.485,123.775 186.066,123.319C185.072,122.234 184.068,121.16 183.055,120.095C182.266,119.268 181.467,118.453 180.666,117.639C179.912,116.87 179.16,116.098 178.394,115.342C176.748,113.721 175.082,112.12 173.378,110.561C172.624,109.872 171.861,109.194 171.09,108.526C171.086,108.533 171.082,108.542 171.079,108.55C172.701,113.212 174.552,117.932 175.479,122.794C175.72,124.059 175.919,125.289 176.081,126.491C178.341,143.318 172.949,154.305 164.386,168.758C163.771,169.794 163.142,170.848 162.497,171.922C160.539,175.188 159.285,178.279 158.558,181.182C158.316,182.149 158.133,183.096 158.001,184.021C174.794,186.731 200.046,187.236 225.883,174.541C225.883,174.541 220.816,167.094 213.192,156.857C211.487,154.568 209.77,152.282 208.037,150.002C207.879,149.793 207.718,149.585 207.559,149.378" style="fill:rgb(223,0,103);fill-rule:nonzero;"/>
                        <path d="M90.115,223.922L98.515,196.144L89.184,193.884C87.094,194.669 85.023,195.506 82.979,196.416L74.66,223.922L83.947,224.067L90.115,223.922" style="fill:rgb(170,150,120);fill-rule:nonzero;"/>
                        <path d="M96.02,211.904C96.84,212.219 97.674,212.503 98.506,212.794C107.791,216.049 117.765,217.841 128.164,217.841C140.021,217.841 151.33,215.519 161.692,211.343C162.24,211.123 162.777,210.881 163.319,210.65C164.199,210.275 165.073,209.89 165.938,209.489C166.712,209.129 167.486,208.772 168.248,208.391C168.064,208.415 167.88,208.45 167.696,208.47C164.475,208.833 161.277,208.854 158.154,208.405C139.683,205.749 135.591,196.844 136.177,187.568C134.849,186.802 133.493,185.938 132.118,184.94C117.912,174.634 109.48,163.655 109.48,163.655C109.48,163.655 120.439,172.114 136.807,178.445C137.158,178.581 137.487,178.698 137.832,178.829C138.597,176.185 139.502,173.671 140.298,171.442C140.384,171.2 140.473,170.953 140.556,170.718C141.467,168.153 142.506,165.635 143.601,163.145C147.731,153.755 152.754,144.661 155.227,134.635L156.411,129.036L146.309,129.036L146.308,129.037C146.308,129.043 146.309,129.05 146.309,129.057L146.305,129.059C146.305,129.086 146.309,129.113 146.309,129.142C146.309,130.807 145.971,132.393 145.361,133.836C145.056,134.558 144.682,135.243 144.249,135.885C143.382,137.167 142.275,138.275 140.991,139.142C140.35,139.576 139.664,139.949 138.943,140.253C137.5,140.864 135.914,141.202 134.249,141.202C133.826,141.202 133.408,141.179 132.997,141.136C132.9,141.126 132.807,141.105 132.711,141.093C132.395,141.052 132.081,141.009 131.776,140.946C131.69,140.927 131.608,140.9 131.523,140.88C131.209,140.808 130.895,140.73 130.591,140.633C130.535,140.614 130.481,140.591 130.425,140.572C130.096,140.461 129.769,140.342 129.453,140.204C129.424,140.192 129.397,140.177 129.369,140.164C129.028,140.012 128.693,139.848 128.369,139.666L128.354,139.657C127.316,139.071 126.372,138.338 125.552,137.483L90.944,129.036L53.174,129.036C53.012,129.324 52.832,129.6 52.673,129.889C52.385,130.412 52.113,130.943 51.835,131.47C51.151,132.768 50.491,134.078 49.867,135.406C49.647,135.873 49.428,136.341 49.215,136.812C48.454,138.504 47.729,140.212 47.067,141.943C47.037,142.02 47.005,142.096 46.975,142.173C46.222,144.157 45.533,146.165 44.913,148.189C44.118,150.786 43.435,153.411 42.865,156.052C48.811,174.188 60.38,189.772 75.503,200.756C75.943,201.075 76.407,201.359 76.853,201.671C79.411,203.459 82.054,205.132 84.796,206.65C88.396,208.645 92.138,210.414 96.02,211.904" style="fill:white;fill-rule:nonzero;"/>
                        <path d="M186.58,233.374C186.348,230.988 186.204,228.582 186.204,226.15C186.204,224.688 185.019,223.501 183.556,223.501L72.444,223.501C70.981,223.501 69.795,224.688 69.795,226.15C69.795,228.582 69.652,230.988 69.419,233.374C69.161,236.013 68.754,238.617 68.22,241.182C69.831,242.034 71.455,242.863 73.107,243.649C74.193,238.877 74.863,233.974 75.039,228.971C75.042,228.914 75.048,228.856 75.05,228.799L180.95,228.799C180.952,228.856 180.958,228.914 180.96,228.971C181.137,233.974 181.807,238.877 182.893,243.649C184.545,242.863 186.169,242.034 187.78,241.182C187.246,238.617 186.839,236.013 186.58,233.374" style="fill:rgb(139,116,96);fill-rule:nonzero;"/>
                    </g>
                    <g transform="matrix(0.189543,0,0,0.337359,-603.236,-41.8513)">
                        <g>
                            <g transform="matrix(11.2166,0,0,9.86521,472.921,311.096)">
                                <g transform="matrix(16,0,0,16,0,0)">
                                    <path d="M0.04,-0.68C0.07,-0.68 0.09,-0.66 0.09,-0.63L0.09,-0.07C0.09,-0.04 0.07,-0.02 0.04,-0.02L0.04,0L0.26,0L0.26,-0.02C0.23,-0.02 0.21,-0.04 0.21,-0.07L0.21,-0.304C0.21,-0.32 0.221,-0.331 0.237,-0.331L0.355,-0.331C0.422,-0.331 0.467,-0.286 0.467,-0.219L0.487,-0.219L0.487,-0.463L0.467,-0.463C0.467,-0.396 0.422,-0.351 0.355,-0.351L0.237,-0.351C0.221,-0.351 0.21,-0.362 0.21,-0.378L0.21,-0.63C0.21,-0.66 0.23,-0.68 0.26,-0.68L0.442,-0.68C0.551,-0.68 0.623,-0.608 0.623,-0.499L0.623,-0.491L0.643,-0.491L0.643,-0.7L0.04,-0.7L0.04,-0.68Z" style="fill-rule:nonzero;"/>
                                </g>
                                <g transform="matrix(16,0,0,16,10.928,0)">
                                    <path d="M0.04,-0.68C0.07,-0.68 0.09,-0.66 0.09,-0.63L0.09,-0.07C0.09,-0.04 0.07,-0.02 0.04,-0.02L0.04,0L0.26,0L0.26,-0.02C0.23,-0.02 0.21,-0.04 0.21,-0.07L0.21,-0.299C0.21,-0.315 0.221,-0.326 0.237,-0.326L0.326,-0.326C0.418,-0.277 0.483,0 0.624,0L0.753,0L0.753,-0.02C0.633,-0.02 0.543,-0.316 0.444,-0.336C0.736,-0.395 0.703,-0.696 0.345,-0.7L0.04,-0.7L0.04,-0.68ZM0.26,-0.68L0.338,-0.68C0.579,-0.68 0.579,-0.346 0.338,-0.346L0.237,-0.346C0.221,-0.346 0.21,-0.357 0.21,-0.373L0.21,-0.63C0.21,-0.66 0.23,-0.68 0.26,-0.68Z" style="fill-rule:nonzero;"/>
                                </g>
                                <g transform="matrix(16,0,0,16,22.976,0)">
                                    <path d="M0.04,-0.02L0.04,0L0.26,0L0.26,-0.02C0.23,-0.02 0.21,-0.04 0.21,-0.07L0.21,-0.63C0.21,-0.66 0.23,-0.68 0.26,-0.68L0.26,-0.7L0.04,-0.7L0.04,-0.68C0.07,-0.68 0.09,-0.66 0.09,-0.63L0.09,-0.07C0.09,-0.04 0.07,-0.02 0.04,-0.02Z" style="fill-rule:nonzero;"/>
                                </g>
                                <g transform="matrix(16,0,0,16,27.776,0)">
                                    <path d="M0.643,-0.7L0.04,-0.7L0.04,-0.68C0.07,-0.68 0.09,-0.66 0.09,-0.63L0.09,-0.07C0.09,-0.04 0.07,-0.02 0.04,-0.02L0.04,0L0.643,0L0.643,-0.209L0.623,-0.209L0.623,-0.201C0.623,-0.092 0.551,-0.02 0.442,-0.02L0.26,-0.02C0.23,-0.02 0.21,-0.04 0.21,-0.07L0.21,-0.304C0.21,-0.32 0.221,-0.331 0.237,-0.331L0.355,-0.331C0.422,-0.331 0.467,-0.286 0.467,-0.219L0.487,-0.219L0.487,-0.463L0.467,-0.463C0.467,-0.396 0.422,-0.351 0.355,-0.351L0.237,-0.351C0.221,-0.351 0.21,-0.362 0.21,-0.378L0.21,-0.63C0.21,-0.66 0.23,-0.68 0.26,-0.68L0.442,-0.68C0.551,-0.68 0.623,-0.608 0.623,-0.499L0.623,-0.491L0.643,-0.491L0.643,-0.7Z" style="fill-rule:nonzero;"/>
                                </g>
                                <g transform="matrix(16,0,0,16,38.704,0)">
                                    <path d="M0.155,0L0.155,-0.02C0.125,-0.02 0.105,-0.04 0.105,-0.07L0.105,-0.624L0.596,0L0.641,0L0.641,-0.63C0.641,-0.66 0.661,-0.68 0.691,-0.68L0.691,-0.7L0.571,-0.7L0.571,-0.68C0.601,-0.68 0.621,-0.66 0.621,-0.63L0.621,-0.159L0.195,-0.7L0.035,-0.7L0.035,-0.68C0.051,-0.68 0.064,-0.674 0.073,-0.664L0.076,-0.661C0.082,-0.652 0.085,-0.642 0.085,-0.63L0.085,-0.07C0.085,-0.04 0.065,-0.02 0.035,-0.02L0.035,0L0.155,0Z" style="fill-rule:nonzero;"/>
                                </g>
                                <g transform="matrix(16,0,0,16,50.32,0)">
                                    <path d="M0.04,0L0.326,0C0.791,0 0.794,-0.692 0.334,-0.7L0.04,-0.7L0.04,-0.68C0.07,-0.68 0.09,-0.66 0.09,-0.63L0.09,-0.07C0.09,-0.04 0.07,-0.02 0.04,-0.02L0.04,0ZM0.26,-0.68L0.327,-0.68C0.629,-0.68 0.629,-0.02 0.327,-0.02L0.26,-0.02C0.23,-0.02 0.21,-0.04 0.21,-0.07L0.21,-0.63C0.21,-0.66 0.23,-0.68 0.26,-0.68Z" style="fill-rule:nonzero;"/>
                                </g>
                                <g transform="matrix(16,0,0,16,61.952,0)">
                                    <path d="M0.545,-0.667C0.543,-0.669 0.541,-0.67 0.541,-0.67L0.54,-0.67C0.478,-0.704 0.403,-0.72 0.331,-0.72C0.181,-0.72 0.04,-0.648 0.04,-0.501C0.04,-0.218 0.632,-0.332 0.632,-0.128C0.632,-0.054 0.515,0 0.387,0C0.253,0 0.106,-0.06 0.069,-0.22L0.056,-0.22L0.056,-0.014L0.063,-0.014C0.07,-0.031 0.077,-0.058 0.109,-0.058C0.127,-0.058 0.148,-0.048 0.163,-0.04C0.168,-0.037 0.173,-0.034 0.179,-0.031C0.181,-0.029 0.183,-0.028 0.183,-0.028L0.184,-0.028C0.246,0.006 0.321,0.022 0.393,0.022C0.543,0.022 0.684,-0.05 0.684,-0.197C0.684,-0.48 0.092,-0.378 0.092,-0.57C0.092,-0.644 0.209,-0.698 0.337,-0.698C0.471,-0.698 0.618,-0.638 0.655,-0.478L0.668,-0.478L0.668,-0.684L0.661,-0.684C0.654,-0.667 0.647,-0.64 0.615,-0.64C0.597,-0.64 0.576,-0.65 0.561,-0.658C0.556,-0.661 0.551,-0.664 0.545,-0.667Z" style="fill-rule:nonzero;"/>
                                </g>
                            </g>
                            <g transform="matrix(44.4674,0,0,22.8379,1311.91,391.132)">
                                <g transform="matrix(18.071,0,0,18.071,0,0)">
                                    <path d="M0.141,-0.268C0.139,-0.276 0.134,-0.277 0.128,-0.277C0.108,-0.277 0.106,-0.278 0.086,-0.279C0.078,-0.279 0.07,-0.28 0.063,-0.288C0.062,-0.296 0.059,-0.304 0.058,-0.31C0.053,-0.316 0.048,-0.318 0.043,-0.318C0.037,-0.318 0.032,-0.316 0.027,-0.316C0.024,-0.316 0.022,-0.316 0.02,-0.317C-0.004,-0.286 -0.014,-0.244 -0.019,-0.206C-0.02,-0.198 -0.019,-0.191 -0.016,-0.183C-0.011,-0.174 -0.007,-0.172 0.003,-0.172C0.012,-0.173 0.021,-0.176 0.03,-0.181C0.032,-0.186 0.034,-0.191 0.038,-0.196C0.048,-0.21 0.055,-0.225 0.056,-0.243C0.055,-0.25 0.058,-0.256 0.059,-0.262C0.071,-0.26 0.083,-0.256 0.094,-0.255C0.105,-0.255 0.099,-0.256 0.11,-0.257C0.121,-0.259 0.134,-0.257 0.141,-0.268ZM0.041,-0.269C0.04,-0.255 0.026,-0.207 0.014,-0.199C0.012,-0.197 0.009,-0.194 0.006,-0.193C0,-0.2 0.001,-0.207 0.002,-0.214C0.007,-0.243 0.017,-0.267 0.028,-0.294C0.033,-0.284 0.037,-0.276 0.041,-0.269Z" style="fill-rule:nonzero;"/>
                                </g>
                                <g transform="matrix(18.071,0,0,18.071,2.31309,0)">
                                    <path d="M-0.038,0.069C-0.031,0.071 -0.026,0.072 -0.022,0.072C-0.006,0.072 0.001,0.037 0.003,0.025C0.008,0.004 0.011,-0.018 0.015,-0.039C0.018,-0.052 0.023,-0.064 0.024,-0.077C0.026,-0.108 0.037,-0.138 0.033,-0.17C0.032,-0.171 0.033,-0.171 0.033,-0.172C0.036,-0.186 0.033,-0.199 0.029,-0.212C0.026,-0.219 0.025,-0.225 0.024,-0.231C0.022,-0.242 0.023,-0.244 0.035,-0.252C0.041,-0.25 0.048,-0.249 0.055,-0.249C0.059,-0.249 0.063,-0.25 0.067,-0.25C0.1,-0.252 0.133,-0.262 0.163,-0.275C0.165,-0.276 0.166,-0.279 0.169,-0.281C0.166,-0.284 0.163,-0.284 0.16,-0.284C0.157,-0.284 0.154,-0.284 0.151,-0.283C0.131,-0.278 0.111,-0.271 0.09,-0.271C0.087,-0.271 0.084,-0.27 0.081,-0.269C0.071,-0.266 0.061,-0.266 0.051,-0.266L0.036,-0.266C0.035,-0.266 0.034,-0.268 0.031,-0.271C0.042,-0.281 0.04,-0.296 0.046,-0.309C0.054,-0.325 0.059,-0.342 0.062,-0.358C0.064,-0.366 0.071,-0.37 0.072,-0.377C0.074,-0.392 0.08,-0.405 0.086,-0.418C0.096,-0.443 0.106,-0.469 0.116,-0.495C0.12,-0.505 0.122,-0.516 0.128,-0.525C0.132,-0.531 0.136,-0.536 0.133,-0.544C0.13,-0.545 0.127,-0.546 0.125,-0.546C0.123,-0.546 0.122,-0.546 0.121,-0.545C0.118,-0.544 0.115,-0.54 0.113,-0.536C0.106,-0.519 0.098,-0.502 0.091,-0.484C0.077,-0.452 0.063,-0.419 0.051,-0.386C0.046,-0.374 0.045,-0.361 0.04,-0.351C0.033,-0.339 0.029,-0.327 0.025,-0.315C0.02,-0.301 0.015,-0.287 0.01,-0.272C0.001,-0.273 -0.007,-0.274 -0.015,-0.275C-0.016,-0.273 -0.018,-0.272 -0.019,-0.27L-0.019,-0.264C-0.013,-0.256 -0.007,-0.248 0,-0.24C-0.002,-0.23 -0.003,-0.222 -0.006,-0.213C-0.016,-0.186 -0.022,-0.158 -0.027,-0.129C-0.03,-0.113 -0.033,-0.097 -0.037,-0.081C-0.042,-0.052 -0.046,-0.023 -0.046,0.006C-0.046,0.011 -0.046,0.016 -0.047,0.021C-0.051,0.038 -0.044,0.053 -0.038,0.069L-0.038,0.069ZM-0.02,0.047C-0.025,0.046 -0.028,0.043 -0.027,0.04C-0.024,0.032 -0.026,0.025 -0.026,0.018C-0.025,0.003 -0.024,-0.012 -0.022,-0.027C-0.019,-0.05 -0.015,-0.072 -0.014,-0.095C-0.013,-0.106 -0.01,-0.116 -0.007,-0.127C-0.001,-0.155 0.006,-0.183 0.013,-0.212C0.021,-0.197 0.017,-0.181 0.023,-0.169C0.012,-0.095 0.002,-0.022 -0.02,0.047Z" style="fill-rule:nonzero;"/>
                                </g>
                            </g>
                            <g transform="matrix(11.2166,0,0,9.86521,-3.57798,-396.881)">
                                <g>
                                    <g transform="matrix(1,0,0,1,137.392,71.765)">
                                        <g transform="matrix(16,0,0,16,0,0)">
                                            <path d="M0.26,0L0.26,-0.02C0.23,-0.02 0.21,-0.04 0.21,-0.07L0.21,-0.265C0.21,-0.281 0.221,-0.292 0.237,-0.292L0.339,-0.292C0.74,-0.293 0.743,-0.695 0.346,-0.7L0.04,-0.7L0.04,-0.68C0.07,-0.68 0.09,-0.66 0.09,-0.63L0.09,-0.07C0.09,-0.04 0.07,-0.02 0.04,-0.02L0.04,0L0.26,0ZM0.26,-0.68L0.339,-0.68C0.577,-0.68 0.577,-0.312 0.339,-0.312L0.237,-0.312C0.221,-0.312 0.21,-0.323 0.21,-0.339L0.21,-0.63C0.21,-0.66 0.23,-0.68 0.26,-0.68Z" style="fill-rule:nonzero;"/>
                                        </g>
                                        <g transform="matrix(16,0,0,16,10.912,0)">
                                            <path d="M0.04,-0.68C0.07,-0.68 0.09,-0.66 0.09,-0.63L0.09,-0.07C0.09,-0.04 0.07,-0.02 0.04,-0.02L0.04,0L0.26,0L0.26,-0.02C0.23,-0.02 0.21,-0.04 0.21,-0.07L0.21,-0.299C0.21,-0.315 0.221,-0.326 0.237,-0.326L0.326,-0.326C0.418,-0.277 0.483,0 0.624,0L0.753,0L0.753,-0.02C0.633,-0.02 0.543,-0.316 0.444,-0.336C0.736,-0.395 0.703,-0.696 0.345,-0.7L0.04,-0.7L0.04,-0.68ZM0.26,-0.68L0.338,-0.68C0.579,-0.68 0.579,-0.346 0.338,-0.346L0.237,-0.346C0.221,-0.346 0.21,-0.357 0.21,-0.373L0.21,-0.63C0.21,-0.66 0.23,-0.68 0.26,-0.68Z" style="fill-rule:nonzero;"/>
                                        </g>
                                        <g transform="matrix(16,0,0,16,22.96,0)">
                                            <path d="M0.643,-0.7L0.04,-0.7L0.04,-0.68C0.07,-0.68 0.09,-0.66 0.09,-0.63L0.09,-0.07C0.09,-0.04 0.07,-0.02 0.04,-0.02L0.04,0L0.643,0L0.643,-0.209L0.623,-0.209L0.623,-0.201C0.623,-0.092 0.551,-0.02 0.442,-0.02L0.26,-0.02C0.23,-0.02 0.21,-0.04 0.21,-0.07L0.21,-0.304C0.21,-0.32 0.221,-0.331 0.237,-0.331L0.355,-0.331C0.422,-0.331 0.467,-0.286 0.467,-0.219L0.487,-0.219L0.487,-0.463L0.467,-0.463C0.467,-0.396 0.422,-0.351 0.355,-0.351L0.237,-0.351C0.221,-0.351 0.21,-0.362 0.21,-0.378L0.21,-0.63C0.21,-0.66 0.23,-0.68 0.26,-0.68L0.442,-0.68C0.551,-0.68 0.623,-0.608 0.623,-0.499L0.623,-0.491L0.643,-0.491L0.643,-0.7Z" style="fill-rule:nonzero;"/>
                                        </g>
                                        <g transform="matrix(16,0,0,16,33.888,0)">
                                            <path d="M0.545,-0.667C0.543,-0.669 0.541,-0.67 0.541,-0.67L0.54,-0.67C0.478,-0.704 0.403,-0.72 0.331,-0.72C0.181,-0.72 0.04,-0.648 0.04,-0.501C0.04,-0.218 0.632,-0.332 0.632,-0.128C0.632,-0.054 0.515,0 0.387,0C0.253,0 0.106,-0.06 0.069,-0.22L0.056,-0.22L0.056,-0.014L0.063,-0.014C0.07,-0.031 0.077,-0.058 0.109,-0.058C0.127,-0.058 0.148,-0.048 0.163,-0.04C0.168,-0.037 0.173,-0.034 0.179,-0.031C0.181,-0.029 0.183,-0.028 0.183,-0.028L0.184,-0.028C0.246,0.006 0.321,0.022 0.393,0.022C0.543,0.022 0.684,-0.05 0.684,-0.197C0.684,-0.48 0.092,-0.378 0.092,-0.57C0.092,-0.644 0.209,-0.698 0.337,-0.698C0.471,-0.698 0.618,-0.638 0.655,-0.478L0.668,-0.478L0.668,-0.684L0.661,-0.684C0.654,-0.667 0.647,-0.64 0.615,-0.64C0.597,-0.64 0.576,-0.65 0.561,-0.658C0.556,-0.661 0.551,-0.664 0.545,-0.667Z" style="fill-rule:nonzero;"/>
                                        </g>
                                        <g transform="matrix(16,0,0,16,45.472,0)">
                                            <path d="M0.02,-0.491L0.04,-0.491L0.04,-0.499C0.04,-0.608 0.112,-0.68 0.221,-0.68L0.25,-0.68C0.28,-0.68 0.3,-0.66 0.3,-0.63L0.3,-0.07C0.3,-0.04 0.28,-0.02 0.25,-0.02L0.25,0L0.47,0L0.47,-0.02C0.44,-0.02 0.42,-0.04 0.42,-0.07L0.42,-0.63C0.42,-0.66 0.44,-0.68 0.47,-0.68L0.499,-0.68C0.608,-0.68 0.68,-0.608 0.68,-0.499L0.68,-0.491L0.7,-0.491L0.7,-0.7L0.02,-0.7L0.02,-0.491Z" style="fill-rule:nonzero;"/>
                                        </g>
                                    </g>
                                    <g transform="matrix(1,0,0,1,192.56,71.765)">
                                        <g transform="matrix(16,0,0,16,0,0)">
                                            <path d="M0.01,0L0.13,0L0.13,-0.02C0.1,-0.02 0.088,-0.038 0.1,-0.066L0.143,-0.167C0.151,-0.178 0.165,-0.186 0.179,-0.186L0.418,-0.186C0.432,-0.186 0.446,-0.178 0.454,-0.167L0.497,-0.066C0.509,-0.038 0.497,-0.02 0.467,-0.02L0.467,0L0.711,0L0.711,-0.02C0.681,-0.02 0.653,-0.038 0.641,-0.066L0.365,-0.708L0.356,-0.708L0.08,-0.066C0.068,-0.038 0.04,-0.02 0.01,-0.02L0.01,0ZM0.299,-0.528L0.426,-0.232L0.426,-0.231C0.433,-0.216 0.426,-0.206 0.41,-0.206L0.187,-0.206C0.171,-0.206 0.164,-0.216 0.171,-0.231L0.171,-0.232L0.299,-0.528Z" style="fill-rule:nonzero;"/>
                                        </g>
                                    </g>
                                </g>
                            </g>
                        </g>
                    </g>
                    <g transform="matrix(1.79469,0,0,2.12801,-785.542,-141.228)">
                        <g>
                            <g transform="matrix(1,0,0,1,137.392,71.765)">
                                <g transform="matrix(22.588,0,0,22.588,0,0)">
                                    <path d="M0.525,-0.138L0.503,0L0.06,0L0.07,-0.15L0.07,-0.605L0.06,-0.75L0.515,-0.75L0.493,-0.612L0.214,-0.612L0.214,-0.455L0.468,-0.455L0.446,-0.317L0.214,-0.317L0.214,-0.138L0.525,-0.138Z" style="fill:rgb(96,180,216);fill-rule:nonzero;"/>
                                </g>
                            </g>
                            <g transform="matrix(1,0,0,1,149.477,71.765)">
                                <g transform="matrix(22.588,0,0,22.588,0,0)">
                                    <path d="M0.287,0.016C0.202,0.016 0.139,-0.01 0.099,-0.063C0.059,-0.115 0.039,-0.192 0.039,-0.295C0.039,-0.396 0.06,-0.474 0.102,-0.529C0.143,-0.584 0.205,-0.612 0.287,-0.612C0.332,-0.612 0.368,-0.609 0.393,-0.602C0.418,-0.595 0.442,-0.582 0.465,-0.564L0.443,-0.439L0.427,-0.432C0.412,-0.447 0.395,-0.458 0.377,-0.465C0.359,-0.471 0.334,-0.474 0.302,-0.474C0.259,-0.474 0.228,-0.46 0.21,-0.433C0.192,-0.405 0.183,-0.359 0.183,-0.295C0.183,-0.249 0.187,-0.214 0.194,-0.19C0.201,-0.166 0.215,-0.149 0.234,-0.139C0.253,-0.129 0.28,-0.124 0.317,-0.124C0.352,-0.124 0.379,-0.127 0.4,-0.134C0.421,-0.141 0.439,-0.152 0.455,-0.167L0.472,-0.159L0.441,-0.036C0.415,-0.015 0.392,-0.002 0.372,0.005C0.351,0.012 0.323,0.016 0.287,0.016Z" style="fill:rgb(96,180,216);fill-rule:nonzero;"/>
                                </g>
                                <g transform="matrix(22.588,0,0,22.588,11.0455,0)">
                                    <path d="M0.297,0.016C0.207,0.016 0.141,-0.011 0.101,-0.064C0.059,-0.117 0.039,-0.196 0.039,-0.301C0.039,-0.406 0.059,-0.484 0.101,-0.537C0.141,-0.59 0.207,-0.616 0.297,-0.616C0.387,-0.616 0.453,-0.59 0.494,-0.537C0.535,-0.484 0.555,-0.406 0.555,-0.301C0.555,-0.196 0.535,-0.117 0.494,-0.064C0.453,-0.011 0.387,0.016 0.297,0.016ZM0.297,-0.122C0.328,-0.122 0.352,-0.127 0.368,-0.138C0.384,-0.148 0.395,-0.166 0.402,-0.191C0.408,-0.216 0.411,-0.252 0.411,-0.3C0.411,-0.348 0.408,-0.385 0.402,-0.409C0.395,-0.435 0.384,-0.452 0.368,-0.463C0.352,-0.473 0.328,-0.478 0.297,-0.478C0.266,-0.478 0.242,-0.473 0.226,-0.463C0.21,-0.452 0.199,-0.435 0.193,-0.409C0.186,-0.385 0.183,-0.348 0.183,-0.3C0.183,-0.252 0.186,-0.216 0.193,-0.191C0.199,-0.166 0.21,-0.148 0.226,-0.138C0.242,-0.127 0.266,-0.122 0.297,-0.122Z" style="fill:rgb(96,180,216);fill-rule:nonzero;"/>
                                </g>
                                <g transform="matrix(22.588,0,0,22.588,24.4628,0)">
                                    <path d="M0.655,-0.15L0.655,-0.407C0.655,-0.429 0.649,-0.447 0.636,-0.46C0.624,-0.472 0.608,-0.479 0.587,-0.479C0.554,-0.479 0.525,-0.465 0.5,-0.437L0.5,-0.15L0.51,0L0.35,0L0.36,-0.15L0.36,-0.407C0.36,-0.429 0.354,-0.447 0.342,-0.46C0.329,-0.472 0.313,-0.479 0.292,-0.479C0.259,-0.479 0.23,-0.465 0.205,-0.437L0.205,-0.15L0.215,0L0.055,0L0.065,-0.15L0.065,-0.455L0.055,-0.6L0.185,-0.6L0.201,-0.54C0.238,-0.585 0.287,-0.607 0.349,-0.607C0.381,-0.607 0.409,-0.6 0.432,-0.586C0.455,-0.572 0.473,-0.551 0.484,-0.524C0.521,-0.579 0.575,-0.607 0.644,-0.607C0.691,-0.607 0.728,-0.592 0.754,-0.563C0.782,-0.534 0.795,-0.491 0.795,-0.434L0.795,-0.15L0.805,0L0.645,0L0.655,-0.15Z" style="fill:rgb(96,180,216);fill-rule:nonzero;"/>
                                </g>
                                <g transform="matrix(22.588,0,0,22.588,43.7304,0)">
                                    <path d="M0.655,-0.15L0.655,-0.407C0.655,-0.429 0.649,-0.447 0.636,-0.46C0.624,-0.472 0.608,-0.479 0.587,-0.479C0.554,-0.479 0.525,-0.465 0.5,-0.437L0.5,-0.15L0.51,0L0.35,0L0.36,-0.15L0.36,-0.407C0.36,-0.429 0.354,-0.447 0.342,-0.46C0.329,-0.472 0.313,-0.479 0.292,-0.479C0.259,-0.479 0.23,-0.465 0.205,-0.437L0.205,-0.15L0.215,0L0.055,0L0.065,-0.15L0.065,-0.455L0.055,-0.6L0.185,-0.6L0.201,-0.54C0.238,-0.585 0.287,-0.607 0.349,-0.607C0.381,-0.607 0.409,-0.6 0.432,-0.586C0.455,-0.572 0.473,-0.551 0.484,-0.524C0.521,-0.579 0.575,-0.607 0.644,-0.607C0.691,-0.607 0.728,-0.592 0.754,-0.563C0.782,-0.534 0.795,-0.491 0.795,-0.434L0.795,-0.15L0.805,0L0.645,0L0.655,-0.15Z" style="fill:rgb(96,180,216);fill-rule:nonzero;"/>
                                </g>
                                <g transform="matrix(22.588,0,0,22.588,62.9979,0)">
                                    <path d="M0.297,0.012C0.208,0.012 0.142,-0.014 0.101,-0.067C0.06,-0.12 0.039,-0.198 0.039,-0.301C0.039,-0.402 0.061,-0.479 0.105,-0.534C0.148,-0.589 0.212,-0.616 0.297,-0.616C0.38,-0.616 0.442,-0.595 0.483,-0.553C0.523,-0.511 0.546,-0.445 0.553,-0.354L0.526,-0.249L0.185,-0.249C0.188,-0.216 0.194,-0.191 0.204,-0.174C0.214,-0.157 0.229,-0.145 0.248,-0.138C0.267,-0.131 0.293,-0.128 0.327,-0.128C0.372,-0.128 0.411,-0.132 0.447,-0.14C0.482,-0.148 0.505,-0.158 0.518,-0.171L0.535,-0.162L0.504,-0.04C0.479,-0.021 0.45,-0.007 0.418,0C0.386,0.008 0.346,0.012 0.297,0.012ZM0.411,-0.354C0.411,-0.396 0.402,-0.427 0.384,-0.448C0.366,-0.468 0.338,-0.478 0.301,-0.478C0.262,-0.478 0.233,-0.469 0.216,-0.451C0.198,-0.432 0.187,-0.4 0.184,-0.354L0.411,-0.354Z" style="fill:rgb(96,180,216);fill-rule:nonzero;"/>
                                </g>
                                <g transform="matrix(22.588,0,0,22.588,76.1441,0)">
                                    <path d="M0.338,-0.607C0.379,-0.607 0.41,-0.602 0.432,-0.593L0.409,-0.47L0.396,-0.461C0.375,-0.474 0.346,-0.481 0.307,-0.481C0.286,-0.481 0.267,-0.477 0.251,-0.468C0.234,-0.459 0.219,-0.445 0.205,-0.426L0.205,-0.15L0.215,0L0.055,0L0.065,-0.15L0.065,-0.455L0.055,-0.6L0.185,-0.6L0.202,-0.537C0.236,-0.584 0.281,-0.607 0.338,-0.607Z" style="fill:rgb(96,180,216);fill-rule:nonzero;"/>
                                </g>
                            </g>
                            <g transform="matrix(1,0,0,1,235.314,71.765)">
                                <g transform="matrix(22.588,0,0,22.588,0,0)">
                                    <path d="M0.287,0.016C0.202,0.016 0.139,-0.01 0.099,-0.063C0.059,-0.115 0.039,-0.192 0.039,-0.295C0.039,-0.396 0.06,-0.474 0.102,-0.529C0.143,-0.584 0.205,-0.612 0.287,-0.612C0.332,-0.612 0.368,-0.609 0.393,-0.602C0.418,-0.595 0.442,-0.582 0.465,-0.564L0.443,-0.439L0.427,-0.432C0.412,-0.447 0.395,-0.458 0.377,-0.465C0.359,-0.471 0.334,-0.474 0.302,-0.474C0.259,-0.474 0.228,-0.46 0.21,-0.433C0.192,-0.405 0.183,-0.359 0.183,-0.295C0.183,-0.249 0.187,-0.214 0.194,-0.19C0.201,-0.166 0.215,-0.149 0.234,-0.139C0.253,-0.129 0.28,-0.124 0.317,-0.124C0.352,-0.124 0.379,-0.127 0.4,-0.134C0.421,-0.141 0.439,-0.152 0.455,-0.167L0.472,-0.159L0.441,-0.036C0.415,-0.015 0.392,-0.002 0.372,0.005C0.351,0.012 0.323,0.016 0.287,0.016Z" style="fill:rgb(96,180,216);fill-rule:nonzero;"/>
                                </g>
                                <g transform="matrix(22.588,0,0,22.588,11.0455,0)">
                                    <path d="M0.297,0.012C0.208,0.012 0.142,-0.014 0.101,-0.067C0.06,-0.12 0.039,-0.198 0.039,-0.301C0.039,-0.402 0.061,-0.479 0.105,-0.534C0.148,-0.589 0.212,-0.616 0.297,-0.616C0.38,-0.616 0.442,-0.595 0.483,-0.553C0.523,-0.511 0.546,-0.445 0.553,-0.354L0.526,-0.249L0.185,-0.249C0.188,-0.216 0.194,-0.191 0.204,-0.174C0.214,-0.157 0.229,-0.145 0.248,-0.138C0.267,-0.131 0.293,-0.128 0.327,-0.128C0.372,-0.128 0.411,-0.132 0.447,-0.14C0.482,-0.148 0.505,-0.158 0.518,-0.171L0.535,-0.162L0.504,-0.04C0.479,-0.021 0.45,-0.007 0.418,0C0.386,0.008 0.346,0.012 0.297,0.012ZM0.411,-0.354C0.411,-0.396 0.402,-0.427 0.384,-0.448C0.366,-0.468 0.338,-0.478 0.301,-0.478C0.262,-0.478 0.233,-0.469 0.216,-0.451C0.198,-0.432 0.187,-0.4 0.184,-0.354L0.411,-0.354Z" style="fill:rgb(96,180,216);fill-rule:nonzero;"/>
                                </g>
                                <g transform="matrix(22.588,0,0,22.588,24.1917,0)">
                                    <path d="M0.286,0.011C0.241,0.011 0.199,0.003 0.158,-0.014C0.117,-0.03 0.081,-0.053 0.051,-0.084L0.03,-0.225L0.044,-0.229C0.081,-0.197 0.119,-0.172 0.157,-0.156C0.195,-0.139 0.232,-0.13 0.267,-0.13C0.309,-0.13 0.342,-0.137 0.365,-0.15C0.388,-0.163 0.399,-0.181 0.399,-0.205C0.399,-0.228 0.388,-0.246 0.367,-0.261C0.345,-0.275 0.306,-0.29 0.25,-0.307C0.197,-0.322 0.156,-0.339 0.126,-0.358C0.096,-0.377 0.074,-0.4 0.061,-0.428C0.048,-0.456 0.041,-0.492 0.041,-0.537C0.041,-0.607 0.064,-0.662 0.11,-0.701C0.155,-0.74 0.215,-0.76 0.29,-0.76C0.335,-0.76 0.379,-0.753 0.421,-0.739C0.463,-0.725 0.497,-0.706 0.523,-0.683L0.501,-0.548L0.486,-0.544C0.472,-0.566 0.448,-0.584 0.413,-0.598C0.379,-0.612 0.342,-0.619 0.303,-0.619C0.267,-0.619 0.239,-0.613 0.22,-0.6C0.201,-0.587 0.191,-0.569 0.191,-0.544C0.191,-0.519 0.201,-0.499 0.22,-0.486C0.238,-0.472 0.273,-0.458 0.323,-0.444C0.38,-0.428 0.425,-0.411 0.457,-0.393C0.489,-0.374 0.512,-0.351 0.527,-0.324C0.542,-0.297 0.549,-0.262 0.549,-0.219C0.549,-0.146 0.525,-0.09 0.477,-0.05C0.429,-0.009 0.365,0.011 0.286,0.011Z" style="fill:rgb(96,180,216);fill-rule:nonzero;"/>
                                </g>
                                <g transform="matrix(22.588,0,0,22.588,37.2702,0)">
                                    <path d="M0.297,0.016C0.207,0.016 0.141,-0.011 0.101,-0.064C0.059,-0.117 0.039,-0.196 0.039,-0.301C0.039,-0.406 0.059,-0.484 0.101,-0.537C0.141,-0.59 0.207,-0.616 0.297,-0.616C0.387,-0.616 0.453,-0.59 0.494,-0.537C0.535,-0.484 0.555,-0.406 0.555,-0.301C0.555,-0.196 0.535,-0.117 0.494,-0.064C0.453,-0.011 0.387,0.016 0.297,0.016ZM0.297,-0.122C0.328,-0.122 0.352,-0.127 0.368,-0.138C0.384,-0.148 0.395,-0.166 0.402,-0.191C0.408,-0.216 0.411,-0.252 0.411,-0.3C0.411,-0.348 0.408,-0.385 0.402,-0.409C0.395,-0.435 0.384,-0.452 0.368,-0.463C0.352,-0.473 0.328,-0.478 0.297,-0.478C0.266,-0.478 0.242,-0.473 0.226,-0.463C0.21,-0.452 0.199,-0.435 0.193,-0.409C0.186,-0.385 0.183,-0.348 0.183,-0.3C0.183,-0.252 0.186,-0.216 0.193,-0.191C0.199,-0.166 0.21,-0.148 0.226,-0.138C0.242,-0.127 0.266,-0.122 0.297,-0.122Z" style="fill:rgb(96,180,216);fill-rule:nonzero;"/>
                                </g>
                                <g transform="matrix(22.588,0,0,22.588,50.6875,0)">
                                    <path d="M0.065,-0.15L0.065,-0.655L0.055,-0.8L0.215,-0.8L0.205,-0.655L0.205,-0.15L0.215,0L0.055,0L0.065,-0.15Z" style="fill:rgb(96,180,216);fill-rule:nonzero;"/>
                                </g>
                                <g transform="matrix(22.588,0,0,22.588,56.7862,0)">
                                    <path d="M0.134,-0.655C0.109,-0.655 0.087,-0.662 0.07,-0.677C0.052,-0.691 0.043,-0.709 0.043,-0.732C0.043,-0.755 0.052,-0.774 0.07,-0.789C0.087,-0.803 0.109,-0.81 0.134,-0.81C0.159,-0.81 0.181,-0.803 0.199,-0.789C0.216,-0.774 0.225,-0.755 0.225,-0.732C0.225,-0.709 0.216,-0.691 0.199,-0.677C0.181,-0.662 0.159,-0.655 0.134,-0.655ZM0.063,-0.15L0.063,-0.455L0.053,-0.6L0.213,-0.6L0.203,-0.455L0.203,-0.15L0.213,0L0.053,0L0.063,-0.15Z" style="fill:rgb(96,180,216);fill-rule:nonzero;"/>
                                </g>
                                <g transform="matrix(22.588,0,0,22.588,62.8398,0)">
                                    <path d="M0.525,-0.149L0.535,0L0.388,0L0.385,-0.054C0.372,-0.036 0.354,-0.021 0.329,-0.01C0.304,0.002 0.28,0.008 0.257,0.008C0.187,0.008 0.133,-0.019 0.096,-0.071C0.058,-0.125 0.039,-0.201 0.039,-0.301C0.039,-0.407 0.057,-0.485 0.092,-0.536C0.127,-0.587 0.178,-0.612 0.247,-0.612C0.274,-0.612 0.3,-0.609 0.324,-0.603C0.348,-0.597 0.368,-0.589 0.385,-0.578L0.385,-0.655L0.375,-0.8L0.535,-0.8L0.525,-0.655L0.525,-0.149ZM0.385,-0.461C0.363,-0.47 0.33,-0.474 0.287,-0.474C0.259,-0.474 0.238,-0.469 0.223,-0.46C0.208,-0.451 0.198,-0.434 0.192,-0.409C0.186,-0.385 0.183,-0.349 0.183,-0.301C0.183,-0.255 0.186,-0.22 0.192,-0.195C0.197,-0.17 0.207,-0.153 0.22,-0.142C0.233,-0.132 0.252,-0.127 0.277,-0.127C0.296,-0.127 0.316,-0.13 0.337,-0.136C0.358,-0.141 0.374,-0.148 0.385,-0.156L0.385,-0.461Z" style="fill:rgb(96,180,216);fill-rule:nonzero;"/>
                                </g>
                                <g transform="matrix(22.588,0,0,22.588,76.1667,0)">
                                    <path d="M0.033,-0.167C0.033,-0.205 0.042,-0.239 0.061,-0.271C0.079,-0.302 0.103,-0.326 0.134,-0.344C0.164,-0.362 0.197,-0.371 0.232,-0.371C0.293,-0.371 0.341,-0.362 0.375,-0.344L0.375,-0.397C0.375,-0.422 0.365,-0.442 0.344,-0.456C0.324,-0.47 0.296,-0.477 0.259,-0.477C0.22,-0.477 0.185,-0.471 0.155,-0.458C0.124,-0.445 0.101,-0.426 0.085,-0.401L0.074,-0.403L0.092,-0.551C0.115,-0.571 0.143,-0.587 0.177,-0.598C0.21,-0.609 0.244,-0.614 0.279,-0.614C0.351,-0.614 0.408,-0.597 0.451,-0.563C0.494,-0.529 0.515,-0.483 0.515,-0.424L0.515,-0.149L0.525,0L0.378,0L0.375,-0.055C0.362,-0.034 0.341,-0.017 0.313,-0.004C0.284,0.009 0.253,0.016 0.219,0.016C0.162,0.016 0.117,0 0.084,-0.033C0.05,-0.066 0.033,-0.11 0.033,-0.167ZM0.177,-0.176C0.177,-0.153 0.183,-0.136 0.195,-0.124C0.206,-0.111 0.223,-0.105 0.246,-0.105C0.271,-0.105 0.294,-0.11 0.317,-0.119C0.339,-0.129 0.358,-0.143 0.375,-0.161L0.375,-0.229C0.338,-0.247 0.296,-0.256 0.249,-0.256C0.224,-0.256 0.206,-0.249 0.195,-0.236C0.183,-0.223 0.177,-0.203 0.177,-0.176Z" style="fill:rgb(96,180,216);fill-rule:nonzero;"/>
                                </g>
                                <g transform="matrix(22.588,0,0,22.588,89.1097,0)">
                                    <path d="M0.134,-0.655C0.109,-0.655 0.087,-0.662 0.07,-0.677C0.052,-0.691 0.043,-0.709 0.043,-0.732C0.043,-0.755 0.052,-0.774 0.07,-0.789C0.087,-0.803 0.109,-0.81 0.134,-0.81C0.159,-0.81 0.181,-0.803 0.199,-0.789C0.216,-0.774 0.225,-0.755 0.225,-0.732C0.225,-0.709 0.216,-0.691 0.199,-0.677C0.181,-0.662 0.159,-0.655 0.134,-0.655ZM0.063,-0.15L0.063,-0.455L0.053,-0.6L0.213,-0.6L0.203,-0.455L0.203,-0.15L0.213,0L0.053,0L0.063,-0.15Z" style="fill:rgb(96,180,216);fill-rule:nonzero;"/>
                                </g>
                                <g transform="matrix(22.588,0,0,22.588,95.1632,0)">
                                    <path d="M0.338,-0.607C0.379,-0.607 0.41,-0.602 0.432,-0.593L0.409,-0.47L0.396,-0.461C0.375,-0.474 0.346,-0.481 0.307,-0.481C0.286,-0.481 0.267,-0.477 0.251,-0.468C0.234,-0.459 0.219,-0.445 0.205,-0.426L0.205,-0.15L0.215,0L0.055,0L0.065,-0.15L0.065,-0.455L0.055,-0.6L0.185,-0.6L0.202,-0.537C0.236,-0.584 0.281,-0.607 0.338,-0.607Z" style="fill:rgb(96,180,216);fill-rule:nonzero;"/>
                                </g>
                            </g>
                            <g transform="matrix(1,0,0,1,340.169,71.765)">
                                <g transform="matrix(22.588,0,0,22.588,0,0)">
                                    <path d="M0.297,0.012C0.208,0.012 0.142,-0.014 0.101,-0.067C0.06,-0.12 0.039,-0.198 0.039,-0.301C0.039,-0.402 0.061,-0.479 0.105,-0.534C0.148,-0.589 0.212,-0.616 0.297,-0.616C0.38,-0.616 0.442,-0.595 0.483,-0.553C0.523,-0.511 0.546,-0.445 0.553,-0.354L0.526,-0.249L0.185,-0.249C0.188,-0.216 0.194,-0.191 0.204,-0.174C0.214,-0.157 0.229,-0.145 0.248,-0.138C0.267,-0.131 0.293,-0.128 0.327,-0.128C0.372,-0.128 0.411,-0.132 0.447,-0.14C0.482,-0.148 0.505,-0.158 0.518,-0.171L0.535,-0.162L0.504,-0.04C0.479,-0.021 0.45,-0.007 0.418,0C0.386,0.008 0.346,0.012 0.297,0.012ZM0.411,-0.354C0.411,-0.396 0.402,-0.427 0.384,-0.448C0.366,-0.468 0.338,-0.478 0.301,-0.478C0.262,-0.478 0.233,-0.469 0.216,-0.451C0.198,-0.432 0.187,-0.4 0.184,-0.354L0.411,-0.354Z" style="fill:rgb(96,180,216);fill-rule:nonzero;"/>
                                </g>
                            </g>
                        </g>
                    </g>
                </g>
            </g>
            <g id="bulle-2" transform="matrix(0.166569,0,0,0.19467,-21.7379,-328.119)">
                <path d="M28.195,134.171C27.749,135.839 27.152,137.47 26.409,139.042C24.278,143.589 23.341,148.46 22.957,153.45C22.878,154.474 22.639,155.485 22.458,156.502L22.423,156.705C19.879,163.071 16.31,168.961 13.793,175.339L13.793,177.564C15.339,179.718 16.867,179.225 18.184,177.321C19.698,175.13 20.918,172.739 22.359,170.494C23.948,168.02 25.373,165.404 27.865,163.64C29.454,162.516 30.735,163.074 31.062,164.96C31.35,166.621 31.248,168.235 31.073,169.896C30.735,173.097 30.27,176.277 29.809,179.46C29.348,182.644 28.643,185.804 28.808,189.058C28.87,190.265 29.387,191.057 30.582,191.366C32.078,191.752 33.63,190.691 34.103,189.007C35.403,184.377 35.616,179.58 36.34,174.861C36.723,172.368 36.88,169.833 37.638,167.403C37.779,166.95 37.882,166.493 38.482,166.457C39.022,166.425 39.319,166.768 39.6,167.153C40.38,168.216 40.435,169.473 40.483,170.702C40.552,172.459 40.355,174.239 40.548,175.979C41.099,180.969 41.309,185.983 41.576,190.99C41.692,193.162 42.259,194.951 44.116,196.197L46.063,196.195C47.402,195.382 47.712,194.108 47.742,192.65C47.845,187.568 47.303,182.511 47.093,177.442C46.985,174.812 47.018,172.182 46.899,169.556C46.878,169.372 46.881,169.185 46.908,169.002C47.081,168.249 47.093,167.275 48.004,167.091C48.843,166.921 49.301,167.749 49.64,168.364C50.734,170.335 51.723,172.364 52.602,174.441C54.372,178.643 56.274,182.789 58.135,186.952C58.623,188.045 59.594,188.738 60.438,189.515C60.993,190.027 61.8,189.967 62.397,189.625C63.061,189.243 63.594,188.696 63.611,187.751C63.653,185.154 62.878,182.728 62.025,180.354C60.25,175.408 58.222,170.547 56.849,165.464C55.677,161.171 55.8,156.626 57.199,152.402C58.235,149.19 60.785,149.217 62.787,150.53C66.452,152.935 70.325,154.758 74.693,155.456C76.571,155.756 78.378,155.652 80.101,154.831C81.089,154.36 81.723,153.588 81.663,152.428C81.609,151.411 80.884,150.937 80.051,150.562C77.617,149.465 75.187,148.362 72.76,147.254C69.217,145.585 66.779,142.659 64.357,139.752C63.534,138.765 62.659,137.834 61.751,136.941C66.84,138.88 71.909,141.478 76.839,144.706C109.076,165.81 119.78,205.814 85.929,248.48C79.145,257.031 75.155,261.267 71.613,262.594C72.259,258.089 73.964,253.798 76.588,250.076C79.469,245.963 81.229,241.326 82.466,236.476C82.736,235.415 83.184,234.398 83.551,233.361C87.151,227.528 91.679,222.338 95.254,216.488L95.637,214.296C94.484,211.908 92.895,212.131 91.27,213.78C89.401,215.678 87.789,217.825 85.983,219.788C83.993,221.952 82.139,224.285 79.381,225.594C77.623,226.428 76.457,225.659 76.459,223.745C76.461,222.059 76.838,220.486 77.297,218.88C78.18,215.785 79.185,212.732 80.186,209.675C81.187,206.618 82.425,203.626 82.821,200.392C82.969,199.193 82.594,198.324 81.47,197.814C80.063,197.176 78.352,197.955 77.596,199.532C75.52,203.87 74.485,208.56 72.961,213.084C72.156,215.474 71.565,217.944 70.401,220.208C70.184,220.63 70.004,221.062 69.407,220.994C68.87,220.933 68.636,220.544 68.425,220.116C67.839,218.935 68.002,217.688 68.165,216.469C68.399,214.726 68.899,213.007 69.008,211.26C69.323,206.249 69.977,201.273 70.575,196.295C70.834,194.136 70.583,192.275 68.968,190.729L67.05,190.395C65.591,190.966 65.067,192.167 64.787,193.598C63.812,198.587 63.477,203.662 62.813,208.691C62.467,211.301 61.982,213.886 61.648,216.494C61.637,216.679 61.602,216.862 61.544,217.038C61.244,217.75 61.065,218.707 60.136,218.732C59.28,218.755 58.972,217.861 58.743,217.197C58.004,215.067 57.378,212.898 56.869,210.701C55.848,206.258 54.687,201.847 53.57,197.426C53.276,196.265 52.438,195.415 51.741,194.505C51.282,193.905 50.477,193.825 49.83,194.06C49.11,194.321 48.491,194.769 48.314,195.697C47.826,198.249 48.172,200.772 48.604,203.257C49.503,208.435 50.666,213.572 51.145,218.815C51.561,223.245 50.659,227.702 48.555,231.622C46.982,234.609 44.475,234.144 42.729,232.506C39.532,229.508 36.029,227.045 31.846,225.608C30.047,224.989 28.25,224.781 26.411,225.294C25.357,225.588 24.6,226.24 24.46,227.392C24.338,228.403 24.971,228.995 25.728,229.508C27.936,231.007 30.14,232.511 32.341,234.02C31.88,234.5 32.208,234.178 32.351,234.027L32.341,234.02C32.444,233.926 32.417,233.959 32.351,234.027C35.549,236.279 37.445,239.578 39.33,242.854C40.907,245.594 42.847,248.044 44.844,250.469C42.846,249.467 40.673,248.444 38.3,247.413C23.911,241.162 -17.638,176.407 5.088,148.911C11.42,141.25 19.385,136.402 28.195,134.171Z" style="fill:rgb(96,180,216);fill-rule:nonzero;"/>
            </g>
        </g>
    </g>
</svg>
