<svg id="livraison" xmlns="http://www.w3.org/2000/svg" width="85.116" height="63.833" viewBox="0 0 85.116 63.833">
  <path id="Tracé_1" data-name="Tracé 1" d="M158.608,170.7h.993c6.018,0,12.036.013,18.054-.013a2.192,2.192,0,0,1,2.24,1.463c2.45,5.566,4.929,11.119,7.372,16.689a4.187,4.187,0,0,1,.342,1.621c.025,5.615.017,11.23.014,16.845,0,2.058-1,3.046-3.067,3.048-.591,0-1.182.011-1.773,0a1.9,1.9,0,0,1-1.888-1.466c-1.055-5.622-5.648-7.453-10.576-7.2a13.32,13.32,0,0,0-2.691.44,7.893,7.893,0,0,0-5.97,6.013c-.5,1.9-.877,2.211-2.837,2.212q-11.082,0-22.165,0a2,2,0,0,1-2.23-1.557,11.873,11.873,0,0,0-2.343-4.09,9.721,9.721,0,0,0-7.06-3.018,11.852,11.852,0,0,0-6.927,1.7,9.117,9.117,0,0,0-3.964,5.287,1.982,1.982,0,0,1-2.2,1.68c-2.23,0-4.46.008-6.69,0a2.441,2.441,0,0,1-2.726-2.73q0-23.7.007-47.393a4.654,4.654,0,0,1,.2-1.421,2.321,2.321,0,0,1,2.239-1.644q25.551,0,51.1,0a2.356,2.356,0,0,1,2.55,2.57c.011,3.331,0,6.663.005,9.994Zm-3.93,35.786V161.077H106.429v45.411c1.413,0,2.779.021,4.142-.023a.909.909,0,0,0,.593-.492c2.463-5.144,6.707-7.7,12.229-8.142a13.812,13.812,0,0,1,13.914,8.068.914.914,0,0,0,.97.6c2.928-.025,5.855-.012,8.783-.012Zm3.954-1.027a14.118,14.118,0,0,1,25.088-.042V192c-.751,1.616-2.067,1.956-3.71,1.934-4.781-.063-9.563-.021-14.345-.024a2.875,2.875,0,0,1-3.189-3.179q0-7.615,0-15.231v-.873h-3.844Zm7.767-30.888V189.99h13.486c0-2.71,0-5.364,0-8.017a1.189,1.189,0,0,0-.111-.46c-.963-2.177-1.923-4.357-2.914-6.521a.8.8,0,0,0-.578-.4C173.008,174.569,169.737,174.575,166.4,174.575Z" transform="translate(-102.51 -157.163)"/>
  <path id="Tracé_2" data-name="Tracé 2" d="M201.738,229.746a7.737,7.737,0,1,1-7.772,7.663A7.709,7.709,0,0,1,201.738,229.746Zm-.036,3.868a3.868,3.868,0,1,0,3.87,3.822A3.905,3.905,0,0,0,201.7,233.614Z" transform="translate(-133.032 -181.387)"/>
  <path id="Tracé_3" data-name="Tracé 3" d="M130.568,229.746a7.737,7.737,0,1,1-7.734,7.721A7.717,7.717,0,0,1,130.568,229.746Zm3.871,7.751a3.866,3.866,0,1,0-3.86,3.852A3.957,3.957,0,0,0,134.439,237.5Z" transform="translate(-109.293 -181.387)"/>
  <path id="Tracé_4" data-name="Tracé 4" d="M156.641,208.451h-7.617c-2.928,0-5.856-.013-8.783.012a.914.914,0,0,1-.97-.6,13.811,13.811,0,0,0-13.914-8.068c-5.521.441-9.765,3-12.229,8.142a.909.909,0,0,1-.593.492c-1.363.044-2.729.023-4.142.023V163.038h48.249Zm-20.272-21.27-8.819-9.332q-3.044-3.221-6.088-6.443a2.007,2.007,0,0,0-2.486-.48,1.838,1.838,0,0,0-.931,2.187,3.283,3.283,0,0,0,.766,1.2q7.84,8.335,15.705,16.647c1.336,1.416,2.4,1.456,3.723,0,2.731-3,5.421-6.032,8.126-9.053a1.971,1.971,0,1,0-2.89-2.641q-1.13,1.205-2.235,2.433C139.632,183.494,138.034,185.3,136.368,187.181Z" transform="translate(-104.473 -159.124)" fill="#fff"/>
  <path id="Tracé_5" data-name="Tracé 5" d="M186.744,214.213V183.382h3.844v.873q0,7.615,0,15.231a2.875,2.875,0,0,0,3.189,3.179c4.782,0,9.564-.039,14.345.024,1.642.021,2.959-.318,3.71-1.934v13.417a14.118,14.118,0,0,0-25.088.042Z" transform="translate(-130.622 -165.913)" fill="#fff"/>
  <path id="Tracé_6" data-name="Tracé 6" d="M198.4,183.3c3.337,0,6.608-.007,9.879.017a.8.8,0,0,1,.578.4c.991,2.165,1.951,4.344,2.914,6.521a1.189,1.189,0,0,1,.111.46c.007,2.653,0,5.307,0,8.017H198.4Z" transform="translate(-134.513 -165.884)" fill="#fff"/>
  <path id="Tracé_7" data-name="Tracé 7" d="M203.642,235.552a3.868,3.868,0,1,1-3.863,3.831A3.9,3.9,0,0,1,203.642,235.552Z" transform="translate(-134.972 -183.324)" fill="#fff"/>
  <path id="Tracé_8" data-name="Tracé 8" d="M136.379,239.434a3.866,3.866,0,1,1-3.83-3.882A3.959,3.959,0,0,1,136.379,239.434Z" transform="translate(-111.233 -183.324)" fill="#fff"/>
</svg>
