<svg id="Caddie" xmlns="http://www.w3.org/2000/svg" width="67.812" height="68.372" viewBox="0 0 67.812 68.372">
  <path id="Tracé_36" data-name="Tracé 36" d="M74.217,657.363c-1.637,0-3.246,0-4.855,0a2.327,2.327,0,0,1-2.422-2.554,2.3,2.3,0,0,1,2.164-2.148q3.732-.038,7.464,0a2.27,2.27,0,0,1,2.136,1.964c.287,2.511.536,5.026.8,7.54.078.736.16,1.471.248,2.272h.866c16.39,0,32.78.035,49.171-.031a4.9,4.9,0,0,1,4.829,6.021c-1.918,8.664-3.748,17.348-5.6,26.026a7.094,7.094,0,0,1-7.015,5.7c-12.156,0-24.312-.038-36.468.026a7.265,7.265,0,0,1-7.333-6.862c-.262-3.213-.666-6.415-1-9.622-.324-3.1-.635-6.2-.961-9.3s-.665-6.2-.992-9.295c-.284-2.687-.558-5.375-.839-8.062C74.349,658.5,74.284,657.966,74.217,657.363Zm55.774,11.824H80.256c.057.581.107,1.119.164,1.656q.427,4.063.857,8.127.424,4.031.846,8.062c.279,2.666.526,5.335.846,8,.209,1.73,1.058,2.413,2.807,2.413h35.816a2.5,2.5,0,0,0,2.854-2.329q2.389-11.167,4.794-22.33C129.494,671.6,129.736,670.407,129.99,669.187Z" transform="translate(-66.935 -652.641)"/>
  <path id="Tracé_37" data-name="Tracé 37" d="M94.68,731.9a7.071,7.071,0,1,1-7.07,7.038A7.037,7.037,0,0,1,94.68,731.9Zm2.357,7.05a2.356,2.356,0,1,0-2.3,2.378A2.412,2.412,0,0,0,97.037,738.946Z" transform="translate(-73.463 -677.667)"/>
  <path id="Tracé_38" data-name="Tracé 38" d="M136.055,731.9a7.071,7.071,0,1,1-7.1,7.006A7.039,7.039,0,0,1,136.055,731.9Zm-.023,4.715a2.356,2.356,0,1,0,2.348,2.4A2.413,2.413,0,0,0,136.032,736.611Z" transform="translate(-86.518 -677.667)"/>
  <path id="Tracé_39" data-name="Tracé 39" d="M136.138,676.823c-.255,1.219-.5,2.408-.751,3.594q-2.4,11.166-4.794,22.33a2.5,2.5,0,0,1-2.854,2.329H91.923c-1.749,0-2.6-.682-2.807-2.413-.32-2.661-.567-5.33-.846-8q-.422-4.032-.846-8.062-.428-4.063-.857-8.127c-.057-.537-.107-1.075-.164-1.656ZM107.964,694.8c-.231-.141-.418-.246-.6-.365-1.542-1.027-3.076-2.068-4.627-3.081a2.369,2.369,0,1,0-2.621,3.945q3.47,2.342,6.964,4.647a2.3,2.3,0,0,0,3.222-.48q4.746-5.884,9.447-11.8a2.376,2.376,0,0,0-1.375-3.76,2.342,2.342,0,0,0-2.432.921q-2.467,3.1-4.944,6.187C109.994,692.263,108.988,693.518,107.964,694.8Z" transform="translate(-73.083 -660.277)" fill="#fff"/>
  <path id="Tracé_40" data-name="Tracé 40" d="M99.212,741.122a2.356,2.356,0,1,1-2.344-2.335A2.421,2.421,0,0,1,99.212,741.122Z" transform="translate(-75.639 -679.843)" fill="#fff"/>
  <path id="Tracé_41" data-name="Tracé 41" d="M138.208,738.787a2.356,2.356,0,1,1-2.364,2.314A2.414,2.414,0,0,1,138.208,738.787Z" transform="translate(-88.694 -679.843)" fill="#fff"/>
  <path id="Tracé_42" data-name="Tracé 42" d="M113.771,698.036c1.024-1.279,2.031-2.534,3.036-3.79q2.475-3.092,4.944-6.187a2.342,2.342,0,0,1,2.432-.921,2.376,2.376,0,0,1,1.375,3.76q-4.712,5.911-9.447,11.8a2.3,2.3,0,0,1-3.222.48q-3.495-2.3-6.964-4.647a2.369,2.369,0,1,1,2.621-3.945c1.551,1.013,3.085,2.054,4.627,3.081C113.353,697.79,113.54,697.9,113.771,698.036Z" transform="translate(-78.89 -663.516)"/>
</svg>
