<svg xmlns="http://www.w3.org/2000/svg" width="80.661" height="80.603" viewBox="0 0 80.661 80.603">
  <g id="touches" transform="translate(0.375 0.375)">
    <path id="Tracé_70" data-name="Tracé 70" d="M431.542,691.48a4.03,4.03,0,0,1,5.148,2.531,11.561,11.561,0,0,1,2.5.031,3.737,3.737,0,0,1,2.791,3.653c.023,5.241.042,10.481-.025,15.721a8.326,8.326,0,0,1-.7,2.758,16.073,16.073,0,0,1-1.374,2.754c-.638,1.023-.452,2.092-.468,3.247h2.541v10.307H411.069c-.014-.236-.037-.459-.037-.682,0-2.975.014-5.95-.014-8.924-.006-.583.175-.762.738-.719.586.045,1.177.01,1.8.01.067-1.156.211-2.21-.672-3.131-.66-.687-1.141-1.543-1.753-2.283a7.871,7.871,0,0,1-1.665-4.343c-.245-2.247-.5-4.5-.854-6.728a7.552,7.552,0,0,0-.847-2.143,13,13,0,0,0-1.091-1.661,3.262,3.262,0,0,1-.273-3.9,3.417,3.417,0,0,1,3.7-1.5,8.391,8.391,0,0,1,7.312,7.045c.272,1.458.565,2.911.854,4.366a.584.584,0,0,0,.272.37,10.138,10.138,0,0,0,.23-1.528q.023-10.093.009-20.184c0-.091-.015-.181-.032-.361-.234-.012-.474-.033-.714-.033-2.654,0-5.312-.077-7.963.017a6.582,6.582,0,0,1-6.782-6.781c.046-6.659.01-13.319.013-19.979a6.5,6.5,0,0,1,6.731-6.762q12.6-.007,25.2,0a6.506,6.506,0,0,1,6.758,6.736q.01,10.057,0,20.115a6.459,6.459,0,0,1-5.311,6.553,7.62,7.62,0,0,1-1.5.095c-2.608.009-5.218,0-7.826,0h-.792v2.693C429.316,688.563,430.471,689.17,431.542,691.48Zm-5.009-7.94h.678c2.723,0,5.446,0,8.168,0a3.819,3.819,0,0,0,3.994-3.957q.027-10.159,0-20.32a3.863,3.863,0,0,0-4.044-4.006q-12.7-.015-25.4,0a3.862,3.862,0,0,0-4.017,4.032q-.018,10.126,0,20.251a3.827,3.827,0,0,0,4.021,4q4.084.008,8.169,0c.216,0,.433-.024.612-.035.331-2.145-.536-4.359.911-6.25-.165-.135-.287-.238-.412-.337a25.688,25.688,0,0,1-7.65-9.877,5.425,5.425,0,0,1,1.174-6.3c.5-.5,1-1.008,1.505-1.5a4.479,4.479,0,0,1,6.5,0c.653.641,1.3,1.291,1.942,1.941a3.757,3.757,0,0,1-.7,6.158,1.167,1.167,0,0,0-.238,1.913c.3.317.611.618.921.923a1.213,1.213,0,0,0,2.127-.235,3.742,3.742,0,0,1,5.745-.877,36.338,36.338,0,0,1,2.57,2.573,4.356,4.356,0,0,1-.135,6.024c-.349.363-.73.7-1.063,1.072a5.666,5.666,0,0,1-5.382,2.213Zm-10.325,38.569h20.585c0-.533.033-1.014-.007-1.488a4.217,4.217,0,0,1,.571-2.484c.557-1,1.071-2.02,1.526-3.067a4.9,4.9,0,0,0,.475-1.833c.038-5.1.026-10.205.018-15.308a1.3,1.3,0,1,0-2.567.011c-.013,1.419,0,2.837-.006,4.256,0,.219-.022.436-.033.644H434.2v-.78q0-3.33,0-6.658c0-.958-.428-1.475-1.219-1.492-.826-.018-1.284.508-1.286,1.492q0,3.363,0,6.727v.713h-2.608v-.781c0-3,0-6,0-8.993a2.969,2.969,0,0,0-.122-.943,1.247,1.247,0,0,0-2.32-.009,2.919,2.919,0,0,0-.124.942c-.009,3.02,0,6.041,0,9.061v.725H423.9V702q0-10.879,0-21.76a5.548,5.548,0,0,0-.018-.754,1.251,1.251,0,0,0-2.475.036,6.619,6.619,0,0,0-.014.754q0,13.076,0,26.154a7.475,7.475,0,0,1-.844,3.56c-.33.626-.506,1.5-1.024,1.812-.546.325-1.415.108-2.143.126-.16,0-.322-.013-.48,0-.369.04-.51-.115-.581-.485-.44-2.307-.927-4.606-1.364-6.914-.6-3.146-2.135-4.887-4.845-5.4-.525-.1-1.119-.339-1.5.249-.369.567.169.941.43,1.325a10.963,10.963,0,0,1,2.167,4.531q.48,3.39.846,6.8a5.922,5.922,0,0,0,1.239,3.27c.883,1.078,1.709,2.205,2.507,3.348a2.479,2.479,0,0,1,.388,1.177C416.251,720.577,416.208,721.329,416.208,722.109Zm-2.486,7.747H439.34v-4.994H413.664c0,1.6,0,3.127,0,4.657A2.079,2.079,0,0,0,413.722,729.856Zm10.061-56.56a3.762,3.762,0,0,1-2.767-1.094c-.339-.34-.662-.7-1.022-1.016a3.825,3.825,0,0,1,.7-6.127,1.161,1.161,0,0,0,.245-1.95q-1.023-1.061-2.085-2.085a1.843,1.843,0,0,0-2.743.029c-.526.508-1.041,1.028-1.554,1.55a2.819,2.819,0,0,0-.618,3.334,22.893,22.893,0,0,0,7.876,9.643,1.406,1.406,0,0,0,.748.246,3.962,3.962,0,0,1,3.43,1.916,1.465,1.465,0,0,0,.792.551,2.581,2.581,0,0,0,2.579-.712c.554-.545,1.106-1.093,1.648-1.65a1.809,1.809,0,0,0,.016-2.732c-.65-.675-1.319-1.333-1.987-1.99a1.2,1.2,0,0,0-2.121.27A3.584,3.584,0,0,1,423.783,673.3Z" transform="translate(-362.085 -652.628)" stroke="#000" stroke-miterlimit="10" stroke-width="0.75"/>
    <path id="Tracé_71" data-name="Tracé 71" d="M370.814,686.144c-4.21,0-8.421-.065-12.629.02a6.586,6.586,0,0,1-6.725-6.77c.033-6.383,0-12.767.017-19.15a11.9,11.9,0,0,1,.2-2.588,6.328,6.328,0,0,1,6.167-5q13.006-.06,26.013,0a6.388,6.388,0,0,1,6.287,6.35q.064,10.4,0,20.8a6.359,6.359,0,0,1-6.355,6.326c-4.323.04-8.648.009-12.972.009Zm-.037-2.608q6.348,0,12.7,0a3.844,3.844,0,0,0,4.072-4.089q.012-10.019,0-20.039a3.9,3.9,0,0,0-4.173-4.157q-12.525-.007-25.049,0a3.918,3.918,0,0,0-4.246,4.225c-.006,6.634.017,13.268-.011,19.9a4,4,0,0,0,4.152,4.184C362.4,683.48,366.591,683.536,370.777,683.536Z" transform="translate(-351.447 -652.625)" stroke="#000" stroke-miterlimit="10" stroke-width="0.75"/>
    <path id="Tracé_72" data-name="Tracé 72" d="M370.805,737.981c-4.165,0-8.331-.089-12.493.027a6.66,6.66,0,0,1-6.867-6.917c.075-6.589.018-13.179.021-19.769a6.509,6.509,0,0,1,6.852-6.845q12.492,0,24.985,0a6.514,6.514,0,0,1,6.848,6.852q0,10.021,0,20.043a6.444,6.444,0,0,1-5.284,6.5,7.813,7.813,0,0,1-1.569.1Q377.051,737.989,370.805,737.981Zm-.03-2.608q6.348,0,12.7,0a3.834,3.834,0,0,0,4.068-4.021q.018-10.089,0-20.178a3.885,3.885,0,0,0-4.107-4.085q-12.628-.01-25.257,0a3.884,3.884,0,0,0-4.1,4.088q-.013,10.054,0,20.109a3.841,3.841,0,0,0,4.072,4.087Q364.461,735.379,370.775,735.374Z" transform="translate(-351.444 -663.268)" stroke="#000" stroke-miterlimit="10" stroke-width="0.75"/>
    <path id="Tracé_73" data-name="Tracé 73" d="M427.209,684.212v-2.6a5.666,5.666,0,0,0,5.382-2.213c.334-.376.714-.709,1.063-1.072a4.356,4.356,0,0,0,.135-6.024,36.339,36.339,0,0,0-2.57-2.573,3.742,3.742,0,0,0-5.745.877,1.213,1.213,0,0,1-2.127.235c-.31-.3-.625-.606-.921-.923a1.167,1.167,0,0,1,.238-1.913,3.757,3.757,0,0,0,.7-6.158c-.645-.65-1.289-1.3-1.942-1.941a4.479,4.479,0,0,0-6.5,0c-.505.5-1.005,1-1.505,1.5a5.425,5.425,0,0,0-1.174,6.3,25.688,25.688,0,0,0,7.65,9.877c.125.1.246.2.412.337-1.447,1.891-.58,4.1-.911,6.25-.179.011-.4.034-.612.035q-4.084,0-8.169,0a3.827,3.827,0,0,1-4.021-4q-.018-10.126,0-20.251a3.862,3.862,0,0,1,4.017-4.032q12.7-.018,25.4,0a3.863,3.863,0,0,1,4.044,4.006q.025,10.159,0,20.319a3.819,3.819,0,0,1-3.994,3.957c-2.723.006-5.446,0-8.168,0Z" transform="translate(-362.761 -653.302)" fill="#fff" stroke="#000" stroke-miterlimit="10" stroke-width="0.75"/>
    <path id="Tracé_74" data-name="Tracé 74" d="M417.55,728.771c0-.78.044-1.532-.018-2.276a2.479,2.479,0,0,0-.388-1.177c-.8-1.143-1.624-2.271-2.507-3.348a5.921,5.921,0,0,1-1.239-3.27q-.367-3.406-.846-6.8a10.963,10.963,0,0,0-2.167-4.531c-.261-.384-.8-.758-.43-1.325.383-.587.978-.347,1.5-.249,2.71.51,4.25,2.25,4.845,5.4.437,2.309.923,4.607,1.364,6.914.071.37.212.525.581.485.158-.017.32,0,.48,0,.728-.017,1.6.2,2.143-.125.517-.308.694-1.186,1.024-1.812a7.475,7.475,0,0,0,.844-3.56q-.013-13.076,0-26.154a6.62,6.62,0,0,1,.014-.754,1.251,1.251,0,0,1,2.475-.036,5.549,5.549,0,0,1,.018.754q0,10.88,0,21.76v.843h2.608v-.725c0-3.02,0-6.041,0-9.061a2.919,2.919,0,0,1,.124-.942,1.247,1.247,0,0,1,2.32.009,2.969,2.969,0,0,1,.122.943c.009,3,0,5.995,0,8.993v.781h2.608v-.713q0-3.363,0-6.727c0-.985.46-1.511,1.286-1.493.791.017,1.218.534,1.219,1.493q.006,3.328,0,6.658v.78h2.573c.011-.207.033-.425.033-.644,0-1.419-.007-2.837.006-4.256a1.3,1.3,0,1,1,2.567-.011c.008,5.1.02,10.205-.018,15.308a4.9,4.9,0,0,1-.475,1.833c-.455,1.047-.969,2.07-1.526,3.067a4.217,4.217,0,0,0-.571,2.484c.04.474.007.954.007,1.488Z" transform="translate(-363.428 -659.291)" fill="#fff" stroke="#000" stroke-miterlimit="10" stroke-width="0.75"/>
    <path id="Tracé_75" data-name="Tracé 75" d="M416.4,748.507a2.079,2.079,0,0,1-.055-.337c0-1.531,0-3.061,0-4.657h25.675v4.994Z" transform="translate(-364.765 -671.28)" fill="#fff" stroke="#000" stroke-miterlimit="10" stroke-width="0.75"/>
    <path id="Tracé_76" data-name="Tracé 76" d="M426.457,675.307a3.584,3.584,0,0,0,3.134-1.816,1.2,1.2,0,0,1,2.121-.27c.668.657,1.337,1.315,1.987,1.99a1.809,1.809,0,0,1-.016,2.732c-.542.557-1.094,1.1-1.648,1.65a2.581,2.581,0,0,1-2.579.712,1.466,1.466,0,0,1-.792-.551,3.962,3.962,0,0,0-3.43-1.916,1.407,1.407,0,0,1-.748-.246,22.893,22.893,0,0,1-7.876-9.643,2.819,2.819,0,0,1,.618-3.334c.513-.522,1.028-1.042,1.554-1.55a1.843,1.843,0,0,1,2.743-.029q1.062,1.022,2.085,2.085a1.161,1.161,0,0,1-.245,1.95,3.825,3.825,0,0,0-.7,6.127c.36.316.683.676,1.022,1.016A3.762,3.762,0,0,0,426.457,675.307Z" transform="translate(-364.759 -654.639)" fill="#fff" stroke="#000" stroke-miterlimit="10" stroke-width="0.75"/>
    <path id="Tracé_77" data-name="Tracé 77" d="M371.45,684.213c-4.186,0-8.374-.056-12.559.024a4,4,0,0,1-4.152-4.184c.028-6.634.006-13.268.011-19.9A3.918,3.918,0,0,1,359,655.925q12.525,0,25.049,0a3.9,3.9,0,0,1,4.173,4.157q.01,10.02,0,20.039a3.844,3.844,0,0,1-4.072,4.089Q377.8,684.217,371.45,684.213Zm0-5.075a1.266,1.266,0,0,0-.165-.047c-.2-.027-.409-.048-.613-.075a7.439,7.439,0,0,1-6.5-5.315,13.323,13.323,0,0,1-.237-6.178,7.607,7.607,0,0,1,8.321-6.4,7.712,7.712,0,0,1,6.928,7.573c.017,2.082.006,4.164,0,6.246,0,.973-.464,1.549-1.245,1.562s-1.264-.562-1.267-1.531c0-1.99.014-3.981-.006-5.971a5.228,5.228,0,0,0-4.949-5.38,5.153,5.153,0,0,0-5.365,4.779,16.437,16.437,0,0,0,.01,3.424,5.139,5.139,0,0,0,7.691,4.013c.067.181.118.307.16.436a3.853,3.853,0,0,0,7.569-1.176c0-1.006.014-2.013,0-3.019a46.44,46.44,0,0,0-.142-4.86,10.123,10.123,0,0,0-9.172-8.685,10.286,10.286,0,0,0-10.906,7.435,19.737,19.737,0,0,0-.364,5.38,10.318,10.318,0,0,0,10.253,10.339Z" transform="translate(-352.121 -653.302)" fill="#fff" stroke="#000" stroke-miterlimit="10" stroke-width="0.75"/>
    <path id="Tracé_78" data-name="Tracé 78" d="M371.453,736.047q-6.315,0-12.629,0a3.841,3.841,0,0,1-4.072-4.087q-.01-10.054,0-20.109a3.884,3.884,0,0,1,4.1-4.088q12.629-.011,25.257,0a3.885,3.885,0,0,1,4.107,4.085q.015,10.089,0,20.178a3.834,3.834,0,0,1-4.068,4.021Q377.8,736.052,371.453,736.047ZM357.38,712.923v17.97h28.226v-17.97Z" transform="translate(-352.122 -663.94)" fill="#fff" stroke="#000" stroke-miterlimit="10" stroke-width="0.75"/>
    <path id="Tracé_79" data-name="Tracé 79" d="M373.112,679.8v2.554a10.318,10.318,0,0,1-10.253-10.339,19.737,19.737,0,0,1,.364-5.38,10.286,10.286,0,0,1,10.906-7.435,10.123,10.123,0,0,1,9.172,8.685,46.44,46.44,0,0,1,.142,4.86c.017,1.006,0,2.013,0,3.019a3.853,3.853,0,0,1-7.569,1.176c-.041-.13-.093-.255-.16-.436a5.139,5.139,0,0,1-7.691-4.013,16.437,16.437,0,0,1-.01-3.424,5.153,5.153,0,0,1,5.365-4.779,5.228,5.228,0,0,1,4.949,5.38c.02,1.99,0,3.981.006,5.971,0,.969.486,1.544,1.267,1.531s1.244-.589,1.245-1.562c0-2.082.013-4.164,0-6.246a7.712,7.712,0,0,0-6.928-7.573,7.607,7.607,0,0,0-8.321,6.4,13.323,13.323,0,0,0,.237,6.178,7.439,7.439,0,0,0,6.5,5.315c.2.027.408.048.613.075A1.266,1.266,0,0,1,373.112,679.8Zm-2.563-9.089c.035.61.025,1.207.112,1.791a2.454,2.454,0,0,0,2.5,2.071,2.394,2.394,0,0,0,2.462-2.105,19.617,19.617,0,0,0-.006-3.477,2.443,2.443,0,0,0-2.491-2.1,2.512,2.512,0,0,0-2.464,2.063C370.575,669.54,370.585,670.137,370.549,670.713Z" transform="translate(-353.784 -653.966)" stroke="#000" stroke-miterlimit="10" stroke-width="0.75"/>
    <path id="Tracé_80" data-name="Tracé 80" d="M358.06,714.258h28.226v17.97H358.06Zm23.728,2.647H362.54c.215.23.347.38.487.521q2.738,2.741,5.479,5.478a5.011,5.011,0,0,0,7.332-.014q2.747-2.731,5.479-5.478C381.455,717.274,381.584,717.125,381.788,716.905ZM363.055,729.64h18.221l-4.793-3.839a7.651,7.651,0,0,1-8.634,0Zm20.633-10.711-5.16,5.172,5.16,4.116Zm-23.021-.048v9.324l5.164-4.134Z" transform="translate(-352.802 -665.275)" stroke="#000" stroke-miterlimit="10" stroke-width="0.75"/>
    <path id="Tracé_81" data-name="Tracé 81" d="M372.539,672.711c.036-.575.026-1.173.118-1.756a2.512,2.512,0,0,1,2.464-2.063,2.443,2.443,0,0,1,2.491,2.1,19.617,19.617,0,0,1,.006,3.477,2.394,2.394,0,0,1-2.462,2.105,2.454,2.454,0,0,1-2.5-2.071C372.564,673.918,372.574,673.32,372.539,672.711Z" transform="translate(-355.774 -655.964)" fill="#fff" stroke="#000" stroke-miterlimit="10" stroke-width="0.75"/>
    <path id="Tracé_82" data-name="Tracé 82" d="M382.945,717.589c-.2.22-.333.369-.471.507q-2.737,2.742-5.479,5.478a5.011,5.011,0,0,1-7.332.014q-2.746-2.732-5.479-5.478c-.141-.141-.272-.29-.487-.521Z" transform="translate(-353.959 -665.959)" fill="#fff" stroke="#000" stroke-miterlimit="10" stroke-width="0.75"/>
    <path id="Tracé_83" data-name="Tracé 83" d="M364.345,732.622l4.793-3.839a7.651,7.651,0,0,0,8.634,0l4.793,3.839Z" transform="translate(-354.092 -668.256)" fill="#fff" stroke="#000" stroke-miterlimit="10" stroke-width="0.75"/>
    <path id="Tracé_84" data-name="Tracé 84" d="M388.974,720.136v9.288l-5.16-4.116Z" transform="translate(-358.088 -666.482)" fill="#fff" stroke="#000" stroke-miterlimit="10" stroke-width="0.75"/>
    <path id="Tracé_85" data-name="Tracé 85" d="M361.341,720.076l5.164,5.19-5.164,4.134Z" transform="translate(-353.476 -666.469)" fill="#fff" stroke="#000" stroke-miterlimit="10" stroke-width="0.75"/>
  </g>
</svg>
