<svg id="securit" xmlns="http://www.w3.org/2000/svg" width="78.183" height="78.442" viewBox="0 0 78.183 78.442">
  <path id="Tracé_10" data-name="Tracé 10" d="M417.636,211.8l1.172,4.132c-1.85.2-3.69.524-5.538.572a33.248,33.248,0,0,1-32.783-24.015,30.351,30.351,0,0,1-1.053-7.923c-.025-5.382-.008-10.763-.006-16.145,0-.221.037-.442.064-.751,4.723.3,8.881-.929,12.181-4.417s4.3-7.709,3.9-12.416h33.5c-.384,4.667.6,8.912,3.884,12.392s7.445,4.739,12.187,4.441c.023.277.051.466.051.657-.011,5.979,0,11.959-.057,17.938-.015,1.408-.291,2.813-.451,4.268l-4.026-1.149c.771-5.535.249-11.113.424-16.673.024-.773-.161-1.019-.978-1.153a18.4,18.4,0,0,1-14.754-14.221c-.151-.722-.264-1.452-.42-2.314h-.768c-7.83,0-15.661.011-23.491-.017-.743,0-.919.214-1.008.94a18.541,18.541,0,0,1-15.312,15.662c-.42.063-.683.129-.679.642.034,4.5-.041,9,.092,13.494a25.1,25.1,0,0,0,5.449,14.706,29.353,29.353,0,0,0,18.835,11.474,25.21,25.21,0,0,0,9.168-.09A3.677,3.677,0,0,1,417.636,211.8Z" transform="translate(-375.332 -146.671)"/>
  <path id="Tracé_11" data-name="Tracé 11" d="M423.33,184.224h10.2v10.243h-10.17v10.224H413.084V194.522H402.86V184.261h10.162V174.039H423.33Z" transform="translate(-381.164 -152.442)"/>
  <path id="Tracé_12" data-name="Tracé 12" d="M450.586,238.777A16.507,16.507,0,1,1,467.1,222.3,16.513,16.513,0,0,1,450.586,238.777Zm-.01-29.91a13.417,13.417,0,0,0-.013,26.834,13.417,13.417,0,1,0,.013-26.834Z" transform="translate(-388.919 -160.336)"/>
  <path id="Tracé_13" data-name="Tracé 13" d="M379.886,213.884c-.143.157-.356.6-.646.656-.343.069-.988-.086-1.094-.325-.794-1.782-1.534-3.592-2.166-5.437a1.349,1.349,0,0,1,.674-1.149,1.363,1.363,0,0,1,1.24.512c.73,1.752,1.324,3.56,1.963,5.35A2.527,2.527,0,0,1,379.886,213.884Z" transform="translate(-374.472 -160.794)"/>
  <path id="Tracé_14" data-name="Tracé 14" d="M375,193.306a1.006,1.006,0,0,1,1.087.992c.129,1.812.265,3.627.282,5.442a1.367,1.367,0,0,1-.85.946c-.635.183-1.093-.269-1.215-.9a15.057,15.057,0,0,1-.214-2.032q-.088-1.618-.11-3.24A1.05,1.05,0,0,1,375,193.306Z" transform="translate(-373.978 -157.236)"/>
  <path id="Tracé_15" data-name="Tracé 15" d="M410.492,241.391c-1.792-.614-3.6-1.2-5.369-1.861a.888.888,0,0,1-.416-1.3.986.986,0,0,1,1.344-.556c.946.3,1.873.657,2.818.956.675.214,1.367.372,2.05.56a1.025,1.025,0,0,1,.836,1.276C411.636,241.123,411.142,241.291,410.492,241.391Z" transform="translate(-381.594 -168.256)"/>
  <path id="Tracé_16" data-name="Tracé 16" d="M397.94,235.751a6.288,6.288,0,0,1-.928-.388c-1.379-.9-2.746-1.822-4.114-2.74a1.062,1.062,0,0,1-.407-1.6c.346-.551.943-.562,1.634-.1,1.368.918,2.731,1.843,4.124,2.722a1.059,1.059,0,0,1,.5,1.312C398.638,235.285,398.209,235.5,397.94,235.751Z" transform="translate(-378.531 -166.513)"/>
  <path id="Tracé_17" data-name="Tracé 17" d="M422.106,240.836c.824,0,1.648.011,2.471,0a1.025,1.025,0,0,1,.151,2.044q-2.719.062-5.441-.01c-.616-.017-.847-.5-.8-1.091a.9.9,0,0,1,.98-.942c.881,0,1.762,0,2.642,0Z" transform="translate(-385.05 -169.061)"/>
  <path id="Tracé_18" data-name="Tracé 18" d="M387.865,225.414c-.219.276-.384.681-.663.786a1.233,1.233,0,0,1-1.08-.086q-1.926-2.161-3.712-4.446c-.358-.458-.152-.981.361-1.311a.923.923,0,0,1,1.357.186c1.119,1.362,2.242,2.719,3.349,4.09A4.475,4.475,0,0,1,387.865,225.414Z" transform="translate(-376.031 -163.913)"/>
  <path id="Tracé_19" data-name="Tracé 19" d="M471.736,183.3c0,.851,0,1.7,0,2.553,0,.678-.331,1.093-1.018,1.1a.964.964,0,0,1-1.049-1.074q-.017-2.638,0-5.276a.964.964,0,0,1,1.073-1.052.928.928,0,0,1,.993,1.031Q471.735,181.937,471.736,183.3Z" transform="translate(-397.785 -153.812)"/>
  <path id="Tracé_20" data-name="Tracé 20" d="M376.2,182.819c0,.883.007,1.765,0,2.647-.008.679-.334,1.076-1.044,1.063a.96.96,0,0,1-1.023-1.1c-.008-1.707,0-3.416,0-5.124,0-.712.313-1.145,1.064-1.146.717,0,1.01.419,1.01,1.1Q376.2,181.538,376.2,182.819Z" transform="translate(-374.014 -153.717)"/>
  <path id="Tracé_21" data-name="Tracé 21" d="M376.184,170.711c0,.57.019,1.021,0,1.469a.9.9,0,0,1-.98.949.932.932,0,0,1-1.067-.961c-.041-.823-.025-1.65-.008-2.475a1.055,1.055,0,0,1,1.1-1.083,19.839,19.839,0,0,1,2.474-.008.978.978,0,0,1,1.046,1.091,1,1,0,0,1-1.052,1.01C377.24,170.741,376.784,170.711,376.184,170.711Z" transform="translate(-374.01 -151.081)"/>
  <path id="Tracé_22" data-name="Tracé 22" d="M468.822,170.932c-.626-.128-1.154-.228-1.677-.346-.608-.137-.992-.515-.861-1.148a1.048,1.048,0,0,1,1.212-.837c.789.065,1.577.168,2.359.294a1.077,1.077,0,0,1,1.036,1.137c0,.852,0,1.7-.009,2.554a.9.9,0,0,1-.963.968.951.951,0,0,1-1.088-.943C468.79,172.077,468.822,171.539,468.822,170.932Z" transform="translate(-396.938 -151.088)"/>
  <path id="Tracé_23" data-name="Tracé 23" d="M471.624,195.88c-.122,1.354-.235,2.71-.367,4.064a1.09,1.09,0,0,1-1.157,1.109c-.575,0-.9-.617-.839-1.339.12-1.524.222-3.05.294-4.577.046-.956.315-1.372,1-1.379s1.017.415,1.022,1.352c0,.255,0,.51,0,.765Z" transform="translate(-397.684 -157.348)"/>
  <path id="Tracé_24" data-name="Tracé 24" d="M409.034,147.349h-2.39a.975.975,0,0,1-1.106-1.025c-.01-.682.391-1.026,1.086-1.024q2.477.008,4.952,0a.947.947,0,0,1,1.06,1.056.937.937,0,0,1-1.04.993C410.741,147.345,409.888,147.349,409.034,147.349Z" transform="translate(-381.83 -145.292)"/>
  <path id="Tracé_25" data-name="Tracé 25" d="M435.993,145.3h2.466a.94.94,0,0,1,1.056,1.049.927.927,0,0,1-1.025,1c-1.673,0-3.346,0-5.018,0a.946.946,0,0,1-1.059-1.052.957.957,0,0,1,1.112-1C434.348,145.314,435.171,145.3,435.993,145.3Z" transform="translate(-388.517 -145.291)"/>
  <path id="Tracé_26" data-name="Tracé 26" d="M448.105,147.344c-.463,0-.914.017-1.363,0a1.019,1.019,0,0,1,.03-2.035c.881-.018,1.764-.025,2.645,0a1.032,1.032,0,0,1,1.022,1.264c-.116.814-.246,1.627-.421,2.429a.989.989,0,0,1-1.15.9.96.96,0,0,1-.892-1.2C448.026,148.272,448.057,147.851,448.105,147.344Z" transform="translate(-391.847 -145.289)"/>
  <path id="Tracé_27" data-name="Tracé 27" d="M422.471,147.348c-.8,0-1.591,0-2.387,0-.714,0-1.149-.316-1.146-1.058,0-.709.427-1,1.1-.992,1.62.006,3.24.011,4.859,0,.7-.005,1.1.334,1.1,1.007.008.72-.41,1.069-1.147,1.05C424.063,147.333,423.266,147.348,422.471,147.348Z" transform="translate(-385.164 -145.291)"/>
  <path id="Tracé_28" data-name="Tracé 28" d="M397.722,147.349c0,.566.011,1.043,0,1.52a.949.949,0,0,1-1,1.037.9.9,0,0,1-.992-.938c-.082-.878-.161-1.757-.2-2.637a.876.876,0,0,1,.968-1.026c.854-.006,1.708,0,2.562,0a.929.929,0,0,1,1.035.993.944.944,0,0,1-1.061,1.054Z" transform="translate(-379.339 -145.292)"/>
  <path id="Tracé_29" data-name="Tracé 29" d="M397.014,155.973c-.631,1.507-1.217,3.036-1.914,4.512a1.01,1.01,0,0,1-1.524.443c-.62-.372-.5-.869-.254-1.472.527-1.279.971-2.595,1.412-3.907.214-.637.612-.978,1.262-.858C396.616,154.805,396.87,155.268,397.014,155.973Z" transform="translate(-378.741 -147.622)"/>
  <path id="Tracé_30" data-name="Tracé 30" d="M451.464,160.616c-.134-.1-.527-.255-.663-.532-.651-1.34-1.273-2.7-1.819-4.085a.988.988,0,0,1,.654-1.372c.681-.216,1.115.161,1.391.782.536,1.209,1.09,2.41,1.644,3.61C453.045,159.829,452.569,160.606,451.464,160.616Z" transform="translate(-392.619 -147.597)"/>
  <path id="Tracé_31" data-name="Tracé 31" d="M389.846,166.122c-.246.362-.378.78-.654.928-1.347.715-2.713,1.4-4.113,2.006a1.094,1.094,0,0,1-1.515-.691c-.121-.677.313-1,.884-1.264,1.206-.554,2.372-1.194,3.585-1.729a1.805,1.805,0,0,1,1.182-.047C389.465,165.4,389.611,165.807,389.846,166.122Z" transform="translate(-376.358 -150.255)"/>
  <path id="Tracé_32" data-name="Tracé 32" d="M461.427,167.3c-.034.821-.587,1.316-1.177,1.053a47.041,47.041,0,0,1-4.452-2.269,1.26,1.26,0,0,1-.2-1.231,1.389,1.389,0,0,1,1.267-.4,45.132,45.132,0,0,1,4.062,2.12C461.2,166.726,461.321,167.138,461.427,167.3Z" transform="translate(-394.264 -150.046)"/>
  <path id="Tracé_33" data-name="Tracé 33" d="M433,239.858l1,1.869c-.72.146-1.347.219-1.645-.522C432.129,240.641,432.295,240.167,433,239.858Z" transform="translate(-388.479 -168.819)"/>
  <path id="Tracé_34" data-name="Tracé 34" d="M451.621,209.9a13.417,13.417,0,1,1-13.391,13.4A13.476,13.476,0,0,1,451.621,209.9ZM448.8,225.68c-.789-.825-1.478-1.583-2.208-2.3a1.539,1.539,0,1,0-2.16,2.177q1.553,1.585,3.138,3.139a1.727,1.727,0,0,0,2.568,0c.553-.533,1.089-1.084,1.632-1.627q3.531-3.53,7.061-7.064a1.558,1.558,0,1,0-2.188-2.165c-.388.377-.766.764-1.149,1.146Z" transform="translate(-389.964 -161.364)" fill="#fff"/>
  <path id="Tracé_35" data-name="Tracé 35" d="M450.664,228.1l6.695-6.7c.382-.382.76-.769,1.149-1.146a1.558,1.558,0,1,1,2.188,2.165q-3.525,3.539-7.061,7.064c-.543.543-1.079,1.094-1.632,1.627a1.727,1.727,0,0,1-2.568,0q-1.585-1.553-3.138-3.139a1.539,1.539,0,1,1,2.16-2.177C449.186,226.516,449.875,227.273,450.664,228.1Z" transform="translate(-391.832 -163.781)"/>
</svg>
