<?xml version="1.0" encoding="utf-8"?>
<!-- Generator: Adobe Illustrator 21.0.0, SVG Export Plug-In . SVG Version: 6.00 Build 0)  -->
<svg version="1.1" id="Calque_1" xmlns="http://www.w3.org/2000/svg" xmlns:xlink="http://www.w3.org/1999/xlink" x="0px" y="0px"
	 viewBox="0 0 600 600" style="enable-background:new 0 0 600 600;" xml:space="preserve">
<style type="text/css">
	.st0{fill:#60B4D8;stroke:#60B4D8;stroke-width:0.202;}
</style>
<path class="st0" d="M226.5,447.8c-1.5-0.3-3-0.9-4.4,0.4c-9.1-6.3-18.3-12.5-27.5-18.8c-3.1-2.1-5.8-4.6-5.3-8.8
	c0.6-4.8,3.7-7.5,8.1-8.7c7.6-2.1,15.1-1.3,22.6,1.3c17.4,6,31.9,16.2,45.2,28.7c7.3,6.8,17.7,8.7,24.2-3.7
	c8.7-16.3,12.5-34.8,10.8-53.2c-2-21.8-6.8-43.1-10.6-64.7c-1.8-10.3-3.2-20.8-1.2-31.4c0.7-3.9,3.3-5.7,6.3-6.8
	c2.7-1,6-0.6,7.9,1.9c2.9,3.8,6.4,7.3,7.6,12.1c4.6,18.4,9.5,36.7,13.7,55.2c2.1,9.1,4.7,18.1,7.8,27c1,2.8,2.2,6.5,5.8,6.4
	c3.9-0.1,4.6-4.1,5.8-7c0.2-0.7,0.4-1.5,0.4-2.3c1.4-10.8,3.4-21.6,4.8-32.4c2.8-20.9,4.2-42,8.2-62.7c1.2-5.9,3.3-10.9,9.4-13.3
	l8,1.4c6.7,6.4,7.8,14.2,6.7,23.1c-2.5,20.7-5.2,41.4-6.5,62.2c-0.5,7.3-2.5,14.4-3.5,21.6c-0.7,5.1-1.4,10.2,1.1,15.2
	c0.9,1.8,1.8,3.4,4.1,3.6c2.5,0.3,3.2-1.5,4.1-3.3c4.8-9.4,7.3-19.7,10.6-29.6c6.3-18.8,10.6-38.3,19.3-56.3
	c3.1-6.6,10.3-9.8,16.1-7.1c4.7,2.1,6.2,5.7,5.6,10.7c-1.6,13.4-6.8,25.9-11,38.6c-4.2,12.7-8.3,25.4-12,38.3
	c-1.9,6.7-3.5,13.2-3.5,20.2c0,8,4.8,11.1,12.1,7.7C429,407.7,436.7,398,445,389c7.5-8.2,14.2-17.1,22-25c6.8-6.9,13.4-7.8,18.1,2.1
	l-1.6,9.1c-14.9,24.3-33.7,45.9-48.6,70.1c-1.5,4.3-3.4,8.5-4.5,12.9c-5.1,20.2-12.5,39.4-24.4,56.5c-10.9,15.5-18,33.3-20.7,52
	c14.7-5.5,31.3-23.1,59.5-58.6C585.4,331,541,164.7,407,77c-20.5-13.4-41.5-24.2-62.7-32.2c3.8,3.7,7.4,7.6,10.8,11.7
	c10.1,12.1,20.2,24.2,34.9,31.2c10.1,4.6,20.2,9.2,30.3,13.7c3.5,1.6,6.5,3.5,6.7,7.8c0.3,4.8-2.4,8-6.5,10
	c-7.2,3.4-14.7,3.8-22.5,2.6c-18.1-2.9-34.2-10.5-49.5-20.5c-8.3-5.5-18.9-5.6-23.2,7.8c-5.8,17.6-6.3,36.4-1.5,54.3
	c5.7,21.1,14.1,41.3,21.5,61.9c3.5,9.9,6.8,19.9,6.6,30.7c-0.1,3.9-2.3,6.2-5,7.8c-2.5,1.4-5.8,1.7-8.1-0.5
	c-3.5-3.2-7.5-6.1-9.6-10.6c-7.7-17.3-15.6-34.5-23-52c-3.7-8.6-7.8-17.1-12.3-25.3c-1.4-2.6-3.3-6-6.8-5.3
	c-3.8,0.8-3.8,4.8-4.6,7.9c-0.1,0.8-0.1,1.5,0,2.3c0.5,10.9,0.4,21.8,0.8,32.8c0.9,21.1,3.1,42.1,2.7,63.2c-0.1,6.1-1.4,11.4-7,14.7
	l-8.1,0c-7.7-5.2-10.1-12.6-10.6-21.6c-1.1-20.8-2-41.6-4.3-62.4c-0.8-7.2,0-14.6-0.3-21.9c-0.2-5.1-0.4-10.3-3.7-14.7
	c-1.2-1.6-2.4-3-4.6-2.9c-2.5,0.1-2.9,2-3.5,3.9c-3.1,10.1-3.8,20.6-5.4,31c-3,19.6-3.9,39.5-9.3,58.8c-2,7-8.4,11.4-14.6,9.8
	c-5-1.3-7.1-4.6-7.4-9.6c-0.7-13.5,2.2-26.7,4.2-39.9s3.8-26.4,5.3-39.7c0.7-6.9,1.1-13.6,0-20.5c-1.4-7.8-6.7-10.2-13.3-5.5
	c-10.4,7.3-16.3,18.2-22.9,28.5c-6,9.3-11.1,19.3-17.4,28.4c-5.5,7.9-11.8,10-18.2,1v-9.2c10.5-26.5,25.3-51,35.9-77.4
	c4.5-4,5.1-9.7,6.5-15c-1.4,5.3-2,11-6.5,15c0.8-4.5,1.9-9,2.2-13.5c1.6-20.7,5.5-41,14.3-59.9c3.1-6.5,5.6-13.3,7.4-20.2
	c-36.6,9.3-69.7,29.4-96,61.2c-94.4,114.3,78.2,383.4,138,409.3c9.9,4.3,18.9,8.5,27.2,12.7c-8.3-10.1-16.4-20.3-22.9-31.6
	c-7.8-13.6-15.7-27.3-29-36.7C223.4,446.9,225,447.5,226.5,447.8"/>
</svg>
